SplineFontDB: 3.0
FontName: PepperCarrot
FullName: PepperCarrot
FamilyName: PepperCarrot
Weight: Book
Copyright: PepperCarrot by Deevad\n\nBased on "ComicSpice" being my fork already of "Comic Relief" \nmade by David Revoy (Deevad, info@davidrevoy.com) in Nov,2016.\n\noriginal font is copyrighted (c) 2013, Jeff Davis (info@loudifier.com),\nwith Reserved Font Name "Comic Relief". Also, some accent from the font\n"Patrick Hand" by Patrick Wagesreiter, same license were used for \nlatin-extended. \n\nThis Font Software is licensed under the SIL Open Font License, Version 1.1.\nThis license is copied below, and is also available with a FAQ at:\nhttp://scripts.sil.org/OFL\n\n\n
Version: 1.1
ItalicAngle: 0
UnderlinePosition: -359
UnderlineWidth: 175
Ascent: 1638
Descent: 410
InvalidEm: 0
sfntRevision: 0x00010000
LayerCount: 3
Layer: 0 1 "Back" 1
Layer: 1 0 "Fore" 0
Layer: 2 0 "Back 2" 1
XUID: [1021 578 742194275 15552673]
StyleMap: 0x0040
FSType: 8
OS2Version: 1
OS2_WeightWidthSlopeOnly: 0
OS2_UseTypoMetrics: 0
CreationTime: 1358538608
ModificationTime: 1564780405
PfmFamily: 65
TTFWeight: 400
TTFWidth: 5
LineGap: 0
VLineGap: 0
Panose: 3 15 7 2 3 3 2 2 2 4
OS2TypoAscent: 1638
OS2TypoAOffset: 0
OS2TypoDescent: -597
OS2TypoDOffset: 0
OS2TypoLinegap: 0
OS2WinAscent: 2257
OS2WinAOffset: 0
OS2WinDescent: 599
OS2WinDOffset: 0
HheadAscent: 2257
HheadAOffset: 0
HheadDescent: -599
HheadDOffset: 0
OS2SubXSize: 1434
OS2SubYSize: 1331
OS2SubXOff: 0
OS2SubYOff: 293
OS2SupXSize: 1434
OS2SupYSize: 1331
OS2SupXOff: 0
OS2SupYOff: 928
OS2StrikeYSize: 175
OS2StrikeYPos: 630
OS2FamilyClass: 2568
OS2Vendor: 'LOUD'
OS2CodePages: 2000009f.00000000
OS2UnicodeRanges: 00000287.00000000.00000000.00000000
Lookup: 1 0 0 "'locl' Localized Forms in Latin lookup 0" { "'locl' Localized Forms in Latin lookup 0 subtable"  } ['locl' ('latn' <'LTH ' > ) ]
Lookup: 1 0 0 "'locl' Localized Forms in Latin lookup 1" { "'locl' Localized Forms in Latin lookup 1 subtable"  } ['locl' ('latn' <'ROM ' > ) ]

StartChar: .notdef
Encoding: 1114112 -1 0
Width: 549
Flags: HW
HStem: 0 68<111.521 372.64> 1297 68<111.521 372.64>
VStem: 43.5205 68<68 1297> 372.64 68<68 1297>
LayerCount: 3
Fore
SplineSet
43.5205078125 0 m 1
 43.5205078125 1365 l 1
 440.639648438 1365 l 1
 440.639648438 0 l 1
 43.5205078125 0 l 1
111.520507812 68 m 1
 372.639648438 68 l 1
 372.639648438 1297 l 1
 111.520507812 1297 l 1
 111.520507812 68 l 1
EndSplineSet
Validated: 1
EndChar

StartChar: glyph1
Encoding: 1114113 -1 1
Width: 709
GlyphClass: 2
Flags: HW
HStem: -603 216<215.28 356.632>
VStem: -45.4395 220<-350.31 -151.797> 379.712 204<-371.221 531.415> 401.712 199<176.585 1036>
LayerCount: 3
Fore
SplineSet
333.35546875 961 m 0
 337.78515625 1020.33333333 382.333333333 1050 467 1050 c 1
 500.732921543 1052.0624242 524.582729692 1051.12294735 538.549424445 1047.18156945 c 1
 637.231130042 1038.50189685 682.833307571 1009.77470703 675.355957031 961 c 0
 667.523836128 907.183385386 642.175334743 869.698883602 599.310452874 848.546494648 c 1
 583.711914062 -225 l 2
 583.903971354 -228.333333333 583.903971354 -231.666666667 583.711914062 -235 c 0
 583.903971354 -478.333333333 494.837565104 -600 316.512695312 -600 c 0
 309 -600 309 -600 300.512695312 -600 c 0
 164.837565104 -593.333333333 63.853515625 -516.333333333 -2.439453125 -369 c 0
 -14.146484375 -343 -25.6666666667 -317 -37 -291 c 1
 -34 -192 l 1
 0 -105 l 1
 42 -197 77.6666666667 -259 107 -291 c 0
 164.333333333 -353 229.637369792 -384 302.912109375 -384 c 0
 352.156423611 -384 377.756358507 -332 379.711914062 -228 c 2
 399.851862326 843.079066731 l 1
 351.384033458 862.881679876 329.218568933 902.188657633 333.35546875 961 c 0
EndSplineSet
EndChar

StartChar: glyph2
Encoding: 1114114 -1 2
Width: 1080
GlyphClass: 2
Flags: HW
HStem: 584 151<109.713 939.146>
LayerCount: 3
Fore
SplineSet
219.400390625 735 m 2
 796.146484375 737 l 2
 896.813151042 737 947.479817708 711.666666667 948.146484375 661 c 0
 948.146484375 609.666666667 900.146484375 584 804.146484375 584 c 2
 208.400390625 584 l 2
 137.733723958 584 102.400390625 608.666666667 102.400390625 658 c 0
 102.400390625 709.333333333 141.400390625 735 219.400390625 735 c 2
EndSplineSet
Validated: 1
EndChar

StartChar: exclam
Encoding: 33 33 4
Width: 434
GlyphClass: 2
Flags: HW
HStem: -65 249<98.3184 288.781>
VStem: 69.1201 248<-36.0469 154.846> 114.12 178<321.812 1598.07>
LayerCount: 3
Fore
SplineSet
162.120117188 181 m 0
 172.120117188 183.666666667 182.453450521 184.666666667 193.120117188 184 c 0
 204.453450521 184 215.453450521 182.666666667 226.120117188 180 c 0
 246.786783855 174 264.786783855 163.333333333 280.120117188 148 c 0
 298.120117188 131.333333333 309.120117188 113 313.120117188 93 c 0
 315.120117188 82.3333333333 316.453450521 71.3333333333 317.120117188 60 c 0
 317.120117188 46.6666666667 316.120117188 36.3333333333 314.120117188 29 c 0
 307.453450521 4.33333333333 295.120117188 -16.3333333333 277.120117188 -33 c 0
 258.453450521 -49.6666666667 236.120117188 -59.6666666667 210.120117188 -63 c 0
 204.786783855 -63.6666666667 199.120117188 -64.3333333333 193.120117188 -65 c 0
 173.786783855 -65 155.786783855 -60.6666666667 139.120117188 -52 c 0
 116.453450521 -41.3333333333 98.7867838545 -25 86.1201171875 -3 c 0
 74.7867838542 16.3333333333 69.1201171875 37.3333333333 69.1201171875 60 c 0
 69.1201171875 76.6666666667 72.1201171875 92.6666666667 78.1201171875 108 c 0
 85.4534505208 126 96.7867838543 141.333333333 112.120117188 154 c 0
 125.453450521 166.666666667 142.120117188 175.666666667 162.120117188 181 c 0
203.120117188 1606 m 0
 262.453450521 1606 292.120117188 1576 292.120117188 1516 c 2
 291.120117188 394 l 2
 291.120117188 340.666666667 260.786783855 314 200.120117188 314 c 0
 198.120117188 314 198.120117188 314 196.120117188 314 c 0
 142.120117188 312.666666667 115.120117188 341.333333333 115.120117188 400 c 2
 114.120117188 1518 l 2
 114.120117188 1519 114.120117188 1519 114.120117188 1520 c 0
 113.453450521 1578.66666667 141.786783855 1607.33333333 199.120117188 1606 c 0
 201.120117188 1606 201.120117188 1606 203.120117188 1606 c 0
EndSplineSet
Validated: 33
EndChar

StartChar: quotedbl
Encoding: 34 34 5
Width: 798
GlyphClass: 2
Flags: HW
HStem: 932 656
VStem: 73.5996 177<941.375 1567.94> 453.6 177<937.375 1563.94>
LayerCount: 3
Fore
SplineSet
175.599609375 1588 m 0
 234.266276042 1584.66666667 263.599609375 1551.66666667 263.599609375 1489 c 0
 263.599609375 1486 263.599609375 1486 263.599609375 1483 c 2
 250.599609375 1028 l 2
 248.599609375 964 220.599609375 932 166.599609375 932 c 2
 164.599609375 932 l 2
 103.932942708 932.666666667 73.599609375 963.333333333 73.599609375 1024 c 0
 73.599609375 1027 73.599609375 1027 73.599609375 1030 c 2
 87.599609375 1477 l 2
 90.2662760417 1551 118.266276042 1588 171.599609375 1588 c 0
 173.599609375 1588 173.599609375 1588 175.599609375 1588 c 0
555.599609375 1584 m 0
 614.266276042 1580.66666667 643.599609375 1547.66666667 643.599609375 1485 c 0
 643.599609375 1482 643.599609375 1482 643.599609375 1479 c 2
 630.599609375 1024 l 2
 628.599609375 960 600.599609375 928 546.599609375 928 c 2
 544.599609375 928 l 2
 483.932942708 928.666666667 453.599609375 959.333333333 453.599609375 1020 c 0
 453.599609375 1023 453.599609375 1023 453.599609375 1026 c 2
 467.599609375 1473 l 2
 470.266276042 1547 498.266276042 1584 551.599609375 1584 c 0
 553.599609375 1584 553.599609375 1584 555.599609375 1584 c 0
EndSplineSet
Validated: 1
EndChar

StartChar: numbersign
Encoding: 35 35 6
Width: 1289
GlyphClass: 2
Flags: HW
HStem: 399 174<27.2041 290.074 440.474 727.193 877.594 1158.48> 992 176<124.354 401.434 553.113 837.914 990.233 1254.63>
LayerCount: 3
Fore
SplineSet
114.954101562 1092 m 0
 116.287434895 1142 161.620768229 1167 250.954101562 1167 c 0
 345.11328125 1167 345.11328125 1167 434.07421875 1167 c 1
 490.393554688 1468 l 2
 504.473632813 1543.33333333 528.580403646 1572 562.713867188 1554 c 0
 601.113606771 1534 612.206705729 1480.66666667 595.993164062 1394 c 2
 553.11328125 1168 l 1
 712.473632812 1168 712.473632812 1168 871.193359375 1168 c 1
 927.513671875 1468 l 2
 941.593098958 1543.33333333 965.699544271 1572 999.833007812 1554 c 0
 1050.87792968 1534 1063.73372395 1480.66666667 1038.40039062 1394 c 2
 990.233398438 1169 l 1
 1154.40039062 1169 l 2
 1233.06705729 1169 1271.40039062 1141 1269.40039062 1085 c 0
 1266.73372395 1021.66666667 1220.40039062 990 1130.40039062 990 c 0
 1024.40039062 990 1024.40039062 990 956.313476562 990 c 1
 877.59375 575 l 1
 1057.40039062 575 l 2
 1136.06705729 575 1174.40039062 547 1172.40039062 491 c 0
 1169.73372395 427.666666667 1123.40039062 396 1033.40039062 396 c 0
 969.208984373 396 905.966796875 396.333333333 843.673828125 397 c 1
 787.353515625 98 l 2
 775.833984375 38 750.020833333 18.3333333333 709.9140625 39 c 0
 679.620442708 54.3333333333 672.366861979 104.666666667 688.153320312 190 c 2
 727.193359375 397 l 1
 407.193359375 398 l 1
 350.233398438 98 l 2
 338.713216146 38 312.899739583 18.3333333333 272.79296875 39 c 0
 228.900390625 54.3333333333 219.287434895 104.666666667 243.954101562 190 c 2
 290.07421875 399 l 1
 108.954101562 399 l 2
 46.2874348957 399 15.9541015625 432 17.9541015625 498 c 0
 19.2874348958 548 64.620768229 573 153.954101562 573 c 2
 322.713867188 573 l 1
 401.43359375 992 l 1
 205.954101562 993 l 2
 143.287434895 993 112.954101562 1026 114.954101562 1092 c 0
440.473632812 574 m 1
 760.473632812 574 l 1
 837.9140625 991 l 1
 519.833007812 992 l 1
 440.473632812 574 l 1
EndSplineSet
Validated: 33
EndChar

StartChar: dollar
Encoding: 36 36 7
Width: 1172
GlyphClass: 2
Flags: HW
HStem: -64 184<338.388 463.514> 631 192<429.611 462.233 637.153 758.973>
VStem: 463.514 173<-350.447 -246 144 631 837 1262 1477 1708.5>
LayerCount: 3
Fore
SplineSet
549.513671875 1715 m 0
 606.847005208 1715.66666667 635.513671875 1690 635.513671875 1638 c 2
 636.513671875 1477 l 1
 640.993164062 1477 640.993164062 1477 644.833007812 1477 c 0
 711.819986979 1477 797.066080729 1449.33333333 900.571289062 1394 c 0
 943.237955729 1374.66666667 964.571289062 1341.66666667 964.571289062 1295 c 0
 964.571289062 1267.66666667 944.904622395 1245.66666667 905.571289062 1229 c 0
 870.904622395 1215.66666667 829.21875 1219.66666667 780.513671875 1241 c 0
 727.180338542 1273.66666667 679.180338542 1290 636.513671875 1290 c 1
 636.513671875 1059 636.513671875 1059 636.513671875 827 c 1
 650.166666666 825.666666667 663.606445312 824.333333333 676.833007812 823 c 0
 787.325195312 807 869.904622395 770.666666667 924.571289062 714 c 0
 1008.57128906 627.333333333 1047.57128906 530.333333333 1041.57128906 423 c 0
 1032.23795573 257.666666667 947.138671873 127.333333333 786.2734375 32 c 0
 743.1796875 -7.33333333333 693.259765625 -34.3333333333 636.513671875 -49 c 1
 637.153320312 -247 l 2
 637.153320312 -323 607.940104166 -361 549.513671875 -361 c 0
 493.513671875 -360.333333333 465.180338542 -322 464.513671875 -246 c 0
 464.513671875 -185.333333333 464.180338542 -124.666666667 463.513671875 -64 c 1
 463.513671875 -64 463.513671875 -64 462.874023438 -64 c 0
 386.073893229 -64.6666666667 317.935872396 -48.3333333333 258.459960938 -15 c 0
 205.126627605 7 159.793294271 34.3333333333 122.459960938 67 c 0
 66.4599609377 115.666666667 42.4599609375 165.666666667 50.4599609375 217 c 0
 57.1266276042 261.666666667 77.1266276043 291 110.459960938 305 c 0
 153.793294271 323 202.459960938 303 256.459960938 245 c 0
 291.668945313 201.666666667 325.700195313 170.333333333 358.553710938 151 c 0
 393.540039063 131.666666667 428.526692708 121.333333333 463.513671875 120 c 1
 462.233398438 635 l 1
 294.384440105 638.333333333 188.459960938 729.666666667 144.459960938 909 c 0
 119.126627605 1012.33333333 135.793294271 1115 194.459960938 1217 c 0
 237.126627605 1291 300.357747396 1355.66666667 384.153320312 1411 c 0
 408.472981771 1429 434.072916667 1443.33333333 460.953125 1454 c 1
 460.953125 1546 460.953125 1546 460.953125 1638 c 0
 460.953125 1688.66666667 490.473307292 1714.33333333 549.513671875 1715 c 0
636.513671875 631 m 1
 636.513671875 144 l 1
 691.126953125 165.333333333 729.740234375 193 752.353515625 227 c 0
 825.165364583 313 848.904622395 402.333333333 823.571289062 495 c 0
 803.399414062 571.666666667 741.046875 617 636.513671875 631 c 1
462.233398438 837 m 1
 461.59375 1262 l 1
 435.993489583 1248.66666667 414.020182292 1231 395.673828125 1209 c 0
 355.567057292 1160.33333333 333.380208333 1105.66666667 329.11328125 1045 c 0
 321.43359375 925.666666667 352.153645833 857.666666667 421.2734375 841 c 1
 462.233398438 837 l 1
EndSplineSet
Validated: 33
EndChar

StartChar: percent
Encoding: 37 37 8
Width: 1524
GlyphClass: 2
Flags: HW
HStem: -29 165<1084.7 1232.46> 476 160<1086.33 1232.08> 1045 147<291.782 504.085> 1496 142<290.492 504.578>
VStem: 99.2002 147<1236.31 1450.37> 550.2 144<1237.68 1449.8> 885.2 164<170.379 442.707> 1267.44 161<169.254 442.063>
LayerCount: 3
Fore
SplineSet
1113.83984375 1609 m 0
 1143.27994792 1585.66666667 1151.5999349 1552.33333333 1138.79980469 1509 c 2
 480.200195312 -32 l 2
 454.866861979 -86.6666666667 415.033528645 -101.833333333 360.700195312 -77.5 c 128
 306.366861979 -53.1666666667 291.866861979 -14 317.200195312 40 c 2
 1044.20019531 1582 l 2
 1058.6266276 1625.33333333 1081.83984375 1634.33333333 1113.83984375 1609 c 0
297.200195312 1621 m 0
 329.200195312 1632.33333333 362.533528645 1638 397.200195312 1638 c 0
 415.200195312 1638 432.533528645 1636.33333333 449.200195312 1633 c 0
 503.200195312 1623 549.866861979 1601.33333333 589.200195312 1568 c 0
 629.866861979 1533.33333333 658.866861979 1491.66666667 676.200195312 1443 c 0
 688.200195312 1410.33333333 694.200195312 1376.33333333 694.200195312 1341 c 0
 694.200195312 1324.33333333 692.533528645 1307.66666667 689.200195312 1291 c 0
 679.866861979 1237 657.533528645 1189.66666667 622.200195312 1149 c 0
 586.866861979 1107.66666667 543.533528645 1078.33333333 492.200195312 1061 c 0
 461.533528645 1050.33333333 429.533528645 1045 396.200195312 1045 c 0
 375.533528645 1045 355.200195312 1047 335.200195312 1051 c 0
 281.866861979 1062.33333333 235.200195312 1086.33333333 195.200195312 1123 c 0
 156.533528645 1158.33333333 129.533528645 1200.66666667 114.200195312 1250 c 0
 104.866861979 1279.33333333 99.8668619788 1310 99.2001953125 1342 c 0
 99.2001953125 1362 101.200195312 1381.66666667 105.200195312 1401 c 0
 115.866861979 1453.66666667 138.200195312 1498.66666667 172.200195312 1536 c 0
 207.533528645 1575.33333333 249.200195312 1603.66666667 297.200195312 1621 c 0
399.200195312 1192 m 2
 427.200195312 1192 452.866861979 1199.33333333 476.200195312 1214 c 0
 500.200195312 1228.66666667 518.866861979 1248 532.200195312 1272 c 0
 544.200195312 1294.66666667 550.200195312 1318.66666667 550.200195312 1344 c 0
 550.200195312 1347 550.200195312 1347 550.200195312 1350 c 0
 548.866861979 1379.33333333 540.533528645 1405 525.200195312 1427 c 0
 515.200195312 1443 501.533528645 1457 484.200195312 1469 c 0
 467.533528645 1480.33333333 449.533528645 1488 430.200195312 1492 c 0
 420.200195312 1494.66666667 409.533528645 1496 398.200195312 1496 c 0
 368.200195312 1496 340.866861979 1488 316.200195312 1472 c 0
 287.533528645 1454 267.200195312 1429 255.200195312 1397 c 0
 248.533528645 1379.66666667 245.533528645 1362 246.200195312 1344 c 0
 246.200195312 1329.33333333 248.200195312 1315 252.200195312 1301 c 0
 261.533528645 1268.33333333 279.866861979 1242 307.200195312 1222 c 128
 334.533528645 1202 364.866861979 1192 398.200195312 1192 c 2
 399.200195312 1192 l 2
1086.3203125 617 m 0
 1109.36002604 629.666666667 1133.25325521 636 1158 636 c 0
 1170.80013021 636 1183.38671875 634 1195.75976562 630 c 0
 1234.58658854 619.333333333 1273.14648437 595.333333333 1311.43945312 558 c 0
 1356.77278645 518.666666667 1389.10611979 471.666666667 1408.43945312 417 c 0
 1421.77278645 380.333333333 1428.43945312 342.333333333 1428.43945312 303 c 0
 1428.43945312 284.333333333 1427.10611979 265.666666667 1424.43945312 247 c 0
 1413.77278645 186.333333333 1388.77278645 133.333333333 1349.43945312 88 c 0
 1310.10611979 42 1269.11946614 9 1226.47949219 -11 c 0
 1204.29329427 -23 1181.25358073 -29 1157.36035156 -29 c 0
 1142.42675781 -29 1127.91992188 -26.6666666667 1113.83984375 -22 c 0
 1075.44010417 -9.33333333333 1035.22688802 17.3333333333 993.200195312 58 c 0
 949.866861979 97.3333333333 919.200195312 145 901.200195312 201 c 0
 890.533528645 234.333333333 885.200195312 268.666666667 885.200195312 304 c 0
 885.200195312 326.666666667 887.533528645 348.666666667 892.200195312 370 c 0
 904.200195312 429.333333333 929.200195312 479.666666667 967.200195312 521 c 0
 1006.53352864 565.666666667 1046.24023437 597.666666667 1086.3203125 617 c 0
1159.27929688 136 m 2
 1179.33333333 136 1197.89355469 144 1214.95996094 160 c 128
 1232.02701823 176 1245.25358073 197.666666667 1254.63964844 225 c 0
 1263.17285156 250.333333333 1267.43945312 277.333333333 1267.43945312 306 c 0
 1267.43945312 310 1267.43945312 310 1267.43945312 313 c 0
 1266.58658854 345.666666667 1260.82682292 374.333333333 1250.16015625 399 c 0
 1242.90625 417 1232.87955729 432.666666667 1220.08007812 446 c 0
 1208.55989583 458.666666667 1195.75976563 467.333333333 1181.6796875 472 c 0
 1174.42643229 474.666666667 1166.74641927 476 1158.63964844 476 c 0
 1136.87988281 476 1117.25325521 467 1099.75976562 449 c 0
 1079.27994791 428.333333333 1064.7734375 400.333333333 1056.24023438 365 c 0
 1051.546875 345.666666667 1049.20019531 326 1049.20019531 306 c 0
 1049.20019531 289.333333333 1050.69335937 273.333333333 1053.6796875 258 c 0
 1060.50651042 221.333333333 1073.73339844 191.666666667 1093.36035156 169 c 128
 1112.98665365 146.333333333 1134.74641927 135.333333333 1158.63964844 136 c 2
 1159.27929688 136 l 2
EndSplineSet
Validated: 33
EndChar

StartChar: ampersand
Encoding: 38 38 9
Width: 1074
GlyphClass: 2
Flags: HW
LayerCount: 3
Fore
SplineSet
386 234 m 1
 263 87 l 1
 239.666666667 30.3333333333 240.5 -6.83333333333 265.5 -24.5 c 128
 290.5 -42.1666666667 316.5 -50.3333333333 343.5 -49 c 128
 370.5 -47.6666666667 384.268554687 -46.8798828125 384.805664062 -46.6396484375 c 0
 413.988099782 -22.4457294059 441.758933115 -4.49878930173 468.118164062 7.201171875 c 2
 533 36 l 1
 386 234 l 1
473 492 m 1
 557 558 l 2
 614.900662251 603.493377483 631.900662251 645.493377483 608 684 c 0
 578 731.333333333 535 752.333333333 479 747 c 0
 441 743.666666667 414 720.666666667 398 678 c 0
 395.884160344 672.357760917 410.941452011 632.938164563 443.171875 559.741210938 c 2
 473 492 l 1
923.198242188 -165.999023438 m 2
 955.716360249 -205.339899534 944.619769614 -236.519732313 889.908470283 -259.538521774 c 128
 835.197170953 -282.557311235 791.732563671 -273.12878054 759.514648438 -231.252929688 c 2
 655.469726562 -96.0185546875 l 1
 584.227539062 -160.436523438 l 2
 528.075846354 -211.478841146 460.056966146 -236.159505208 380.170898438 -234.478515625 c 0
 246.056966146 -232.159505208 147.582682292 -181.393554688 84.748046875 -82.1806640625 c 0
 38.9723960314 -10.1489405263 65.9551434271 84.6342625985 165.696289062 202.168945312 c 2
 320 384 l 1
 286.1640625 443.474609375 l 2
 218.721354167 561.824869792 207.733072917 657.0625 253.19921875 729.1875 c 0
 309.733072917 817.729166667 396.519205729 858.728515625 513.557617188 852.185546875 c 0
 586.820623775 847.74187154 655.917628983 797.836923623 720.848632812 702.470703125 c 0
 779.616210937 616.156901042 721 498 545 348 c 1
 682.037109375 191.89453125 l 1
 713.505385624 217.558677633 l 1
 715.835128541 286.519559211 763.9140625 326 857.7421875 336 c 1
 1065.70214844 327 l 1
 1065.90071615 214.333333333 1008.62867408 143.17105405 893.886022253 113.513162151 c 0
 889.962007418 112.504387384 886.852864583 109.985026042 884.55859375 105.955078125 c 1
 771.948242188 16.9853515625 l 1
 923.198242188 -165.999023438 l 2
EndSplineSet
EndChar

StartChar: quotesingle
Encoding: 39 39 10
Width: 666
GlyphClass: 2
Flags: HW
HStem: 1141 518
VStem: 190.335 176<1150.53 1649.82>
LayerCount: 3
Fore
SplineSet
274.334960938 1659 m 0
 335.668294271 1661 366.334960938 1625.66666667 366.334960938 1553 c 2
 366.334960938 1244 l 2
 366.334960938 1175.33333333 338.001627605 1141 281.334960938 1141 c 0
 222.001627605 1140.33333333 191.668294271 1174.33333333 190.334960938 1243 c 2
 184.334960938 1551 l 2
 183.001627605 1620.33333333 213.001627605 1656.33333333 274.334960938 1659 c 0
EndSplineSet
Validated: 33
EndChar

StartChar: parenleft
Encoding: 40 40 11
Width: 724
GlyphClass: 2
Flags: HW
LayerCount: 3
Fore
SplineSet
538.090820312 -214 m 0
 660.757486979 -296.666666667 686.757486979 -365.333333333 616.090820312 -420 c 0
 566.757486979 -457.333333333 488.757486979 -427.333333333 382.090820312 -330 c 0
 276.090820312 -233.333333333 200.757486979 -116 156.090820312 22 c 0
 92.757486979 219.333333333 64.7574869792 422 72.0908203125 630 c 0
 78.7574869792 809.333333333 120.757486979 988 198.090820312 1166 c 0
 252.757486979 1295.33333333 318.757486979 1401.33333333 396.090820312 1484 c 0
 502.757486979 1596 579.424153645 1627.33333333 626.090820312 1578 c 0
 676.757486979 1524.66666667 641.424153645 1442.66666667 520.090820312 1332 c 0
 421.424153645 1241.33333333 350.757486979 1094 308.090820312 890 c 0
 272.090820312 716.666666667 264.757486979 540.666666667 286.090820312 362 c 0
 321.424153645 67.3333333333 405.424153645 -124.666666667 538.090820312 -214 c 0
EndSplineSet
Validated: 33
EndChar

StartChar: parenright
Encoding: 41 41 12
Width: 726
GlyphClass: 2
Flags: HW
LayerCount: 3
Fore
SplineSet
190.508789062 -214 m 0
 323.175455729 -124.666666667 407.175455729 67.3333333333 442.508789062 362 c 0
 463.842122395 540.666666667 456.508789062 716.666666667 420.508789062 890 c 0
 377.842122395 1094 307.175455729 1241.33333333 208.508789062 1332 c 0
 87.175455729 1442.66666667 51.8421223957 1524.66666667 102.508789062 1578 c 0
 149.175455729 1627.33333333 225.842122395 1596 332.508789062 1484 c 0
 409.842122395 1401.33333333 475.842122395 1295.33333333 530.508789062 1166 c 0
 607.842122395 988 649.842122395 809.333333333 656.508789062 630 c 0
 663.842122395 422 635.842122395 219.333333333 572.508789062 22 c 0
 527.842122395 -116 452.508789062 -233.333333333 346.508789062 -330 c 0
 239.842122395 -427.333333333 161.842122395 -457.333333333 112.508789062 -420 c 0
 41.8421223957 -365.333333333 67.8421223957 -296.666666667 190.508789062 -214 c 0
EndSplineSet
Validated: 33
EndChar

StartChar: asterisk
Encoding: 42 42 13
Width: 891
GlyphClass: 2
Flags: HW
VStem: 350.233 113.28<1271 1591.5>
LayerCount: 3
Fore
SplineSet
407.833007812 1593 m 0
 445.379882812 1591.66666667 464.153320312 1560.66666667 464.153320312 1500 c 2
 463.513671875 1271 l 1
 637.990234375 1347 l 2
 703.323567708 1370.33333333 745.656901042 1353.66666667 764.990234375 1297 c 0
 784.990234375 1243 764.656901042 1205 703.990234375 1183 c 2
 508.953125 1107 l 1
 655.990234375 949 l 2
 698.656901042 905.666666667 697.656901042 863 652.990234375 821 c 0
 610.323567708 781 567.858072917 782.666666667 525.59375 826 c 2
 405.2734375 1019 l 1
 288.153320312 833 l 2
 239.839518229 783.666666667 194.682617188 780.333333333 152.682617188 823 c 0
 111.349283854 863 113.349283854 906.333333333 158.682617188 953 c 2
 301.59375 1107 l 1
 102.682617188 1182 l 2
 46.015950521 1202.66666667 28.6826171875 1241.33333333 50.6826171875 1298 c 0
 72.0159505208 1352.66666667 111.015950521 1369.66666667 167.682617188 1349 c 2
 350.233398438 1269 l 1
 350.233398438 1347.66666667 350.020182292 1426 349.59375 1504 c 0
 349.166666667 1564.66666667 368.579752604 1594.33333333 407.833007812 1593 c 0
EndSplineSet
Validated: 33
EndChar

StartChar: plus
Encoding: 43 43 14
Width: 888
GlyphClass: 2
Flags: HW
HStem: 558 179<42.8232 331.113 509.113 785.112>
VStem: 329.113 180<239.593 558 737 1034.61>
LayerCount: 3
Fore
SplineSet
423.11328125 1045 m 0
 480.446614583 1044.33333333 509.11328125 1010.33333333 509.11328125 943 c 2
 509.11328125 737 l 1
 695.986328125 738 l 2
 762.652994792 738 795.986328125 708.333333333 795.986328125 649 c 0
 795.986328125 591.666666667 762.319661458 562.666666667 694.986328125 562 c 0
 624.986328125 561.333333333 563.028645833 560.666666667 509.11328125 560 c 1
 509.11328125 319 l 2
 509.11328125 259 479.11328125 229.666666667 419.11328125 231 c 0
 358.259765625 231.666666667 328.259765625 262.333333333 329.11328125 323 c 0
 329.779947917 401 330.446614583 479.333333333 331.11328125 558 c 1
 270.995442709 557.333333333 201.269856771 556.666666667 121.936523438 556 c 0
 61.9365234377 555.333333333 32.6031901042 585 33.9365234375 645 c 0
 33.9365234375 705.666666667 64.269856771 736 124.936523438 736 c 2
 332.11328125 737 l 1
 332.779947917 806.333333333 333.11328125 875.666666667 333.11328125 945 c 0
 333.11328125 1012.33333333 363.11328125 1045.66666667 423.11328125 1045 c 0
EndSplineSet
Validated: 33
EndChar

StartChar: comma
Encoding: 44 44 15
Width: 311
GlyphClass: 2
Flags: HW
LayerCount: 3
Fore
SplineSet
-8.19921875 52.5 m 0
 -8.19921875 141.5 27.2005208333 186 98 186 c 0
 194.760416667 186 243.140625 160.412434896 243.140625 109.237304688 c 0
 243.140625 57.0376416649 231.113351882 19.4169439511 207.058805646 -3.62478845315 c 1
 164 -96 l 2
 110.666666667 -210.666666667 31.6666666667 -275.666666667 -73 -291 c 1
 -67.9283854167 -290.265625 -46.9283854167 -237.265625 -10 -132 c 2
 31.6049300783 -13.4044300777 l 1
 5.06883085943 0.405575751453 -8.19921875 22.3737191107 -8.19921875 52.5 c 0
EndSplineSet
EndChar

StartChar: hyphen
Encoding: 45 45 16
Width: 814
GlyphClass: 2
Flags: HW
HStem: 469 151<76.1797 712.516>
VStem: 71.6797 646<474.875 614.567>
LayerCount: 3
Fore
SplineSet
143.6796875 620 m 2
 623.6796875 622 l 2
 686.346354167 622 717.6796875 596.666666667 717.6796875 546 c 0
 717.6796875 494 688.013020833 468 628.6796875 468 c 2
 137.6796875 469 l 2
 93.6796875 469 71.6796875 493.666666667 71.6796875 543 c 0
 71.6796875 594.333333333 95.6796875 620 143.6796875 620 c 2
EndSplineSet
Validated: 1
EndChar

StartChar: period
Encoding: 46 46 17
Width: 461
GlyphClass: 2
Flags: HW
HStem: -93 249<121.536 311.732>
VStem: 91.5205 249<-64.208 126.343>
LayerCount: 3
Fore
SplineSet
212.520507812 156 m 0
 214.520507812 156 214.520507812 156 216.520507812 156 c 0
 239.187174479 156 260.187174479 150.333333333 279.520507812 139 c 0
 300.187174479 127 315.853841145 110.333333333 326.520507812 89 c 0
 335.853841145 71 340.520507812 51.6666666667 340.520507812 31 c 0
 340.520507812 26 340.520507812 26 340.520507812 21 c 0
 338.520507812 -3 330.187174479 -24.6666666667 315.520507812 -44 c 0
 302.187174479 -61.3333333333 287.520507812 -73.6666666667 271.520507812 -81 c 0
 254.853841145 -89.6666666667 236.187174479 -93.6666666667 215.520507812 -93 c 0
 212.520507812 -93 212.520507812 -93 209.520507812 -93 c 0
 188.853841145 -92.3333333333 169.853841145 -86.6666666667 152.520507812 -76 c 0
 134.520507812 -65.3333333333 119.853841145 -50.6666666667 108.520507812 -32 c 0
 97.187174479 -12.6666666667 91.5205078125 8.33333333333 91.5205078125 31 c 0
 91.5205078125 52.3333333333 96.8538411457 72.3333333333 107.520507812 91 c 0
 118.853841145 110.333333333 133.187174479 126 150.520507812 138 c 0
 169.187174479 150 189.853841145 156 212.520507812 156 c 0
EndSplineSet
Validated: 1
EndChar

StartChar: slash
Encoding: 47 47 18
Width: 873
GlyphClass: 2
Flags: HW
LayerCount: 3
Fore
SplineSet
753.5546875 1609 m 0
 799.5546875 1585.66666667 812.5546875 1552.33333333 792.5546875 1509 c 2
 228.131835938 -32 l 2
 202.798502605 -87.3333333333 163.131835938 -103 109.131835938 -79 c 0
 54.465169271 -55 39.7985026042 -15.3333333333 65.1318359375 40 c 2
 647.5546875 1582 l 2
 668.221354167 1625.33333333 703.5546875 1634.33333333 753.5546875 1609 c 0
EndSplineSet
Validated: 33
EndChar

StartChar: zero
Encoding: 48 48 19
Width: 963
GlyphClass: 2
Flags: HW
HStem: -50 186<362.913 569.498> 1328 189<368.692 583.688>
VStem: 39.04 198<327.701 1134.74> 695.92 204<333.619 1159.11>
LayerCount: 3
Fore
SplineSet
484.720703125 1328 m 0
 319.600260416 1328 237.040039062 1134.66666667 237.040039062 748 c 0
 237.040039062 340 313.200195312 136 465.520507812 136 c 0
 619.120117187 136 695.919921875 345 695.919921875 763 c 0
 695.919921875 1139.66666667 625.520182292 1328 484.720703125 1328 c 0
482.799804688 1517 m 0
 760.879882813 1517 899.919921875 1264.66666667 899.919921875 760 c 0
 899.919921875 220 755.120117187 -50 465.520507812 -50 c 0
 181.200195312 -50 39.0400390625 215 39.0400390625 745 c 0
 39.0400390625 1259.66666667 186.959960938 1517 482.799804688 1517 c 0
EndSplineSet
Validated: 1
EndChar

StartChar: one
Encoding: 49 49 20
Width: 874
GlyphClass: 2
Flags: HW
HStem: -48 184<119.021 355.754 538.754 739.987>
VStem: 355.754 183<136 1197>
LayerCount: 3
Fore
SplineSet
544.75390625 1406 m 2
 544.75390625 1406 544.75390625 1406 538.75390625 135 c 1
 593.75390625 135 593.75390625 135 647.75390625 135 c 0
 716.420572917 135 750.75390625 104 750.75390625 42 c 0
 750.75390625 -18 717.420572917 -48 650.75390625 -48 c 2
 196.75390625 -48 l 2
 136.75390625 -48 106.75390625 -20 106.75390625 36 c 0
 107.420572917 102.666666667 140.75390625 136 206.75390625 136 c 0
 280.75390625 136 280.75390625 136 355.75390625 136 c 1
 357.75390625 1197 l 1
 283.75390625 1127 l 2
 220.420572917 1066.33333333 167.087239583 1065.33333333 123.75390625 1124 c 0
 89.0872395833 1170.66666667 95.4205729167 1216.33333333 142.75390625 1261 c 2
 341.75390625 1448 l 2
 395.75390625 1498.66666667 445.420572917 1518.66666667 490.75390625 1508 c 0
 527.420572917 1500 545.420572917 1466 544.75390625 1406 c 2
EndSplineSet
Validated: 33
EndChar

StartChar: two
Encoding: 50 50 21
Width: 1028
GlyphClass: 2
Flags: HW
HStem: -49 189<302 869.972>
VStem: 669.943 197<917.236 1272.07>
LayerCount: 3
Fore
SplineSet
106 90 m 0
 110 224.666666667 159.666666667 362 255 502 c 0
 335.12890625 630.666666667 431.513346354 737.666666667 544.153320312 823 c 0
 624.680013021 878.333333333 666.610026042 979 669.943359375 1125 c 0
 671.943359375 1207.66666667 643.666666667 1268.66666667 585.11328125 1308 c 0
 536.899739583 1346 486.979817708 1352 435.353515625 1326 c 0
 404.633463542 1310 359.515625 1258.66666667 300 1172 c 0
 245.333333333 1109.33333333 192.666666667 1099.33333333 142 1142 c 0
 95.3333333333 1179.33333333 90.6666666667 1220.66666667 128 1266 c 0
 204.666666667 1360 270.333333333 1423 325 1455 c 0
 375.955729167 1497 436.20703125 1518 505.75390625 1518 c 0
 571.033854167 1518 628.097005208 1499.33333333 676.943359375 1462 c 0
 806.943359375 1380.66666667 870.276692708 1262.66666667 866.943359375 1108 c 0
 862.276692708 900 779.639973958 758 619.033203125 682 c 0
 521.753255208 612.666666667 447.513346354 519.666666667 396.313476562 403 c 0
 338.104492187 292.333333333 306.666666667 204.666666667 302 140 c 1
 448.502604167 139.333333333 606.150390625 138.666666667 774.943359375 138 c 0
 846.276692708 138 881.610026042 107.333333333 880.943359375 46 c 0
 880.276692708 -18 845.276692708 -49.6666666667 775.943359375 -49 c 2
 204 -49 l 2
 135.333333333 -49 102.666666667 -2.66666666667 106 90 c 0
EndSplineSet
Validated: 33
EndChar

StartChar: three
Encoding: 51 51 22
Width: 1023
GlyphClass: 2
Flags: HW
LayerCount: 3
Fore
SplineSet
344.473632812 810 m 0
 345.327148437 848.666666667 358.553710937 876.666666667 384.153320312 894 c 0
 402.500325521 906.666666667 454.553710937 929.333333333 540.313476562 962 c 0
 624.998372395 990.666666667 662.674153645 1055 653.340820312 1155 c 0
 643.340820312 1263 587.745117187 1323 486.553710938 1335 c 0
 442.606445313 1340.33333333 403.779947917 1324.33333333 370.07421875 1287 c 0
 304.530598958 1232.33333333 255.092122395 1207 221.758789062 1211 c 0
 175.758789062 1216.33333333 151.092122395 1242.33333333 147.758789062 1289 c 0
 143.758789062 1346.33333333 174.425455729 1394.33333333 239.758789062 1433 c 0
 336.448242187 1500.33333333 413.806315104 1531 471.833007812 1525 c 0
 604.171549479 1513 700.674153645 1462 761.340820312 1372 c 0
 864.674153645 1219.33333333 869.674153645 1074.33333333 776.340820312 937 c 0
 742.340820312 887 687.558268229 846.666666667 611.993164062 816 c 1
 628.891601562 812 665.340820312 792 721.340820312 756 c 0
 842.007486979 679.333333333 889.007486979 539 862.340820312 335 c 0
 835.674153645 134.333333333 730.038411458 12 545.43359375 -32 c 0
 430.233072917 -68.6666666667 321.008138021 -45 217.758789062 39 c 0
 137.758789062 97.6666666667 96.7587890625 159.666666667 94.7587890625 225 c 0
 92.7587890625 287 118.758789062 321 172.758789062 327 c 0
 201.425455729 329.666666667 249.425455729 290 316.758789062 208 c 0
 353.155273437 149.333333333 414.873697917 130 501.9140625 150 c 0
 623.531901041 174.666666667 679.674153645 261.333333333 670.340820312 410 c 0
 660.340820312 580.666666667 586.491536458 683.333333333 448.79296875 718 c 1
 378.819661458 727.333333333 344.046549479 758 344.473632812 810 c 0
EndSplineSet
Validated: 33
EndChar

StartChar: four
Encoding: 52 52 23
Width: 1052
GlyphClass: 2
Flags: HW
HStem: 414 198<311.833 583.833 773.113 978.744>
VStem: 585.113 188<-37.9258 414 612 1237>
LayerCount: 3
Fore
SplineSet
524.313476562 1423 m 2
 553.326497395 1485 602.259765625 1515.66666667 671.11328125 1515 c 0
 739.11328125 1514.33333333 773.11328125 1479 773.11328125 1409 c 2
 773.11328125 612 l 1
 813.11328125 612 813.11328125 612 853.11328125 612 c 0
 947.11328125 612 995.11328125 578.666666667 997.11328125 512 c 0
 998.446614583 446.666666667 952.11328125 414 858.11328125 414 c 2
 773.11328125 414 l 1
 773.11328125 56 l 2
 773.11328125 -15.3333333333 742.446614583 -50.6666666667 681.11328125 -50 c 0
 617.11328125 -49.3333333333 585.11328125 -13.3333333333 585.11328125 58 c 0
 584.686848958 176.666666667 584.473632812 295.333333333 584.473632812 414 c 1
 124.720703125 413 l 2
 62.0540364583 413 30.720703125 443.333333333 30.720703125 504 c 0
 30.720703125 537.333333333 42.3873697917 570 65.720703125 602 c 2
 524.313476562 1423 l 2
583.833007812 611 m 1
 583.833007812 800.333333333 584.259765625 1009 585.11328125 1237 c 1
 311.833007812 610 l 1
 583.833007812 611 l 1
EndSplineSet
Validated: 33
EndChar

StartChar: five
Encoding: 53 53 24
Width: 1016
GlyphClass: 2
Flags: HW
HStem: 853 195<408.961 656.734> 1312 192<337.434 850.137>
LayerCount: 3
Fore
SplineSet
242.18359375 1500 m 2
 753.73828125 1504 l 2
 825.071614583 1504.66666667 861.071614583 1474 861.73828125 1412 c 0
 862.404947917 1345.33333333 828.404947917 1312 759.73828125 1312 c 2
 337.43359375 1312 l 1
 304.18359375 925 l 1
 376.696614583 1007 448.366536458 1048 519.193359375 1048 c 0
 789.556640625 1047.33333333 922.071614583 883.333333333 916.73828125 556 c 0
 909.404947917 125.333333333 740.196614583 -80 409.11328125 -60 c 0
 281.826822917 -52.6666666667 180.850260417 12 106.18359375 134 c 0
 71.5169270833 190.666666667 70.8502604167 233.333333333 104.18359375 262 c 0
 164.18359375 314 214.516927083 313.666666667 255.18359375 261 c 0
 315.563802083 171.666666667 374.98046875 127 433.43359375 127 c 0
 603.63671875 126.333333333 699.73828125 268.333333333 721.73828125 553 c 0
 737.73828125 754.333333333 670.223307292 854.333333333 519.193359375 853 c 0
 453.059895833 852.333333333 399.300130208 817.333333333 357.9140625 748 c 1
 284.09375 664.666666667 221.18359375 623.666666667 169.18359375 625 c 0
 113.850260417 627 89.8502604167 670 97.18359375 754 c 2
 158.18359375 1442 l 1
 167.516927083 1480.66666667 195.516927083 1500 242.18359375 1500 c 2
EndSplineSet
Validated: 33
EndChar

StartChar: six
Encoding: 54 54 25
Width: 976
GlyphClass: 2
Flags: HW
HStem: -53 176<337.941 562.141> 749 202<343.24 572.77>
VStem: 83.7402 184<199.453 653.995> 653.021 192<225.147 665.805>
LayerCount: 3
Fore
SplineSet
263.740234375 1175 m 0
 325.713541666 1314.33333333 405.980143229 1423.33333333 504.540039062 1502 c 0
 555.313476562 1542.66666667 589.446614583 1527.33333333 606.939453125 1456 c 0
 615.899739583 1414.66666667 595.419921875 1369.66666667 545.5 1321 c 0
 495.152994792 1271.66666667 452.273111979 1218.66666667 416.860351562 1162 c 0
 377.180013021 1098 339.633463542 1005.33333333 304.220703125 884 c 1
 333.66015625 928.666666667 391.046549479 951 476.379882812 951 c 0
 722.140299479 951.666666667 845.020507812 787.333333333 845.020507812 458 c 0
 845.020507812 120 708.060221354 -50.3333333333 434.139648438 -53 c 0
 212.540039063 -55.6666666667 95.740234375 101.333333333 83.740234375 418 c 0
 71.740234375 730 131.740234375 982.333333333 263.740234375 1175 c 0
461.020507812 749 m 0
 332.166992187 749 267.740234375 645 267.740234375 437 c 0
 267.740234375 227.666666667 322.353515625 123 431.580078125 123 c 0
 579.20703125 123 653.020507812 231.666666667 653.020507812 449 c 0
 653.020507812 649 589.020507812 749 461.020507812 749 c 0
EndSplineSet
Validated: 33
EndChar

StartChar: seven
Encoding: 55 55 26
Width: 999
GlyphClass: 2
Flags: HW
HStem: 1317 192<59.969 691.354>
LayerCount: 3
Fore
SplineSet
46.080078125 1413 m 128
 46.080078125 1477 89.080078125 1509 175.080078125 1509 c 2
 816.471679688 1512 l 2
 904.471679688 1512 950.471679688 1482 954.471679688 1422 c 0
 955.805013021 1395.33333333 950.805013021 1373.66666667 939.471679688 1357 c 0
 938.138346355 1355 936.805013021 1352.66666667 935.471679688 1350 c 2
 403.353515625 24 l 2
 374.33984375 -62 340.206380208 -86.3333333333 300.953125 -49 c 0
 243.037760417 -12.3333333333 233.746744792 42.6666666667 273.080078125 116 c 2
 691.353515625 1317 l 1
 172.080078125 1317 l 2
 88.080078125 1317 46.080078125 1349 46.080078125 1413 c 128
EndSplineSet
Validated: 33
EndChar

StartChar: eight
Encoding: 56 56 27
Width: 1002
GlyphClass: 2
Flags: HW
HStem: -44 21G<277.517 680.014> 1331 183<375.474 588.283>
VStem: 126.721 197.912<951.688 1278.35> 634.394 177.32<974.065 1281.87> 674.714 209<201.25 577.464>
LayerCount: 3
Fore
SplineSet
485.9140625 1514 m 0
 703.113932292 1514 811.713867188 1382 811.713867188 1118 c 0
 811.713867188 960.666666667 747.486979167 855 619.033203125 801 c 1
 795.486979167 746.333333333 883.713867188 610 883.713867188 392 c 0
 883.713867188 101.333333333 747.913736979 -44 476.313476562 -44 c 0
 211.251627604 -44 78.720703125 86 78.720703125 346 c 0
 78.720703125 579.333333333 161.331705729 728 326.553710938 792 c 1
 193.331705729 841.333333333 126.720703125 948 126.720703125 1112 c 0
 126.720703125 1380 246.451822917 1514 485.9140625 1514 c 0
634.393554688 1121 m 0
 633.113606771 1259.66666667 584.900390625 1329.66666667 489.75390625 1331 c 0
 373.731770833 1332.33333333 318.69140625 1251.33333333 324.6328125 1088 c 0
 326.766276041 978.666666667 376.046549479 914 472.473632812 894 c 1
 582.126627604 930 636.099934896 1005.66666667 634.393554688 1121 c 0
273.720703125 364 m 0
 287.720703125 193.333333333 365.491536458 113 507.033203125 123 c 0
 618.393880208 131 674.287434896 220.666666667 674.713867188 392 c 0
 676.047200521 544.666666667 609.913736979 653 476.313476562 717 c 1
 329.251627604 632.333333333 261.720703125 514.666666667 273.720703125 364 c 0
EndSplineSet
Validated: 33
EndChar

StartChar: nine
Encoding: 57 57 28
Width: 1016
GlyphClass: 2
Flags: HW
HStem: 519 996<80.6396 601.754>
VStem: 80.6396 183<791.98 1220.81>
LayerCount: 3
Fore
SplineSet
663.944335938 583 m 1
 622.484049479 540.333333333 556.313802083 519 465.43359375 519 c 0
 208.904296875 519 80.6396484375 674 80.6396484375 984 c 0
 80.6396484375 1346 224.051106771 1523 510.874023438 1515 c 0
 769.587565105 1507.66666667 898.277669271 1306.66666667 896.944335938 912 c 0
 896.277669271 748 874.611002605 607.666666667 831.944335938 491 c 0
 734.611002605 226.333333333 575.960611979 48.3333333333 355.993164062 -43 c 0
 286.424153646 -65 241.306315105 -46 220.639648438 14 c 0
 198.639648438 78.6666666667 221.306315105 119 288.639648438 135 c 0
 389.008789063 169.666666667 468.420247396 223.666666667 526.874023438 297 c 0
 575.086914063 357.666666667 620.777018229 453 663.944335938 583 c 1
486.553710938 712 m 0
 650.147460938 721.333333333 724.277669271 815.666666667 708.944335938 995 c 0
 690.944335938 1212.33333333 623.854166667 1324.33333333 507.673828125 1331 c 0
 344.317708334 1340.33333333 262.972981771 1225 263.639648438 985 c 0
 264.306315105 794.333333333 338.611002605 703.333333333 486.553710938 712 c 0
EndSplineSet
Validated: 33
EndChar

StartChar: less
Encoding: 60 60 31
Width: 721
GlyphClass: 2
Flags: HW
LayerCount: 3
Fore
SplineSet
61.7998046875 695 m 2
 443.799804688 1027 l 2
 501.133138021 1077 550.466471355 1076 591.799804688 1024 c 0
 626.466471355 980 614.799804688 933.333333333 556.799804688 884 c 2
 243.799804688 618 l 1
 568.799804688 348 l 2
 613.466471355 310.666666667 615.133138021 268.666666667 573.799804688 222 c 0
 537.799804688 181.333333333 497.133138021 179.333333333 451.799804688 216 c 2
 68.7998046875 525 l 2
 31.4664713542 555 12.7998046875 581.666666667 12.7998046875 605 c 0
 13.4664713542 637 29.7998046875 667 61.7998046875 695 c 2
EndSplineSet
Validated: 33
EndChar

StartChar: equal
Encoding: 61 61 32
Width: 874
GlyphClass: 2
Flags: HW
HStem: 277 179<66.1052 722.909> 819 179<74.1934 731.38>
LayerCount: 3
Fore
SplineSet
153.599609375 998 m 2
 627.427734375 1000 l 2
 703.427734375 1000 741.427734375 970 741.427734375 910 c 0
 741.427734375 848.666666667 705.094401042 818 632.427734375 818 c 2
 144.599609375 819 l 2
 91.9329427083 819 65.599609375 848 65.599609375 906 c 0
 65.599609375 967.333333333 94.9329427083 998 153.599609375 998 c 2
144.599609375 456 m 2
 618.427734375 458 l 2
 693.761067708 458 731.761067708 428 732.427734375 368 c 0
 732.427734375 306.666666667 696.427734375 276 624.427734375 276 c 2
 136.599609375 277 l 2
 83.9329427083 277 57.599609375 306 57.599609375 364 c 0
 57.599609375 425.333333333 86.599609375 456 144.599609375 456 c 2
EndSplineSet
Validated: 1
EndChar

StartChar: greater
Encoding: 62 62 33
Width: 752
GlyphClass: 2
Flags: HW
LayerCount: 3
Fore
SplineSet
624.682617188 723 m 2
 656.682617188 695 673.015950521 665 673.682617188 633 c 0
 673.682617188 609.666666667 655.015950521 583 617.682617188 553 c 2
 234.682617188 244 l 2
 189.349283855 207.333333333 148.682617188 209.333333333 112.682617188 250 c 0
 70.6826171877 297.333333333 72.3492838543 339.333333333 117.682617188 376 c 2
 442.682617188 646 l 1
 129.682617188 912 l 2
 71.6826171877 961.333333333 60.0159505208 1008 94.6826171875 1052 c 0
 136.015950521 1104 185.349283855 1105 242.682617188 1055 c 2
 624.682617188 723 l 2
EndSplineSet
Validated: 33
EndChar

StartChar: question
Encoding: 63 63 34
Width: 951
GlyphClass: 2
Flags: HW
HStem: -70 249<256.145 446.607>
VStem: 226.946 246.92<-41.0469 150.493> 269.946 202<383.448 646.932>
LayerCount: 3
Fore
SplineSet
319.946289062 176 m 0
 329.946289062 178.666666667 340.279622395 179.666666667 350.946289062 179 c 0
 362.279622395 179 373.279622395 177.666666667 383.946289062 175 c 0
 404.612955729 169 422.612955729 158.333333333 437.946289062 143 c 0
 455.946289062 126.333333333 466.946289062 108 470.946289062 88 c 0
 472.466471354 77.3333333333 473.439778646 66.3333333333 473.866210938 55 c 0
 473.866210938 41.6666666667 473.226236979 31.3333333333 471.946289062 24 c 0
 465.279622395 -0.666666666667 452.946289062 -21.3333333333 434.946289062 -38 c 0
 416.279622395 -54.6666666667 393.946289062 -64.6666666667 367.946289062 -68 c 0
 362.612955729 -68.6666666667 356.946289062 -69.3333333333 350.946289062 -70 c 0
 331.612955729 -70 313.612955729 -65.6666666667 296.946289062 -57 c 0
 274.279622395 -46.3333333333 256.612955729 -30 243.946289062 -8 c 0
 232.612955729 11.3333333333 226.946289062 32.3333333333 226.946289062 55 c 0
 226.946289062 71.6666666667 229.946289062 87.6666666667 235.946289062 103 c 0
 243.279622395 121 254.612955729 136.333333333 269.946289062 149 c 0
 283.279622395 161.666666667 299.946289062 170.666666667 319.946289062 176 c 0
99.9462890625 1339 m 0
 178.612955729 1427.66666667 303.893229166 1473.66666667 475.787109375 1477 c 0
 669.018229166 1481.66666667 780.967122395 1374.66666667 811.633789062 1156 c 0
 848.967122395 898.666666667 778.967122395 745.666666667 601.633789062 697 c 0
 515.175455729 663 471.946289062 618 471.946289062 562 c 0
 469.279622395 429.333333333 437.946289062 361.333333333 377.946289062 358 c 0
 287.279622395 353.333333333 251.279622395 427.333333333 269.946289062 580 c 0
 286.612955729 718 359.919596354 808.333333333 489.866210938 851 c 0
 593.711263021 893 631.967122395 982.666666667 604.633789062 1120 c 0
 586.633789062 1210 545.391276041 1261 480.90625 1273 c 0
 392.266276041 1284.33333333 321.279622395 1266.33333333 267.946289062 1219 c 0
 185.279622395 1145 125.946289062 1122 89.9462890625 1150 c 0
 28.6129557292 1198 31.9462890625 1261 99.9462890625 1339 c 0
EndSplineSet
Validated: 33
EndChar

StartChar: at
Encoding: 64 64 35
Width: 1537
GlyphClass: 2
Flags: HW
HStem: -140 190<578.045 921.547> 1426 201<555.626 935.714>
VStem: 72.96 201<437.274 1058.86> 401.32 174<538.004 918.214> 812.76 193<633.848 1001.94> 1195.84 210<661.336 1125.3>
LayerCount: 3
Fore
SplineSet
1022.40039062 626 m 1
 1031.78645833 601.333333333 1049.2796224 592 1074.87988281 598 c 0
 1114.56022135 606.666666667 1147.20019531 642.333333333 1172.79980469 705 c 0
 1188.15983073 742.333333333 1195.83984375 804.333333333 1195.83984375 891 c 0
 1195.83984375 955.666666667 1189.01334635 1015.33333333 1175.36035156 1070 c 0
 1162.56022135 1123.33333333 1141.65332031 1175.33333333 1112.63964844 1226 c 0
 1085.76009115 1272.66666667 1053.97330729 1311.33333333 1017.27929688 1342 c 0
 918.93294271 1398 822.599609375 1426 728.279296875 1426 c 0
 714.199869792 1426 700.333333333 1425 686.6796875 1423 c 0
 607.106770833 1413 527.3203125 1375 447.3203125 1309 c 0
 411.533203125 1277 383.399739584 1238 362.919921875 1192 c 0
 326.2265625 1107.33333333 300.626627604 1008.33333333 286.120117188 895 c 0
 278.439778646 835 274.386393229 775.666666667 273.959960938 717 c 0
 273.293294271 667.666666667 276.06640625 620 282.279296875 574 c 0
 297.212890625 450.666666667 330.06640625 344.666666667 380.83984375 256 c 0
 455.826822917 164 540.706705729 102 635.479492188 70 c 0
 667.906575521 56.6666666667 700.973307292 50 734.6796875 50 c 0
 770.093098959 50 817.786458334 59.6666666667 877.759765625 79 c 0
 911.093098958 88.3333333333 963.99967448 110.333333333 1036.47949219 145 c 0
 1087.67936198 178.333333333 1122.23958334 166.666666667 1140.16015625 110 c 0
 1159.78645834 49.3333333333 1146.34635417 -0.333333333333 1099.83984375 -39 c 0
 1049.91992188 -80.3333333333 956.559895835 -113 819.759765625 -137 c 0
 811.253255208 -139 778.413411458 -140 721.240234375 -140 c 0
 676.013671875 -140 618.373697917 -121 548.3203125 -83 c 0
 468.986979167 -52.3333333333 403.347005208 -9.33333333333 351.400390625 46 c 0
 253.7734375 146.666666667 174.293294271 279.666666667 112.959960938 445 c 0
 86.293294271 517 72.9599609375 622.333333333 72.9599609375 761 c 0
 72.9599609375 793 74.2932942708 824.666666667 76.9599609375 856 c 0
 86.2932942708 957.333333333 110.959960938 1054.33333333 150.959960938 1147 c 0
 190.959960938 1242.33333333 239.853190105 1323.33333333 297.639648438 1390 c 0
 353.106445313 1478.66666667 437.666666667 1546.66666667 551.3203125 1594 c 0
 593.347005208 1616 653.186848958 1627 730.83984375 1627 c 0
 746.626953125 1627 762.200520833 1626 777.560546875 1624 c 0
 872.360026042 1615.33333333 954.399739583 1594.33333333 1023.6796875 1561 c 0
 1072.31966146 1528.33333333 1118.39973959 1483.33333333 1161.91992188 1426 c 0
 1258.53320313 1335.33333333 1328.17317708 1227.33333333 1370.83984375 1102 c 0
 1394.83984375 1032.66666667 1406.50651042 961.333333333 1405.83984375 888 c 0
 1405.83984375 814 1393.83984375 743.333333333 1369.83984375 676 c 0
 1341.83984375 597.333333333 1304.17317708 526 1256.83984375 462 c 0
 1215.74674479 406 1159.78678385 368 1088.95996094 348 c 0
 1050.98665365 337.333333333 1011.91992188 351.333333333 971.759765625 390 c 0
 959.093098958 400 947.093098958 412 935.759765625 426 c 1
 886.426432292 382.666666667 830.279947917 356 767.3203125 346 c 0
 529.986979167 306.666666667 407.986979167 412.666666667 401.3203125 664 c 0
 396.199869792 978.666666667 512.652994792 1155.66666667 750.6796875 1195 c 0
 782.6796875 1201.66666667 815.039713542 1198.33333333 847.759765625 1185 c 1
 861.759765625 1207.66666667 885.426432292 1219 918.759765625 1219 c 0
 979.746744795 1219 1008.74674479 1194.66666667 1005.75976562 1146 c 0
 991.759765623 966.666666667 997.306640623 793.333333333 1022.40039062 626 c 1
730.83984375 999 m 0
 627.16015625 982.333333333 575.3203125 878.666666667 575.3203125 688 c 0
 575.3203125 576 610.520182292 517 680.919921875 511 c 0
 744.919921875 505.666666667 798.533203125 533.333333333 841.759765625 594 c 1
 816.453125 758.666666667 806.786458334 892 812.759765625 994 c 1
 785.879557292 1002.66666667 758.572916667 1004.33333333 730.83984375 999 c 0
EndSplineSet
Validated: 33
EndChar

StartChar: A
Encoding: 65 65 36
Width: 1178
GlyphClass: 2
Flags: HW
HStem: 270 185<397 707>
VStem: 830.867 194<-11.0645 66>
LayerCount: 3
Fore
SplineSet
559 1103 m 5
 401 448 l 5
 692 514 l 5
 559 1103 l 5
656.79296875 1366 m 6
 1024.8671875 125 l 6
 1030.05242394 107.37702831 1033.54867244 91.070845859 1035.35593299 76.0814526461 c 5
 1077.89150502 75.8187930379 1133.66348569 74.4693765309 1202.671875 72.033203125 c 5
 1218.890625 -28.6555989583 1150.02278646 -89.4108072917 996.068359375 -110.232421875 c 4
 903.356119792 -122.744140625 851.25390625 -108.676106771 839.76171875 -68.0283203125 c 4
 828.896965801 -29.8815340635 832.014741071 0.9383931636 849.11504456 24.4314613688 c 5
 842.580408379 37.5114551128 836.497789359 52.3676346565 830.8671875 69 c 6
 731 364 l 5
 353 259 l 5
 296.9609375 69 l 5
 313.653645833 -38.3333333333 284.000651042 -96.9010416667 208.001953125 -106.703125 c 4
 71.333984375 -124.234375 -4.33333333333 -108.333333333 -19 -59 c 4
 -48.3333333333 43.6666666667 -14.8984375 91.4996744792 81.3046875 84.4990234375 c 4
 85.2773406882 84.2224002616 89.2502649567 83.9452658204 93.2234603054 83.6676201139 c 5
 95.3552194469 96.5034629446 98.6010451784 110.280922907 102.9609375 125 c 6
 470.553710938 1366 l 6
 503.517903646 1476.66666667 534.664388021 1532 563.993164062 1532 c 132
 593.331054687 1532 624.264322917 1476.66666667 656.79296875 1366 c 6
EndSplineSet
EndChar

StartChar: B
Encoding: 66 66 37
Width: 1053
GlyphClass: 2
Flags: HW
VStem: 125.475 198<120.796 532.949> 158.475 177.378<830.281 1331>
LayerCount: 3
Fore
SplineSet
346.154296875 1331 m 1
 335.852539062 727 l 1
 455.950846354 704.333333333 547.065104167 765 609.1953125 909 c 0
 650.3984375 1005.66666667 658.078450521 1094.66666667 632.235351562 1176 c 0
 601.411783854 1272.66666667 535.918294271 1323.33333333 435.754882812 1328 c 0
 405.918294271 1329.33333333 376.051432292 1330.33333333 346.154296875 1331 c 1
251.474609375 1528 m 0
 266.491536458 1528 280.158203125 1526.33333333 292.474609375 1523 c 1
 325.491536458 1529.66666667 382.8515625 1527 464.5546875 1515 c 0
 626.8515625 1491 740.324544271 1390.66666667 804.973632812 1214 c 0
 875.657877604 1021.33333333 839.450520833 844 696.3515625 682 c 0
 682.783854167 666.666666667 670.137695313 652 658.413085938 638 c 1
 694.137695313 624.666666667 721.450520833 611 740.3515625 597 c 0
 899.450520833 479 952.657877604 350 899.973632812 210 c 0
 861.324544271 106.666666667 764.884440104 29 610.653320312 -23 c 0
 526.884440104 -51 400.158203125 -65 230.474609375 -65 c 0
 230.158203125 -65 224.158203125 -65.3333333333 212.474609375 -66 c 0
 152.672683624 -69.3418377666 123.672683624 -33.0085044333 125.474609375 43 c 2
 158.474609375 1435 l 2
 160.158203125 1497 191.158203125 1528 251.474609375 1528 c 0
328 530 m 1
 323.474609375 124 l 1
 367.824869792 118.666666667 410.706705729 119.666666667 452.120117188 127 c 0
 494.706705729 135 546.03515625 154.666666667 606.10546875 186 c 0
 676.701822917 222.666666667 715.657877604 273.666666667 722.973632812 339 c 0
 725.657877604 363.666666667 699.472005208 400.666666667 644.416015625 450 c 0
 598.138671875 491.333333333 544.211263021 516.333333333 482.633789062 525 c 0
 418.211263021 533.666666667 366.666666667 535.333333333 328 530 c 1
EndSplineSet
Validated: 33
EndChar

StartChar: C
Encoding: 67 67 38
Width: 1019
GlyphClass: 2
Flags: HW
VStem: 87.9238 218<353.708 1014.35>
LayerCount: 3
Fore
SplineSet
485 1218 m 0
 422.333333333 1169.33333333 380.134765625 1115.33333333 358.404296875 1056 c 0
 323.468098958 962 305.974609375 834.333333333 305.923828125 673 c 0
 305.974609375 524.333333333 326.241536458 401.333333333 366.724609375 304 c 0
 398.908203125 227.333333333 442.214518229 187 496.643554688 183 c 0
 563.547851563 177.666666667 623.068033854 196 675.204101562 238 c 0
 751.734700521 300 813.384765625 326.333333333 860.154296875 317 c 0
 924.718098958 304.333333333 952.051432292 253.333333333 942.154296875 164 c 0
 937.384765625 121.333333333 870.384765625 69.6666666667 741.154296875 9 c 0
 650.384765625 -33.6666666667 572.081380208 -53.3333333333 506.244140625 -50 c 0
 412.081380208 -45.3333333333 320.974609375 20.6666666667 232.923828125 148 c 0
 135.641276042 288.666666667 87.3079427083 455.666666667 87.923828125 649 c 0
 87.974609375 843 132.641276042 1029.66666667 221.923828125 1209 c 0
 329.307942708 1425 504 1518 746 1488 c 0
 746 1488 l 0
 812.666666667 1477.33333333 873.051432292 1430 927.154296875 1346 c 0
 1038.38476562 1172.66666667 988 993 776 807 c 0
 803 954 l 0
 831 1126 800 1225 710 1251 c 0
 621.333333333 1276.33333333 546.333333333 1265.33333333 485 1218 c 0
EndSplineSet
EndChar

StartChar: D
Encoding: 68 68 39
Width: 1174
GlyphClass: 2
Flags: HW
HStem: -51 189<316.794 660.105>
VStem: 117.794 199<138 634.981> 151.794 191<852.019 1290>
LayerCount: 3
Fore
SplineSet
243.793945312 1525 m 0
 259.793945312 1525 274.460611979 1523.33333333 287.793945312 1520 c 0
 295.793945312 1519.33333333 303.793945312 1518.33333333 311.793945312 1517 c 0
 471.980794271 1489.66666667 610.314127604 1398.33333333 726.793945312 1243 c 0
 957.378580731 1021 1065.00423177 786.333333333 1049.67089844 539 c 0
 1039.67089844 358.333333333 949.587239585 196 779.419921875 52 c 0
 725.479166666 -14.6666666667 620.643554687 -49.6666666667 464.913085938 -53 c 0
 373.562825521 -55 298.856445312 -54.3333333333 240.793945312 -51 c 0
 230.793945312 -53 219.127278645 -54 205.793945312 -54 c 0
 145.127278645 -52.6666666667 115.793945312 -17.6666666667 117.793945312 51 c 2
 151.793945312 1436 l 2
 153.127278645 1495.33333333 183.793945312 1525 243.793945312 1525 c 0
342.793945312 1290 m 1
 316.793945312 138 l 1
 457.083007812 135 l 1
 600.633138021 140.333333333 694.375976563 180.333333333 738.311523438 255 c 0
 805.217773438 355.666666667 841.670898438 453.666666667 847.670898438 549 c 0
 859.004231771 715 791.83203125 892.333333333 646.154296875 1081 c 0
 556.981119792 1211 455.861002604 1280.66666667 342.793945312 1290 c 1
EndSplineSet
Validated: 33
EndChar

StartChar: E
Encoding: 69 69 40
Width: 1036
GlyphClass: 2
Flags: HW
HStem: -41 208<304.635 845.24> 481 207<320 794.301> 1298 207<327.595 905.56>
VStem: 105.635 199<167 481> 138.635 181.365<828.224 1294>
LayerCount: 3
Fore
SplineSet
292.634765625 1501 m 6
 783.40625 1505 l 6
 877.245947996 1504.72246774 921.777197996 1499.05580107 917 1488 c 4
 867.666666667 1366.66666667 756.333333333 1302 583 1294 c 4
 519.567741213 1290.77820807 434.432650067 1290.77820807 327.594726562 1294 c 5
 320 688 l 5
 673.919921875 691 l 6
 765.973307292 691.666666667 811.666666667 688 811 680 c 4
 801.670879995 572.048754221 710.337546661 511.382087555 537 498 c 6
 316.799804688 481 l 5
 304.634765625 167 l 5
 721.40625 170 l 6
 823.802083333 168.666666667 869.666666667 158.666666667 859 140 c 4
 791.706774741 20.7377492933 665.706774741 -39.2622507067 481 -40 c 6
 230.634765625 -41 l 6
 218.878255208 -39.6666666667 211.544921875 -39 208.634765625 -39 c 4
 188.211588542 -41 168 -42 148 -42 c 4
 61.3667358207 -40.6671805511 32.3667358207 -6.66718055107 61 60 c 6
 108.244521723 170 l 4
 111 478 l 4
 51 476 l 4
 31 690 l 4
 120.927448552 690 l 4
 153 1300 l 4
 77 1308 l 4
 101 1406 l 6
 109 1486 l 5
 232.634765625 1502 l 4
 244.878255208 1502 257.211588542 1501 269.634765625 1499 c 4
 273.878255208 1498.33333333 281.544921875 1499 292.634765625 1501 c 6
EndSplineSet
EndChar

StartChar: F
Encoding: 70 70 41
Width: 1015
GlyphClass: 2
Flags: HW
HStem: 544 207<322 796.762> 1296 207<331.416 909.465>
VStem: 110.096 197<-27.8794 544> 144.096 177.904<843.512 1292>
LayerCount: 3
Fore
SplineSet
236.095703125 1501 m 0
 250.031901042 1501 262.698567708 1499.66666667 274.095703125 1497 c 1
 279.703420719 1498.25955315 287.036754052 1498.92621982 296.095703125 1499 c 2
 787.227539062 1503 l 2
 881.075846354 1503.66666667 929.075846354 1465.66666667 931.227539062 1389 c 0
 933.075846354 1327.66666667 887.075846354 1296.66666667 793.227539062 1296 c 0
 626.409179687 1294.66666667 472.472005208 1293.33333333 331.416015625 1292 c 1
 322 751 l 1
 675.920898438 754 l 2
 767.306966146 754.666666667 814.190755208 716.333333333 816.572265625 639 c 0
 818.853213948 578.44504602 773.249372802 547.778379353 679.760742188 547 c 2
 319.440429688 544 l 1
 307.095703125 59 l 2
 305.364736114 -9.00628558207 269.031402781 -42.3396189154 198.095703125 -41 c 0
 137.753902056 -39.6604954737 108.420568723 -5.66049547367 110.095703125 61 c 2
 144.095703125 1414 l 2
 145.365234375 1472 176.031901042 1501 236.095703125 1501 c 0
EndSplineSet
Validated: 33
EndChar

StartChar: G
Encoding: 71 71 42
Width: 1088
GlyphClass: 2
Flags: HW
HStem: 555 212<463.369 776.442>
VStem: 49.2822 207<347.817 1000.36> 726.043 203.027<1153.69 1253.97>
LayerCount: 3
Fore
SplineSet
681.8828125 276 m 0
 730.522786459 342 762.042643229 435 776.442382812 555 c 1
 530.842773438 551 l 2
 477.509440105 550.333333333 450.202799479 586 448.922851562 658 c 0
 447.642252604 724 478.575520833 757.666666667 541.72265625 759 c 2
 936.0703125 767 l 2
 999.403645833 767.666666667 1028.40364583 734.666666667 1023.0703125 668 c 0
 1003.0703125 414 928.403645833 228.333333333 799.0703125 111 c 0
 708.571614583 -1.66666666667 596.762369792 -55 463.642578125 -49 c 0
 361.669270834 -44.3333333333 272.215820313 22 195.282226562 150 c 0
 97.2822265623 278 48.6155598958 444.666666667 49.2822265625 650 c 0
 49.2822265625 895.333333333 99.948893229 1092.66666667 201.282226562 1242 c 0
 278.482747395 1390 369.562825521 1478.66666667 474.522460938 1508 c 0
 582.041992187 1536 672.281901041 1517.33333333 745.2421875 1452 c 0
 850.4609375 1385.33333333 911.736979167 1322 929.0703125 1262 c 0
 946.403645833 1201.33333333 934.403645833 1156.33333333 893.0703125 1127 c 0
 847.736979167 1095 792.061197917 1119.33333333 726.04296875 1200 c 0
 687.215494791 1264.66666667 633.455403645 1299.33333333 564.762695312 1304 c 0
 522.949544271 1306.66666667 478.149414063 1288.66666667 430.362304688 1250 c 0
 379.162434896 1209.33333333 338.629231771 1145 308.762695312 1057 c 0
 273.775716145 955.666666667 256.282226562 828 256.282226562 674 c 0
 256.282226562 506 275.482421875 383 313.8828125 305 c 0
 357.828776041 215.666666667 407.108723958 168.666666667 461.72265625 164 c 0
 553.029296875 156 626.416015625 193.333333333 681.8828125 276 c 0
EndSplineSet
Validated: 33
EndChar

StartChar: H
Encoding: 72 72 43
Width: 1207
GlyphClass: 2
Flags: HW
HStem: 631 209<316.795 865.755> 1493 20G<182.795 277.915 929.396 1026.4>
VStem: 101.795 197<-31.7766 631> 134.795 182<840 1502.64> 851.755 197<-32.7344 631> 870.396 206<840 1495.36>
LayerCount: 3
Fore
SplineSet
196.794921875 -49 m 0
 130.931640625 -47 65.3333333333 -45 0 -43 c 1
 13.3333333333 -35.6666666667 47.2924561613 -7.2698337722 101.877368484 42.1904986834 c 1
 101.959122828 46.7301662278 106.682433352 248.608619709 116.047300056 647.825859126 c 1
 80.0157666853 650.608619709 62.7283528646 681.602272365 64.1850585938 740.806817094 c 0
 64.9488429791 800.442496014 83.8871567811 830.840223649 121 832 c 1
 134.702119982 1421.15293973 l 1
 79.5673733273 1471.71764658 45 1500.66666667 31 1508 c 1
 161.666666667 1512 227.264973958 1514 227.794921875 1514 c 0
 296.598307292 1510 329.084536774 1467.85047203 325.253610322 1387.5514161 c 1
 316.794921875 840 l 1
 870.395507812 840 l 1
 881.509359674 1380.87412395 l 1
 871.836453225 1468.29137465 902.166666667 1512 972.5 1512 c 2
 1171.19042969 1512 l 1
 1158.3968099 1504.66666667 1126.68628951 1478.33105008 1076.05886853 1432.99315024 c 1
 1076.4636798 1432.56596401 1076.57589289 1427.90158059 1076.39550781 1419 c 2
 1049.07157059 70.6277992366 l 1
 1096.3571902 50.8759330789 1140 42 1180 44 c 1
 1102 -15.3333333333 1028 -47.3333333333 958 -52 c 1
 888.666666667 -40 853.428837052 3.59892069713 852.286511156 78.7967620914 c 1
 865.754882812 631 l 1
 307.114257812 631 l 1
 298.794921875 56 l 1
 298.931640625 -16 264.931640625 -51 196.794921875 -49 c 0
EndSplineSet
EndChar

StartChar: I
Encoding: 73 73 44
Width: 985
GlyphClass: 2
Flags: HW
HStem: -42 207<60.5986 354.074 550.074 899.813> 1287 207<74.5986 383.074 567.993 913.813>
VStem: 354.074 196<165 719.655> 383.074 184.919<732.345 1287>
LayerCount: 3
Fore
SplineSet
191.879882812 1494 m 2
 808.016601562 1494 l 2
 888.683268229 1494 929.683268229 1458 931.016601562 1386 c 0
 932.349934895 1320 889.349934895 1287 802.016601562 1287 c 2
 567.993164062 1287 l 1
 550.07421875 165 l 1
 794.016601562 165 l 2
 874.683268229 165 915.683268229 129 917.016601562 57 c 0
 918.349934895 -9 875.349934895 -42 788.016601562 -42 c 2
 168.879882812 -42 l 2
 84.8798828123 -42 42.8798828125 -4.33333333333 42.8798828125 71 c 0
 42.8798828125 134.333333333 87.8798828123 165.666666667 177.879882812 165 c 2
 354.07421875 165 l 1
 383.07421875 1287 l 1
 182.879882812 1287 l 2
 98.8798828123 1287 56.8798828125 1324.33333333 56.8798828125 1399 c 0
 56.8798828125 1462.33333333 101.879882812 1494 191.879882812 1494 c 2
EndSplineSet
Validated: 33
EndChar

StartChar: J
Encoding: 74 74 45
Width: 1340
GlyphClass: 2
Flags: HW
HStem: -58 198<362.939 671.061> 1301 197<308.912 712.639 916.639 1263.9>
VStem: 64.6387 201<240.604 476.016> 712.639 204<184.447 1301>
LayerCount: 3
Fore
SplineSet
427.638671875 1498 m 2
 1156.63867188 1498 l 2
 1237.30533855 1498 1278.30533855 1463.66666667 1279.63867188 1395 c 0
 1280.97200521 1331.66666667 1237.97200521 1300.33333333 1150.63867188 1301 c 2
 916.638671875 1301 l 1
 916.638671875 303 l 2
 916.638671875 50.3333333333 792.638671875 -70 544.638671875 -58 c 0
 203.972005208 -42 43.9720052083 110.666666667 64.638671875 400 c 0
 68.638671875 458.666666667 103.305338542 488.333333333 168.638671875 489 c 0
 233.305338542 488.333333333 265.638671875 457 265.638671875 395 c 0
 265.638671875 225 357.638671875 140 541.638671875 140 c 0
 655.638671875 140 712.638671875 192.333333333 712.638671875 297 c 2
 712.638671875 1301 l 1
 418.638671875 1301 l 2
 334.638671875 1301 292.638671875 1336.66666667 292.638671875 1408 c 0
 292.638671875 1468 337.638671875 1498 427.638671875 1498 c 2
EndSplineSet
Validated: 33
EndChar

StartChar: K
Encoding: 75 75 46
Width: 1034
GlyphClass: 2
Flags: HW
VStem: 136.354 197<-43.5938 558> 169.354 182<843 1510.54>
LayerCount: 3
Fore
SplineSet
263.354492188 1521 m 0
 328.847981771 1521 361.16796875 1489.66666667 360.314453125 1427 c 2
 351.354492188 843 l 1
 720.681640625 1454 l 2
 773.348307292 1510.66666667 824.681640625 1514.66666667 874.681640625 1466 c 0
 924.014973958 1417.33333333 924.681640625 1368.33333333 876.681640625 1319 c 2
 432.634765625 699 l 1
 902.681640625 173 l 2
 964.681640625 121 974.014973958 73.3333333333 930.681640625 30 c 0
 885.348307292 -15.3333333333 830.681640625 -11.6666666667 766.681640625 41 c 2
 341.168945312 558 l 1
 333.354492188 45 l 2
 332.021158855 -24.3333333333 295.354492188 -58.3333333333 223.354492188 -57 c 0
 163.354492188 -55.6666666667 134.354492188 -21 136.354492188 47 c 2
 169.354492188 1432 l 2
 170.687825521 1490 202.021158855 1519.66666667 263.354492188 1521 c 0
EndSplineSet
Validated: 33
EndChar

StartChar: L
Encoding: 76 76 47
Width: 1012
GlyphClass: 2
Flags: HW
HStem: -44 206<283.02 832.52> -31 208<308.471 944.573>
VStem: 84.0195 199<162 662.678> 117.02 190<844.322 1524.54>
LayerCount: 3
Fore
SplineSet
171.01953125 -44 m 0
 111.01953125 -44.6666666667 82.01953125 -9.66666666667 84.01953125 61 c 2
 117.01953125 1446 l 2
 118.352864583 1504 149.686197917 1533.66666667 211.01953125 1535 c 0
 276.0859375 1535 308.0859375 1503.33333333 307.01953125 1440 c 2
 283.01953125 162 l 1
 857.971679688 177 l 2
 923.971679688 178.333333333 956.971679688 144 956.971679688 74 c 0
 956.971679688 4.66666666667 924.971679688 -30.3333333333 860.971679688 -31 c 2
 192.01953125 -44 l 1
 192.01953125 -44 192.01953125 -44 171.01953125 -44 c 0
EndSplineSet
Validated: 33
EndChar

StartChar: M
Encoding: 77 77 48
Width: 1358
GlyphClass: 2
Flags: HW
VStem: 80.3887 198<-22.2344 160.44>
LayerCount: 3
Fore
SplineSet
953.493164062 1534 m 0
 927.210158406 1518.02781467 901.814976115 1456.02781467 877.307617188 1348 c 2
 721 659 l 1
 562.735351562 1347 l 2
 536.911783854 1458.33333333 511.311848958 1520.33333333 485.935546875 1533 c 0
 474.645182292 1538.33333333 463.176106771 1538.33333333 451.528320312 1533 c 0
 423.604000577 1518.20684127 398.208818286 1456.20684127 375.342773438 1347 c 2
 122.09375 137.498046875 l 2
 118.03125 117.166015625 115.6328125 106.650065104 114.8984375 105.950195312 c 1
 66.2994791667 91.9833984373 19 56.6666666667 -27 0 c 1
 31.6666666667 -74.6666666667 94.0234375 -113.500651042 160.0703125 -116.501953125 c 0
 166.690104167 -116.833984375 170.150065104 -116.743815104 170.450195312 -116.231445312 c 0
 177.483398437 -118.077148437 185.364583333 -118.833984375 194.09375 -118.501953125 c 0
 246.088304313 -118.834349118 275.848069938 -94.8343491177 283.373046875 -46.501953125 c 2
 453 1043 l 1
 672.700195312 160.732421875 l 2
 685.566731771 108.244140625 703.16015625 82 725.48046875 82 c 0
 753.826822917 82 774.155924479 112.333984375 786.467773438 173.001953125 c 2
 973 1071 l 1
 1139.15917969 -31.095703125 l 2
 1144.76784426 -68.2966879683 1166.82220624 -91.5235759893 1205.32226562 -100.776367188 c 0
 1228.44075521 -106.258789063 1246.76302083 -109.128580729 1260.2890625 -109.385742188 c 0
 1322.76302083 -109.128580729 1385.11979167 -69.2945963542 1447.359375 10.1162109375 c 1
 1401.78645833 66.0387369792 1355.66666667 101 1309 115 c 1
 1304.33333333 136.333333333 1301.47981771 148.968098958 1300.43945312 152.904296875 c 2
 1064.0859375 1348 l 2
 1042.02864583 1458.66666667 1016.63313802 1520.66666667 987.899414062 1534 c 0
 974.633138021 1540 963.164388021 1540 953.493164062 1534 c 0
EndSplineSet
EndChar

StartChar: N
Encoding: 78 78 49
Width: 1245
GlyphClass: 2
Flags: HW
VStem: 83.2344 197<-28.8725 631.332> 117.234 177.766<843.668 1045> 927.875 192<331 713.772> 955.875 195<875.12 1522.46>
LayerCount: 3
Fore
SplineSet
927.875 331 m 1
 955.875 1446 l 2
 957.291666667 1503.33333333 988.291666667 1532.33333333 1048.875 1533 c 0
 1118.31295189 1533.66687109 1152.31295189 1502.66687109 1150.875 1440 c 2
 1119.875 89 l 2
 1118.625 20.3333333333 1081.95833333 -13 1009.875 -11 c 0
 914.258477649 -9.00625843925 853.966810982 14.9937415608 829 61 c 2
 295 1045 l 1
 280.234375 58 l 2
 279.217141716 -9.996393718 242.883808383 -43.3297270513 171.234375 -42 c 0
 110.894993455 -40.6626076471 81.5616601218 -6.66260764713 83.234375 60 c 2
 117.234375 1415 l 2
 118.411458333 1471.66666667 149.078125 1500.66666667 209.234375 1502 c 0
 250.696345717 1502.67127906 277.029679051 1493.00461239 288.234375 1473 c 2
 927.875 331 l 1
EndSplineSet
Validated: 33
EndChar

StartChar: O
Encoding: 79 79 50
Width: 1231
GlyphClass: 2
Flags: HW
HStem: -63 206<437.544 710.189>
VStem: 73.5996 210<330.728 893.169> 938.32 201<551.182 1153.31>
LayerCount: 3
Fore
SplineSet
686.799804688 1313 m 0
 591.653320313 1323 509.093424479 1275.33333333 439.120117188 1170 c 0
 335.439778646 1014 283.599609375 815.666666667 283.599609375 575 c 0
 283.599609375 453.666666667 307.279622396 354.666666667 354.639648438 278 c 0
 410.106445313 188 484.986328125 143 579.279296875 143 c 0
 670.586588542 143 742.266927083 192 794.3203125 290 c 0
 888.61328125 466.666666667 936.61328125 662.666666667 938.3203125 878 c 0
 942.3203125 1150 858.480143229 1295 686.799804688 1313 c 0
679.120117188 1512 m 0
 986.586914063 1507.33333333 1139.98697917 1296.33333333 1139.3203125 879 c 0
 1138.65364583 609.666666667 1062.69335938 378.333333333 911.439453125 185 c 0
 823.546223958 19.6666666667 712.826171875 -63 579.279296875 -63 c 0
 440.186197917 -63 319.626302084 11.3333333333 217.599609375 160 c 0
 121.599609375 266 73.599609375 403.666666667 73.599609375 573 c 0
 73.599609375 837.666666667 154.479817708 1071.33333333 316.240234375 1274 c 0
 405.413411458 1435.33333333 526.373372396 1514.66666667 679.120117188 1512 c 0
EndSplineSet
Validated: 33
EndChar

StartChar: P
Encoding: 80 80 51
Width: 969
GlyphClass: 2
Flags: HW
HStem: 1327 191<279.339 463.619>
VStem: 152.339 198<-30.5938 593> 186.339 180<852.344 1322.62>
LayerCount: 3
Fore
SplineSet
244.811523438 1461.70019531 m 0
 286.270507813 1467.23339844 311.077473958 1470.26660156 319.232421875 1470.79980469 c 1
 393.744140625 1481.5999349 457 1483.33333333 509 1476 c 0
 729 1445.33333333 862.333333333 1353.33333333 909 1200 c 0
 977 976 948.16015625 766.266601563 822.48046875 570.799804688 c 0
 746.826822917 452.266601563 605 382.666666667 397 362 c 0
 383.666666667 360.666666667 371.348307292 361.099934896 360.044921875 363.299804688 c 1
 355 242 l 0
 371 194 l 0
 666.171875 163 l 0
 433.390625 28.3333333333 274.723958333 -21.6666666667 190.171875 13 c 0
 66.171875 57 l 2
 157 198 l 0
 177 1306 l 0
 105 1314 l 2
 119 1422 l 1
 244.811523438 1461.70019531 l 0
376.7109375 1259 m 1
 368.80078125 563.5 l 1
 521.600260417 533.833333333 627.188802083 600.833333333 685.56640625 764.5 c 0
 731.85546875 892.166666667 737 1013.5 701 1128.5 c 0
 669 1230.83333333 591.666666667 1278.66666667 469 1272 c 0
 443 1270.66666667 412.236979167 1266.33333333 376.7109375 1259 c 1
EndSplineSet
EndChar

StartChar: Q
Encoding: 81 81 52
Width: 1344
GlyphClass: 2
Flags: HW
HStem: -35 201<459.975 704.148>
VStem: 97.2793 210<350.928 899.161> 962 201<574.28 1154.19>
LayerCount: 3
Fore
SplineSet
702.799804688 1505 m 0
 1010.26660156 1500.33333333 1163.66666667 1294 1163 886 c 0
 1162.33333333 632.666666667 1086.3733724 406.333333333 935.120117188 207 c 0
 927.866861979 193 920.186848958 180 912.080078125 168 c 1
 1042 18 l 2
 1108.66666667 -45.3333333333 1121.66666667 -99 1081 -143 c 0
 1032.33333333 -195.666666667 980.933268229 -191 926.799804688 -129 c 2
 807.759765625 43 l 1
 746.746744792 -9 678.480143229 -35 602.959960938 -35 c 0
 465.146809896 -35 344.586588542 38.6666666667 241.279296875 186 c 0
 145.279296875 289.333333333 97.279296875 423 97.279296875 587 c 0
 97.279296875 845.666666667 178.159505208 1074 339.919921875 1272 c 0
 429.093098958 1430 550.053059896 1507.66666667 702.799804688 1505 c 0
710.479492188 1310 m 0
 614.906575521 1320 532.346679688 1273.33333333 462.799804688 1170 c 0
 359.119466146 1016 307.279296875 822.333333333 307.279296875 589 c 0
 307.279296875 470.333333333 330.959635417 373.333333333 378.3203125 298 c 0
 433.787109375 210 508.666992187 166 602.959960938 166 c 0
 640.506184896 166 674.639648437 174.333333333 705.360351562 191 c 1
 611.919921875 325 l 2
 565.83984375 391 565.83984375 450.666666667 611.919921875 504 c 0
 640.506510417 536.666666667 677.199869792 519.333333333 722 452 c 2
 817.360351562 309 l 1
 817.360351562 309 817.360351562 309 818 310 c 0
 912.29296875 482.666666667 960.29296875 674.333333333 962 885 c 0
 966 1151 882.159830729 1292.66666667 710.479492188 1310 c 0
EndSplineSet
Validated: 33
EndChar

StartChar: R
Encoding: 82 82 53
Width: 1030
GlyphClass: 2
Flags: HW
HStem: 1492 20G<164.608 221.608>
VStem: 83.2158 198<-41.5919 451> 117.216 187.68<844.235 1317>
LayerCount: 3
Fore
SplineSet
847.717773438 20 m 1
 795.905924479 -8.66666666667 735.690429687 15.3333333333 667.071289062 92 c 2
 343.958007812 452 l 1
 337.319335937 451.333333333 330.174153646 450.666666667 322.522460938 450 c 0
 309.507486979 448.666666667 297.598307292 449 286.794921875 451 c 1
 281.215820312 47 l 2
 280.25838803 -22.3306328413 243.591721363 -56.3306328413 171.215820312 -55 c 0
 110.867811 -53.6621413161 81.5344776666 -18.9954746495 83.2158203125 49 c 2
 117.215820312 1424 l 2
 118.405273437 1482.66666667 149.405273437 1512 210.215820312 1512 c 0
 225.405273437 1512 239.071940104 1510.66666667 251.215820312 1508 c 1
 312.405273437 1515.33333333 369.765299479 1515.66666667 423.295898438 1509 c 0
 573.098632813 1491.66666667 681.572591146 1394.66666667 748.717773438 1218 c 0
 835.572591146 989.333333333 806.360026042 784 661.080078125 602 c 0
 617.693359375 548 564.603190104 509.333333333 501.809570312 486 c 1
 862.717773438 198 l 2
 947.788013025 130.115067519 942.788013025 70.7817341855 847.717773438 20 c 1
304.895507812 1317 m 1
 295 640 l 1
 440.333333333 616 536.120117187 656.333333333 582.360351562 761 c 0
 644.120117187 900.333333333 648.485351563 1039.66666667 595.456054688 1179 c 0
 561.818684896 1267 494.831705729 1312 394.495117188 1314 c 0
 364.831705729 1314.66666667 334.965169271 1315.66666667 304.895507812 1317 c 1
EndSplineSet
Validated: 33
EndChar

StartChar: S
Encoding: 83 83 54
Width: 1132
GlyphClass: 2
Flags: HW
HStem: 551 189<423.54 745.997>
LayerCount: 3
Fore
SplineSet
235.622070312 1343.65039062 m 0
 281.874023437 1403.88346354 351.584309896 1461.84863281 444.752929688 1517.54589844 c 0
 516.917643229 1560.51529948 587.408203125 1579.44270833 656.224609375 1574.328125 c 0
 712.741536458 1570.109375 769.386393229 1555.02636719 826.159179688 1529.07910156 c 0
 920.053059896 1485.69303385 983.073242187 1419.15169271 1015.21972656 1329.45507812 c 0
 988 1119 l 0
 910 1214.33333333 855 1275.33333333 823 1302 c 0
 771.666666667 1346 700.666666667 1363 610 1353 c 0
 542 1345.66666667 487 1321.66666667 445 1281 c 0
 399 1236.33333333 373.945963542 1191.57910156 369.837890625 1146.73730469 c 0
 359.945963542 1036.9124349 382.2265625 970.05859375 436.6796875 946.17578125 c 0
 462.2265625 934.725260417 540.923828125 914.804361979 672.771484375 886.413085938 c 0
 744.257161458 870.804361979 831.296549479 820.556315104 933.889648438 735.668945312 c 0
 1036.62988281 650.556315104 1069.9296875 503.891601563 1033.7890625 295.674804688 c 0
 1007.26302083 140.558268229 923.101888021 31.904296875 781.305664062 -30.287109375 c 0
 617.768554687 -101.429036458 522.485351563 -137.028971354 495.456054688 -137.086914062 c 0
 422.485351563 -137.695638021 350.858072917 -119.525065104 280.57421875 -82.5751953125 c 0
 211.524739583 -46.1917317708 165.154296875 -15.783203125 141.462890625 8.650390625 c 0
 81.8209635417 71.5501302083 50.6142578125 131.995768229 47.8427734375 189.987304688 c 0
 35.2809244792 423.329101563 40.9886067708 482.291666667 64.9658203125 366.875 c 0
 77.6552734375 306.958333333 132.420898437 247.625 229.262695312 188.875 c 0
 322.420898437 132.291666667 373.871744792 103.366861979 383.615234375 102.100585938 c 0
 458.538411458 94.033528646 516.183268229 94.033528646 556.549804688 102.100585938 c 0
 628.183268229 116.033528646 681.347330729 144.958333333 716.041992188 188.875 c 0
 782.013997396 272.958333333 812.623697917 331.920898437 807.87109375 365.762695312 c 0
 783.95703125 532.587565104 678.333333333 633 491 667 c 0
 291.666666667 703.666666667 181.378580729 807.076497396 160.135742188 977.229492188 c 0
 141.378580729 1131.0764974 166.540690104 1253.21679687 235.622070312 1343.65039062 c 0
EndSplineSet
EndChar

StartChar: T
Encoding: 84 84 55
Width: 1175
GlyphClass: 2
Flags: HW
HStem: 1307 193<91.1528 551.034 742.273 1169.72>
VStem: 526.233 197<-36.875 778.026> 551.034 191.239<581.974 1308>
LayerCount: 3
Fore
SplineSet
209.879882812 1500 m 2
 1052.81640625 1500 l 2
 1139.48307292 1500 1183.48307292 1467.33333333 1184.81640625 1402 c 0
 1186.14973958 1340.66666667 1142.14973958 1310 1052.81640625 1310 c 2
 742.2734375 1309 l 1
 723.233398438 50 l 2
 721.900065105 -18 685.566731771 -51.3333333333 614.233398438 -50 c 0
 554.713216146 -48.6666666667 525.379882813 -14.6666666667 526.233398438 52 c 2
 551.034179688 1308 l 1
 447.033528646 1307.33333333 330.315429687 1307 200.879882812 1307 c 0
 116.879882812 1307 74.8798828125 1342 74.8798828125 1412 c 0
 74.8798828125 1470.66666667 119.879882812 1500 209.879882812 1500 c 2
EndSplineSet
Validated: 33
EndChar

StartChar: U
Encoding: 85 85 56
Width: 1168
GlyphClass: 2
Flags: HW
HStem: -40 179<443.726 675.067>
VStem: 102.428 201<356.914 1470.02> 821.827 204<382.426 1285.9> 833.827 207<769.099 1463.54>
LayerCount: 3
Fore
SplineSet
-644.572265625 1999 m 1024,0,-1
935.827148438 1485 m 0,1,2
 1009.16048177 1483.66666667 1044.16048177 1425.66666667 1040.82714844 1311 c 2,3,-1
 1025.82714844 744 l 2,4,5
 1011.82714844 220.666666667 857.640625002 -40.6666666667 563.267578125 -40 c 0,6,7
 252.707682292 -39.3333333333 99.0944010417 228 102.427734375 762 c 2,8,-1
 105.427734375 1299 l 2,9,10
 106.094401042 1431.66666667 140.094401042 1498 207.427734375 1498 c 0,11,12
 273.134114584 1497.33333333 305.773763021 1439.33333333 305.346679688 1324 c 2,13,-1
 303.427734375 777 l 2,14,15
 300.761067708 347 388.441080729 134.333333333 566.467773438 139 c 0,16,17
 731.160481771 143 816.280273438 351.666666667 821.827148438 765 c 2,18,-1
 833.827148438 1332 l 2,19,20
 835.827148438 1435.33333333 869.827148438 1486.33333333 935.827148438 1485 c 0,1,2
EndSplineSet
Validated: 33
EndChar

StartChar: V
Encoding: 86 86 57
Width: 1075
GlyphClass: 2
Flags: HW
HStem: 1492 20G<118.78 229.28 783.187 894.187>
VStem: 727.187 168<1369.41 1501.32>
LayerCount: 3
Fore
SplineSet
488.473632812 -41 m 0
 455.193684896 -21.6666666667 428.740234375 39.6666666667 409.11328125 143 c 2
 118.280273438 1260 l 2
 68.9469401043 1428 93.9469401043 1512 193.280273438 1512 c 0
 241.280273438 1512 272.280273438 1488.66666667 286.280273438 1442 c 2
 506.393554688 324 l 1
 727.186523438 1442 l 2
 740.519856771 1488.66666667 771.186523438 1512 819.186523438 1512 c 0
 919.186523438 1512 944.519856771 1428 895.186523438 1260 c 2
 604.313476562 143 l 2
 584.260091146 37 557.593424479 -24.3333333333 524.313476562 -41 c 0
 512.366861979 -47 500.420247396 -47 488.473632812 -41 c 0
EndSplineSet
Validated: 33
EndChar

StartChar: W
Encoding: 87 87 58
Width: 1582
GlyphClass: 2
Flags: HW
VStem: 1244.51 168<1372.26 1505.63>
LayerCount: 3
Fore
SplineSet
1006.51367188 -55 m 4
 975.504557293 -37 949.051106771 25 927.153320312 131 c 6
 766 914 l 5
 599.473632812 132 l 6
 575.915988245 21.3744074115 549.249321578 -40.6255925885 519.473632812 -54 c 4
 507.824544271 -59.3333333333 495.877604167 -59.3333333333 483.6328125 -54 c 4
 459.673378216 -42.5692328433 433.220253216 19.4307671567 404.2734375 132 c 6
 113.440429688 1263 l 6
 110.480143229 1275.66666667 107.981770833 1286.18261719 105.9453125 1294.54785156 c 5
 55.3151041667 1308.18261719 6.044921875 1343.49934896 -41.865234375 1400.49804688 c 5
 22.044921875 1478.16601563 87 1517 153 1517 c 4
 159.666666667 1517 163.270833333 1516.90983073 163.8125 1516.72949219 c 4
 171.270833333 1518.24316406 179.480143229 1519 188.440429688 1519 c 4
 241.440564515 1519 272.440564515 1495 281.440429688 1447 c 6
 477 404 l 5
 714.020507812 1318.26757812 l 6
 727.340169271 1370.75585937 745.666666667 1397 769 1397 c 4
 798.623991004 1397 819.800097775 1366.66601563 832.528320312 1305.99804688 c 6
 1031 360 l 5
 1244.5078125 1446 l 6
 1252.16927083 1483.33333333 1275.14257813 1506.56022135 1313.42773438 1515.68066406 c 4
 1337.80924479 1521.22688802 1356.89485677 1524.09667969 1370.68457031 1524.29003906 c 4
 1436.2281901 1524.09667969 1501.18326823 1484.26269531 1565.54980469 1404.78808594 c 5
 1518.51660156 1348.92936198 1470.4749349 1313.96809896 1421.42480469 1299.90429688 c 5
 1416.4749349 1279.30143229 1413.50260417 1266.66666667 1412.5078125 1262 c 6
 1121.71386719 131 l 6
 1092.57128906 17.6666666667 1066.11783854 -44.3333333333 1042.35351562 -55 c 4
 1028.78450521 -61 1016.83789063 -61 1006.51367188 -55 c 4
EndSplineSet
EndChar

StartChar: X
Encoding: 88 88 59
Width: 1155
GlyphClass: 2
Flags: HW
LayerCount: 3
Fore
SplineSet
156.719726562 1498 m 0
 210.719726562 1529.33333333 268.397786458 1499.33333333 329.75390625 1408 c 2
 564.6328125 927 l 1
 800.153320312 1408 l 2
 861.509440104 1499.33333333 919.1875 1529.33333333 973.1875 1498 c 0
 1043.1875 1457.33333333 1054.1875 1406 1006.1875 1344 c 2
 649.11328125 755 l 1
 1042.1875 113 l 2
 1081.52083333 61.6666666667 1077.52083333 18 1030.1875 -18 c 0
 970.1875 -63.3333333333 920.1875 -60.6666666667 880.1875 -10 c 2
 564.6328125 586 l 1
 249.719726562 -10 l 2
 209.719726562 -61.3333333333 159.719726562 -64 99.7197265625 -18 c 0
 52.3863932292 18 48.3863932292 61.6666666667 87.7197265625 113 c 2
 480.79296875 755 l 1
 123.719726562 1344 l 2
 75.7197265623 1406 86.7197265623 1457.33333333 156.719726562 1498 c 0
EndSplineSet
Validated: 33
EndChar

StartChar: Y
Encoding: 89 89 60
Width: 894
GlyphClass: 2
Flags: HW
VStem: 355.993 113.28<-36.3789 47>
LayerCount: 3
Fore
SplineSet
902 1494.5 m 0
 954.151394955 1465.4155682 950.818061621 1371.24890153 892 1212 c 2
 451 18 l 2
 433 -31.3333333333 347 -64.3333333333 193 -81 c 0
 307 165 l 2
 436 510 l 1
 36.193359375 1358 l 2
 9.39778645833 1414.66666667 19.3977864583 1459 66.193359375 1491 c 0
 133.397786458 1537.66666667 183.397786458 1522.66666667 216.193359375 1446 c 2
 517 738 l 1
 766.915039062 1441 l 2
 792.476614091 1512.90358497 837.504934403 1530.7369183 902 1494.5 c 0
EndSplineSet
EndChar

StartChar: Z
Encoding: 90 90 61
Width: 1114
GlyphClass: 2
Flags: HW
HStem: -46 215<345.754 1042.5> 1285 217<78.0244 771.354>
LayerCount: 3
Fore
SplineSet
992.423828125 1242 m 2
 345.75390625 169 l 1
 938.423828125 166 l 2
 1021.09049479 166 1062.09049479 128.333333333 1061.42382812 53 c 0
 1061.42382812 -17.6666666667 1020.09049479 -52.6666666667 937.423828125 -52 c 2
 180.879882812 -46 l 2
 99.546549479 -45.3333333333 58.8798828125 -10.3333333333 58.8798828125 59 c 0
 58.8798828125 97 72.5465494792 132.333333333 99.8798828125 165 c 2
 771.353515625 1285 l 1
 180.879882812 1290 l 2
 99.546549479 1290.66666667 58.8798828125 1325.66666667 58.8798828125 1395 c 0
 58.8798828125 1469 97.546549479 1506 174.879882812 1506 c 2
 938.423828125 1502 l 2
 1021.09049479 1502 1062.09049479 1464.33333333 1061.42382812 1389 c 0
 1061.42382812 1345 1038.42382812 1296 992.423828125 1242 c 2
EndSplineSet
Validated: 33
EndChar

StartChar: bracketleft
Encoding: 91 91 62
Width: 738
GlyphClass: 2
Flags: HW
HStem: -415 193<293.004 627.251> 1323 193<314.004 589.268>
VStem: 112.004 181<-225 831.768> 124.004 190<266.232 1323>
LayerCount: 3
Fore
SplineSet
515.00390625 1518 m 2
 572.337239583 1518.66666667 601.00390625 1485.66666667 601.00390625 1419 c 0
 601.00390625 1355.66666667 564.670572917 1324 492.00390625 1324 c 2
 314.00390625 1323 l 1
 293.00390625 -225 l 1
 377.670572917 -224.333333333 462.337239583 -223.333333333 547.00390625 -222 c 0
 607.670572917 -221.333333333 638.00390625 -254.666666667 638.00390625 -322 c 0
 638.00390625 -384 601.670572917 -415 529.00390625 -415 c 0
 523.670572917 -415 417.670572917 -414.666666667 211.00390625 -414 c 0
 144.337239583 -413.333333333 111.337239583 -371 112.00390625 -287 c 2
 124.00390625 1393 l 2
 124.670572917 1474.33333333 157.670572917 1515.33333333 223.00390625 1516 c 2
 515.00390625 1518 l 2
EndSplineSet
Validated: 33
EndChar

StartChar: backslash
Encoding: 92 92 63
Width: 937
GlyphClass: 2
Flags: HW
LayerCount: 3
Fore
SplineSet
129.952148438 1609 m 0
 179.952148438 1634.33333333 215.285481771 1625.33333333 235.952148438 1582 c 2
 818.182617188 40 l 2
 844.182617188 -14.6666666667 829.849283855 -54 775.182617188 -78 c 0
 719.849283855 -102.666666667 679.849283855 -87.3333333333 655.182617188 -32 c 2
 90.9521484375 1509 l 2
 70.9521484375 1552.33333333 83.9521484377 1585.66666667 129.952148438 1609 c 0
EndSplineSet
Validated: 33
EndChar

StartChar: bracketright
Encoding: 93 93 64
Width: 739
GlyphClass: 2
Flags: HW
HStem: -417 195<124.673 458.92> 1324 194<162.027 437.92>
VStem: 437.92 190<266.232 1323> 458.92 181<-225 831.768>
LayerCount: 3
Fore
SplineSet
236.919921875 1518 m 2
 528.919921875 1516 l 2
 594.253255208 1516 627.253255208 1475 627.919921875 1393 c 2
 639.919921875 -287 l 2
 640.586588542 -370.333333333 607.586588542 -412.666666667 540.919921875 -414 c 0
 330.253255208 -417.333333333 224.253255208 -418.333333333 222.919921875 -417 c 0
 150.253255208 -417.666666667 113.919921875 -386 113.919921875 -322 c 0
 113.919921875 -254.666666667 144.253255208 -221.333333333 204.919921875 -222 c 0
 289.586588542 -222.666666667 374.253255208 -223.666666667 458.919921875 -225 c 1
 437.919921875 1323 l 1
 259.919921875 1324 l 2
 187.253255208 1324 150.919921875 1355.66666667 150.919921875 1419 c 0
 150.919921875 1485.66666667 179.586588542 1518.66666667 236.919921875 1518 c 2
EndSplineSet
Validated: 33
EndChar

StartChar: asciicircum
Encoding: 94 94 65
Width: 1004
GlyphClass: 2
Flags: HW
LayerCount: 3
Fore
SplineSet
499 1628 m 4
 509.671875 1628.67317708 528.4453125 1612.67317708 555.3203125 1580 c 6
 807.013671875 1274 l 4
 874.846679688 1190 l 21
 806.180013021 1117.33333333 730.180013021 1126.33333333 646.846679688 1217 c 4
 499 1404 l 5
 370.846679688 1238 l 4
 275.513346355 1133.33333333 192.513346355 1116.33333333 121.846679688 1187 c 5
 119.180013021 1189.66666667 142.736328125 1218.66666667 192.515625 1274 c 4
 443.3203125 1580 l 6
 469.004557292 1611.33333333 487.564453125 1627.33333333 499 1628 c 4
EndSplineSet
EndChar

StartChar: underscore
Encoding: 95 95 66
Width: 987
GlyphClass: 2
Flags: HW
HStem: -345 185<-22.4004 1023.67>
LayerCount: 3
Fore
SplineSet
1023.66699219 -160 m 1
 1023.66699219 -345 l 1
 -22.400390625 -345 l 1
 -22.400390625 -160 l 1
 1023.66699219 -160 l 1
EndSplineSet
Validated: 1
EndChar

StartChar: grave
Encoding: 96 96 67
Width: 929
GlyphClass: 2
Flags: HW
LayerCount: 3
Fore
SplineSet
205.170898438 1515.99023438 m 4
 248.065429687 1548.75 288.784505208 1545.41341146 327.328125 1505.98046875 c 6
 493.500976562 1336.45410156 l 6
 556.568684895 1272.11295573 593.805989583 1245.50846354 605.212890625 1256.640625 c 4
 542.408854167 1195.37890625 462.213867188 1200.83886719 364.627929688 1273.02050781 c 6
 192.115234375 1401.33007812 l 6
 145.555989584 1435.95963541 149.907877605 1474.1796875 205.170898438 1515.99023438 c 4
EndSplineSet
EndChar

StartChar: a
Encoding: 97 97 68
Width: 882
GlyphClass: 2
Flags: HW
HStem: -60.5 177.097<213.923 495.582>
VStem: 12.0859 165.084<152.021 423.996>
LayerCount: 3
Fore
SplineSet
611.739257812 46.5654296875 m 1
 505.913085937 -23.1448567708 434.659179687 -58.1666666667 397.977539062 -58.5 c 0
 283.992513021 -59.5 198.447591146 -43.4957682292 141.342773438 -10.4873046875 c 0
 67.1142578127 33.1708984375 33 96.6666666667 39 180 c 0
 48.3333333333 311.333333333 68.9296875 388.625 100.7890625 411.875 c 0
 200.9296875 483.958333333 275.096354167 527.958333333 323.2890625 543.875 c 0
 431.763020833 578.625 492.666666667 595.333333333 506 594 c 1
 512 670 512 670 518 746 c 1
 470 842 l 1
 383 869 l 1
 363.666666667 875.666666667 324.666666667 869.333333333 266 850 c 0
 149.333333333 811.333333333 100.666666667 762 120 702 c 1
 79.3333333333 826 105.333333333 914.666666667 198 968 c 0
 256 1001.33333333 304.492513021 1022.33333333 343.477539062 1031 c 0
 481.159179687 1061 575.333333333 1038 626 962 c 1
 683 881 l 1
 695 776 l 1
 705.477539062 623 l 1
 699.825846354 577.666666667 704 512.333333333 718 427 c 128
 732 341.666666667 740.666666667 292 744 278 c 1
 788 288 l 1
 806 176 l 1
 789 161 789 161 772 146 c 1
 772 133.223958333 774.913085937 120.745768229 780.739257812 108.565429688 c 2
 802.055664062 64 l 1
 862 64 l 1
 850 -14.6666666667 808.615559896 -56.8444010417 737.846679688 -62.533203125 c 1
 666.615559896 -73.5110677083 624.579752604 -37.1448567708 611.739257812 46.5654296875 c 1
244.5 148.5 m 0
 256.833333333 138.833333333 315 135.333333333 419 138 c 1
 504.333333333 150 546.333333333 187 545 249 c 0
 543 329 540 374 536 384 c 0
 517.333333333 427.333333333 458 431.333333333 358 396 c 0
 269.333333333 364.666666667 222.596354167 316.125 217.7890625 250.375 c 0
 213.9296875 199.458333333 222.833333333 165.5 244.5 148.5 c 0
EndSplineSet
EndChar

StartChar: b
Encoding: 98 98 69
Width: 982
GlyphClass: 2
Flags: HW
HStem: 1590 20G<169.336 261.296>
VStem: 88.3359 202<223 677.81> 122.336 177.601<960 1600.33>
LayerCount: 3
Fore
SplineSet
214.3359375 1610 m 0
 276.94921875 1610 307.829101563 1577 306.975585938 1511 c 2
 299.936523438 960 l 1
 311.029622396 971.333333333 322.976236979 982.666666667 335.776367188 994 c 0
 374.176106771 1028 418.975911458 1045 470.17578125 1045 c 0
 562.3359375 1045 652.546223958 988 740.806640625 874 c 0
 842.806640625 755.333333333 888.806640625 606.333333333 878.806640625 427 c 0
 871.473307292 292.333333333 819.473307292 177.333333333 722.806640625 82 c 0
 643.559895834 -5.33333333333 567.669596355 -49.3333333333 495.135742188 -50 c 0
 420.896158855 -50.6666666667 350.629557292 -17.3333333333 284.3359375 50 c 1
 279.002604167 -13.3333333333 243.002604167 -44.3333333333 176.3359375 -43 c 0
 116.3359375 -41.6666666667 87.0026041667 -5.33333333333 88.3359375 66 c 2
 122.3359375 1517 l 2
 123.669270833 1579 154.3359375 1610 214.3359375 1610 c 0
495.135742188 145 m 0
 552.736002604 157 595.616210937 192 623.776367188 250 c 0
 673.129882813 322 698.806640625 397 700.806640625 475 c 0
 703.473307292 589.666666667 677.15625 679.666666667 621.85546875 745 c 0
 590.708984375 798.333333333 552.522460938 833.666666667 507.295898438 851 c 0
 437.322591146 877 366.922526042 836.333333333 296.095703125 729 c 1
 290.3359375 271 l 1
 372.255859375 175.666666667 440.522460937 133.666666667 495.135742188 145 c 0
EndSplineSet
Validated: 33
EndChar

StartChar: c
Encoding: 99 99 70
Width: 838
GlyphClass: 2
Flags: HW
VStem: 64.342 178<256.305 719.617>
LayerCount: 3
Fore
SplineSet
622 186 m 0
 742 304 l 0
 797.333333333 213.333333333 772.666666667 123.333333333 668 34 c 0
 603.333333333 -21.3333333333 522.034179687 -48.6666666667 424.102539062 -48 c 0
 358.034179687 -47.3333333333 289.113932292 -7.33333333333 217.341796875 72 c 0
 115.113932292 185.333333333 64.1139322917 309 64.341796875 443 c 0
 64.1139322917 595.666666667 100.447265625 730 173.341796875 846 c 0
 253.780598958 974 333.740559896 1042.66666667 413.221679688 1052 c 0
 459.073893229 1057.33333333 509.991210937 1049.66666667 565.973632812 1029 c 0
 648.657877604 998.333333333 702.324544271 964 726.973632812 926 c 0
 767.657877604 862 765.324544271 813.666666667 719.973632812 781 c 0
 684.657877604 755.666666667 636.657877604 768.333333333 575.973632812 819 c 0
 509.991210937 874.333333333 447.634114583 887.666666667 388.90234375 859 c 0
 353.634114583 841.666666667 321.634114583 801 292.90234375 737 c 0
 261.634114583 666.333333333 244.780598958 582.333333333 242.341796875 485 c 0
 240.780598958 421 262.754231771 341.333333333 308.262695312 246 c 0
 330.754231771 198.666666667 374.666666667 173.333333333 440 170 c 0
 537.333333333 164.666666667 598 170 622 186 c 0
EndSplineSet
EndChar

StartChar: d
Encoding: 100 100 71
Width: 945
GlyphClass: 2
Flags: HW
HStem: 1590 20G<704.467 801.467>
VStem: 63.5469 178<269.502 712.909> 627.467 193<221.984 733.167> 643.467 208<940 1591.05>
LayerCount: 3
Fore
SplineSet
749.466796875 1610 m 0
 818.800130208 1610 852.800130208 1577 851.466796875 1511 c 2
 820.466796875 64 l 2
 819.800130208 -8.66666666667 783.466796875 -44.3333333333 711.466796875 -43 c 0
 658.133463542 -41.6666666667 629.493489583 -13 625.546875 43 c 1
 562.400390625 -19.6666666667 494.986979167 -50.6666666667 423.306640625 -50 c 0
 349.493489583 -49.3333333333 281.573567708 -5.33333333333 219.546875 82 c 0
 120.880208333 180.666666667 68.8802083333 295.666666667 63.546875 427 c 0
 57.546875 604.333333333 103.546875 753.333333333 201.546875 874 c 0
 270.453776041 988 352.694010416 1045 448.267578125 1045 c 0
 499.467447916 1045 544.267252604 1028 582.666992188 994 c 0
 602.720377604 976 622.986979166 958 643.466796875 940 c 1
 657.466796875 1517 l 2
 658.800130208 1577.66666667 689.466796875 1608.66666667 749.466796875 1610 c 0
627.466796875 269 m 1
 634.800130208 407.666666667 638.466796875 554.666666667 638.466796875 710 c 1
 560.307291666 832 484.533854166 879 411.146484375 851 c 0
 357.38671875 830.333333333 318.560221355 797 294.666992188 751 c 0
 260.960611979 685 243.25390625 593 241.546875 475 c 0
 240.213541667 399 257.920247396 324 294.666992188 250 c 0
 323.680013021 190 366.559895834 155 423.306640625 145 c 0
 483.040364583 134.333333333 551.09375 175.666666667 627.466796875 269 c 1
EndSplineSet
Validated: 33
EndChar

StartChar: e
Encoding: 101 101 72
Width: 833
GlyphClass: 2
Flags: HW
HStem: -43 180<283.372 547.574>
VStem: 11.1582 184.08<231.296 361>
LayerCount: 3
Fore
SplineSet
195.23828125 361 m 1
 197.079427083 309.666666667 209.826171875 267.666666667 233.478515625 235 c 0
 277.826171875 173.666666667 340 143.333333333 420 144 c 1
 580 166 l 0
 778 334 l 0
 822 248.666666667 780.666666667 149.333333333 654 36 c 0
 592 -19.3333333333 503.026041667 -45.6666666667 387.078125 -43 c 0
 324.359375 -41.6666666667 253.106119792 -1.66666666667 173.318359375 77 c 0
 65.1061197917 183.666666667 11.052734375 289.333333333 11.158203125 394 c 0
 11.052734375 584 44.0660807293 732.666666667 110.198242188 840 c 0
 193.399414063 975.333333333 277.586263021 1047 362.758789062 1055 c 0
 457.586263021 1063.66666667 547.24609375 1017.33333333 631.73828125 916 c 0
 677.24609375 861.333333333 698 760.666666667 694 614 c 0
 691.333333333 522 685.333333333 475.333333333 676 474 c 9
 195.23828125 361 l 1
211 561 m 1
 552 606 l 1
 536 732 518.786132813 803.333333333 500.358398438 820 c 0
 449.452799479 868 409.559244792 886.333333333 380.677734375 875 c 0
 321.559244792 852.333333333 277 808.666666667 247 744 c 0
 223 693.333333333 211 632.333333333 211 561 c 1
EndSplineSet
EndChar

StartChar: f
Encoding: 102 102 73
Width: 763
GlyphClass: 2
Flags: HW
HStem: 847 198<-57.5984 190.313 387.874 686.774> 1409 190<447.735 712.812>
VStem: 181.993 193.32<-38.8906 847 1045 1315.37>
LayerCount: 3
Fore
SplineSet
20 846 m 0
 20.6666666667 914 50.6666666667 948 110 948 c 2
 167 948 l 1
 151.666666667 1084.66666667 186.666666667 1234.66666667 272 1398 c 0
 298.666666667 1449.33333333 387.666666667 1478.33333333 539 1485 c 1
 848 1461 l 1
 783.333333333 1355.66666667 698.333333333 1301.66666667 593 1299 c 0
 497 1297 437 1278 413 1242 c 0
 375.666666667 1187.33333333 364.666666667 1098.33333333 380 975 c 1
 542 969 l 2
 708 962.851851852 791 967.851851852 791 984 c 1
 793 854 701 783 515 771 c 1
 383 774 l 1
 375.685586493 88.8556993572 l 1
 436.561862164 83.1430402461 467 71.5244737937 467 54 c 0
 467 -44 402 -93 272 -93 c 0
 174.666666667 -93 124.666666667 -69 122 -21 c 0
 119.359192652 29.1753396098 139.383441512 62.7877535291 182.072746581 79.8372417578 c 1
 184.313476562 751 l 1
 98 750 l 2
 45.3333333333 749.333333333 19.3333333333 781.333333333 20 846 c 0
EndSplineSet
EndChar

StartChar: g
Encoding: 103 103 74
Width: 849
GlyphClass: 2
Flags: HW
HStem: -522 176<7.01493 497.504>
VStem: 580.999 202<409.418 827.393>
LayerCount: 3
Fore
SplineSet
568.999023438 600 m 0
 579.665690105 662 583.665690105 702.333333333 580.999023438 721 c 0
 577.665690105 805.666666667 539.276692709 848.333333333 465.83203125 849 c 0
 410.792317709 849 360.232096355 826.666666667 314.151367188 782 c 0
 260.011393229 732 224.94140625 629 208.94140625 473 c 0
 190.274739583 295.666666667 230.891601563 201.333333333 330.791992188 190 c 0
 423.805013021 178 488.018554688 233.333333333 523.432617188 356 c 0
 531.538736979 378.666666667 546.727539063 460 568.999023438 600 c 0
702.999023438 933 m 4
 759.666341146 973.666666667 786.333007813 928.333333333 782.999023438 797 c 6
 764.358398438 -34 l 2
 755.452799479 -418.666666667 593.650716146 -595.666666667 278.952148438 -565 c 0
 160.984049479 -553.666666667 86.3138020833 -539.333333333 54.94140625 -522 c 0
 -73.01953125 -450 -124.666666667 -399.666666667 -100 -371 c 1
 -22 -409 65 -426 161 -422 c 0
 281.697885859 -418.457128573 376.817352005 -394.12379524 446.358398438 -349 c 0
 505.452799479 -310.333333333 541.452799479 -209.333333333 554.358398438 -46 c 2
 566.358398438 107 l 1
 529.452799479 15 444.103841146 -23.3333333333 310.311523438 -8 c 0
 40.7705078127 23.3333333333 -52.6861979167 232.666666667 29.94140625 620 c 0
 85.3138020833 881.333333333 213.757486979 1025.66666667 415.272460938 1053 c 0
 551.090820313 1071.66666667 639.333007813 1032.33333333 679.999023438 935 c 1
 693.008073754 932.179140062 700.674740421 931.512473395 702.999023438 933 c 4
EndSplineSet
EndChar

StartChar: h
Encoding: 104 104 75
Width: 948
GlyphClass: 2
Flags: HW
HStem: 1591 20G<175.096 266.976>
VStem: 94.0957 211.08<-17.25 696.35> 127.096 178.08<919 1600> 623.896 202<-39.5837 778.125>
LayerCount: 3
Fore
SplineSet
221.095703125 1611 m 0
 282.268880208 1611 312.429036458 1577.66666667 311.576171875 1511 c 2
 305.17578125 919 l 1
 358.509114583 996.333333333 429.549153646 1035 518.295898438 1035 c 0
 728.695638021 1034.33333333 832.562174479 882.333333333 829.895507812 579 c 2
 825.895507812 72 l 2
 825.228841145 -8.66666666667 793.228841145 -51.6666666667 729.895507812 -57 c 0
 658.802408854 -63 623.469075521 -26 623.895507812 54 c 2
 626.895507812 533 l 2
 628.228841145 710.333333333 593.735677083 803.333333333 523.416015625 812 c 0
 444.482421875 822.666666667 371.735677083 765.666666667 305.17578125 641 c 1
 291.095703125 64 l 2
 288.429036458 -8.66666666667 251.762369792 -44.3333333333 181.095703125 -43 c 0
 121.762369792 -41.6666666667 92.7623697917 -5.33333333333 94.095703125 66 c 2
 127.095703125 1517 l 2
 128.429036458 1578.33333333 159.762369792 1609.66666667 221.095703125 1611 c 0
EndSplineSet
Validated: 33
EndChar

StartChar: k
Encoding: 107 107 78
Width: 921
GlyphClass: 2
Flags: HW
HStem: 1590 20G<186.635 279.595>
VStem: 105.635 203<-24.9319 360 626 696.35> 138.635 186.64<886.65 1599.11>
LayerCount: 3
Fore
SplineSet
232.634765625 1610 m 0
 295.349092955 1610 326.228975767 1577 325.274414062 1511 c 2
 325.076199528 1497.29511413 l 2
 325.076199528 1497.29511413 325.076199528 1497.29511413 324.403172532 1450.76089694 c 2
 312.474609375 626 l 1
 605.741210938 1046 l 2
 663.247070313 1128 720.580403646 1136.66666667 777.741210938 1072 c 0
 811.477399666 1034.41002611 806.144066333 983.74335944 761.741210938 920 c 2
 566 639 l 1
 827 192 l 2
 927.460486829 19.9469823275 989.460486829 -63.0530176725 1013 -57 c 1
 863 -104.333333333 770.580403646 -99.6666666667 735.741210938 -43 c 2
 419 468 l 1
 314 336 l 1
 302.634765625 64 l 2
 299.544921875 -8.66666666667 262.878255208 -44.3333333333 192.634765625 -43 c 0
 133.01236814 -41.6696590978 104.01236814 -5.33632576447 105.634765625 66 c 2
 136.51580192 1423.82980802 l 1
 98.83860064 1431.94326934 57.4169921875 1440.15820313 12.2509765625 1448.47460938 c 1
 -0.5830078125 1515.49153646 52.542924694 1563.91763924 171.628774082 1593.75291773 c 1
 186.542924694 1604.58430591 206.878255208 1610 232.634765625 1610 c 0
EndSplineSet
EndChar

StartChar: l
Encoding: 108 108 79
Width: 438
GlyphClass: 2
Flags: HW
HStem: 1590 20G<135.331 232.331>
VStem: 54.3311 197<-28.8906 677.81> 88.3311 194<905.19 1598.3>
LayerCount: 3
Fore
SplineSet
180.331054688 1610 m 0
 249.664388021 1610 283.664388021 1577 282.331054688 1511 c 2
 251.331054688 64 l 2
 250.664388021 -8.66666666667 214.331054688 -44.3333333333 142.331054688 -43 c 0
 82.3310546877 -41.6666666667 52.9977213542 -5.33333333333 54.3310546875 66 c 2
 88.3310546875 1517 l 2
 89.6643880208 1577.66666667 120.331054688 1608.66666667 180.331054688 1610 c 0
EndSplineSet
Validated: 33
EndChar

StartChar: m
Encoding: 109 109 80
Width: 1270
GlyphClass: 2
Flags: HW
HStem: 827 208<335.497 486.521 776.843 934.984>
VStem: 73.6348 194<-20.8906 625> 96.6348 181.88<423.197 766.039 954 1083.99> 512.114 196<-14.6697 747.4> 972.435 202<-29.1653 799.025>
LayerCount: 3
Fore
SplineSet
52 1000 m 0
 52 1064 104 1096 208 1096 c 0
 215.465610126 1096 221.920109475 1093.75781145 227.363498047 1089.27343434 c 1
 265.682367947 1078.00335087 284.43945714 1046.57887275 283.634765625 995 c 2
 282.995117188 954 l 1
 320.998372396 1007.33333333 367.291666667 1034.33333333 421.875 1035 c 0
 526.625 1036.33333333 603.371419271 987.333333333 652.114257812 888 c 1
 698.704752604 969.333333333 773.666666667 1009.66666667 877 1009 c 0
 1085 1008.33333333 1186.81152344 865 1182.43457031 579 c 2
 1174.43457031 82 l 2
 1172.81152344 0 1094.66666667 -41 940 -41 c 1
 955 25 955 25 970 91 c 1
 978.434570312 525 l 2
 982.144856771 722.333333333 948.571614583 822.333333333 877.71484375 825 c 0
 784.434994207 828.488014005 731.31487702 772.821347339 718.354492188 658 c 0
 717.136767846 649.207737311 716.283577742 628.874403978 715.794921875 597 c 2
 708.114257812 96 l 2
 706.704752604 -8.66666666667 629 -61.3333333333 475 -62 c 1
 501 -62 515 -3 517 115 c 2
 522.114257812 537 l 2
 524.704752604 726.333333333 491.931640625 823 423.794921875 827 c 0
 349.931640625 831 301.504882813 763.666666667 278.514648438 625 c 1
 267.634765625 72 l 2
 265.878255208 -0.666666666667 230.211588542 -36.3333333333 160.634765625 -35 c 0
 100.864906061 -33.6663688102 71.8649060609 2.66696452313 73.634765625 74 c 2
 93.9054236442 890.995651468 l 1
 65.9684745481 911.524002587 52 947.858785431 52 1000 c 0
EndSplineSet
EndChar

StartChar: n
Encoding: 110 110 81
Width: 886
GlyphClass: 2
Flags: HW
VStem: 102.221 197<-23.8906 650.673> 125.221 184.241<421.327 735.476 936 1083.99> 593.622 202<-32.1653 799.025>
LayerCount: 3
Fore
SplineSet
62.6982421875 1026 m 0
 110.232747396 1038 154.232747396 1042.16015625 194.698242188 1038.48046875 c 0
 272.232747396 1031.49348958 311 999.666666667 311 943 c 0
 311 918 311 918 311 895 c 1
 362.333333333 967 423.333333333 1003 494 1003 c 0
 719.637119425 1002.33243456 830.637119425 858.33243456 827 571 c 2
 821 97 l 2
 819.671597753 -19.8993976956 727.671597753 -77.8993976956 545 -77 c 0
 607.974358975 -77 637.974358975 10 635 184 c 2
 629 535 l 2
 626.291723202 701.559023067 580.291723202 788.559023067 491 796 c 0
 397 804 336.147135417 749.666666667 308.44140625 633 c 1
 299.220703125 69 l 2
 297.740234375 -3.66666666667 261.073567708 -39.3333333333 189.220703125 -38 c 0
 129.344317631 -36.6726686133 100.344317631 -0.33933528 102.220703125 71 c 2
 122 823 l 0
 122.698242188 906 l 0
 65.6982421875 915 l 1
 62.6982421875 1026 l 0
EndSplineSet
EndChar

StartChar: o
Encoding: 111 111 82
Width: 807
GlyphClass: 2
Flags: HW
HStem: -49 189<281.674 453.196> 845 187<307.075 504.311>
VStem: 13.8359 196<223.67 703.695> 576.642 189<319.138 760.813>
LayerCount: 3
Fore
SplineSet
418.634765625 843 m 0
 348.878255208 840.333333333 300.611979167 810.666666667 273.8359375 754 c 0
 231.278645833 663.333333333 209.9453125 563.666666667 209.8359375 455 c 0
 209.9453125 350.333333333 225.305664063 272 255.916992188 220 c 0
 287.972330729 166.666666667 324.238932292 140 364.716796875 140 c 0
 440.238932292 140 497.333333333 172.666666667 536 238 c 0
 575.333333333 304 595.333333333 391 596 499 c 0
 596.666666667 733 537.544921875 847.666666667 418.634765625 843 c 0
387.641601562 1032 m 0
 641.641601562 1030 767.641601562 848 765.641601562 486 c 0
 764.974934895 317.333333333 725.974934895 187.333333333 648.641601562 96 c 1
 581.308268229 -2 481.546549479 -50.3333333333 349.356445312 -49 c 0
 278.213216145 -48.3333333333 203.706380208 1 125.8359375 99 c 0
 51.0397135417 193.666666667 13.7063802083 318.333333333 13.8359375 473 c 0
 13.7063802083 612.333333333 58.373046875 747 147.8359375 877 c 0
 219.039713541 981 298.974934895 1032.66666667 387.641601562 1032 c 0
EndSplineSet
EndChar

StartChar: p
Encoding: 112 112 83
Width: 840
GlyphClass: 2
Flags: HW
HStem: -571 21G<90.7324 188.232>
VStem: 40.7324 195<-559.184 56> 72.7324 174.721<327.744 843.585> 573.037 178<313.019 763.16>
LayerCount: 3
Fore
SplineSet
260.716796875 808 m 1
 240.954101562 183 l 1
 328.318033854 199 372.666666667 207 374 207 c 0
 430 225 476 263 512 321 c 0
 568.531065751 417.971428211 597.531065751 497.304761544 599 559 c 0
 600.333333333 655.666666667 586.333333333 726.666666667 557 772 c 0
 523.666666667 822.666666667 471.625651042 855.333333333 400.876953125 870 c 0
 342.958984375 882 296.238932292 861.333333333 260.716796875 808 c 1
235.866790515 -433.452581314 m 1
 412.489257812 -430.087890625 l 1
 337.722330729 -545.196614583 260.819661459 -604.154947916 181.78125 -606.962890625 c 0
 81.6627604167 -608.924479167 32.5305989583 -579.444986979 34.384765625 -518.524414062 c 0
 34.6581571007 -504.867966068 36.8086110156 -492.798637352 40.8361273697 -482.316427914 c 0
 40.681066245 -478.657505625 40.6464977468 -474.885362987 40.732421875 -471 c 2
 49.9859024852 -52.5691736582 l 1
 45.1410489507 -52.8563912194 40.1457481223 -53 35 -53 c 0
 11.6666666667 -53 0 -1 0 103 c 0
 0 155.877249773 18.4260437608 183.790182193 55.2781312823 186.738797259 c 1
 72.4380248378 962.687733976 l 1
 29.8424372434 972.769636539 -12.6369043692 982.873725213 -55 993 c 1
 -69.2200520833 1067.65755208 -3.63704427067 1118.83268229 141.749023438 1146.52539062 c 0
 200.689127605 1157.75195313 235.3984375 1135.85970052 245.876953125 1080.84863281 c 0
 249.091925012 1063.97015452 251.145357269 1048.59083045 252.037249896 1034.7106606 c 0
 253.516699241 1031.6218956 254.916717505 1028.38500873 256.237304688 1025 c 1
 276.745768229 1050.33333333 326.665690104 1062.66666667 405.997070312 1062 c 0
 515.332356771 1061.33333333 604.666666667 1018.66666667 674 934 c 0
 742 851.333333333 776 737.333333333 776 592 c 0
 776.666666667 442.666666667 729.345703125 304.666666667 634.037109375 178 c 0
 560.012369792 79.3333333333 482.159179687 20 400.477539062 0 c 0
 292.825846354 -26.6666666667 239 -44.3333333333 239 -53 c 1
 239 -52.3333333333 238.348958333 -51.6666666667 237.046875 -51 c 2
 235.866790515 -433.452581314 l 1
EndSplineSet
EndChar

StartChar: q
Encoding: 113 113 84
Width: 841
GlyphClass: 2
Flags: HW
HStem: -570 21G<564.22 656.5>
VStem: 42.2402 184<274.691 713.328> 525.12 178.88<-560.332 -20> 536 202<362.19 841.012>
LayerCount: 3
Fore
SplineSet
611 -570 m 0
 548.626302083 -570 517.866536458 -537 518.720703125 -471 c 2
 525.120117188 -20 l 1
 506.773111979 -36 467.093098958 -43.6666666667 406.080078125 -43 c 0
 326.293619792 -42.3333333333 253.680338542 2.33333333333 188.240234375 91 c 0
 90.9069010417 187.666666667 42.240234375 306 42.240234375 446 c 0
 42.240234375 624.666666667 87.9069010417 767.333333333 179.240234375 874 c 0
 252.38671875 988.666666667 335.040039063 1046 427.200195312 1046 c 0
 478.400065104 1046 517.333333333 1034 544 1010 c 1
 555.333333333 1060 590.666666667 1084.33333333 650 1083 c 0
 710 1081.66666667 739.333333333 1045.33333333 738 974 c 2
 704 -477 l 2
 702.666666667 -539 671.666666667 -570 611 -570 c 0
528.3203125 216 m 1
 536 794 l 1
 510.399739583 840.666666667 468.586588542 860.666666667 410.560546875 854 c 0
 357.653645833 848.666666667 314.986979166 811.666666667 282.560546875 743 c 0
 246.720052084 666.333333333 227.946614584 585.333333333 226.240234375 500 c 0
 224.906901042 405.333333333 240.693359375 327.333333333 273.599609375 266 c 0
 308.586588542 200.666666667 356.586588542 165 417.599609375 159 c 0
 463.680338542 154.333333333 500.587239583 173.333333333 528.3203125 216 c 1
EndSplineSet
Validated: 33
EndChar

StartChar: r
Encoding: 114 114 85
Width: 779
GlyphClass: 2
Flags: HW
VStem: 69.6318 195<-28.8906 648.79> 92.6318 187.36<418.21 781.823 958 1083.99>
LayerCount: 3
Fore
SplineSet
181.243164062 1037.47753906 m 0
 241.747721354 1037.15917969 272.851888021 1007.77115885 274.555664062 949.313476562 c 0
 274.851888021 938.437825521 274.851888021 927.454427083 274.555664062 916.36328125 c 1
 316.851888021 960.787760417 363.974609375 986.61328125 415.923828125 993.83984375 c 0
 481.974609375 1002.61328125 542.666666667 991.333333333 598 960 c 0
 706 897.333333333 740.115885417 821.043945313 700.34765625 731.131835938 c 0
 673.44921875 671.043945313 655.458333333 635.422526042 646.375 624.267578125 c 1
 634.125 697.422526042 606.672200521 746.995768229 564.016601562 772.987304688 c 0
 505.338867187 808.995768229 451.497070313 820.275716146 402.491210938 806.827148438 c 0
 354.830403646 793.609049479 310.693033854 759.471679687 270.079101562 704.415039062 c 1
 262 105 l 1
 332 108.333333333 402 111.333333333 472 114 c 1
 428 -21.3333333333 310 -88.3333333333 118 -87 c 0
 24 -86.3333333333 -22.7177734375 -55.9820963542 -22.1533203125 4.0537109375 c 0
 -21.3844401042 50.0179036458 6.33333333333 81.6666666667 61 99 c 1
 86.2822265625 918.14453125 l 1
 87.2900390625 954.657226562 l 2
 87.7633463542 971.552408854 68.8955078125 990.55045573 30.6865234375 1011.65136719 c 1
 42.2288411458 1029.2171224 92.4143880207 1037.82584635 181.243164062 1037.47753906 c 0
EndSplineSet
EndChar

StartChar: s
Encoding: 115 115 86
Width: 736
GlyphClass: 2
Flags: HW
LayerCount: 3
Fore
SplineSet
305.473632812 144 m 0
 398.491210937 134.666666667 456.944661458 154 480.833984375 202 c 0
 507.611328125 256.666666667 513.125651042 296.333333333 497.376953125 321 c 0
 469.792317708 363 415.60546875 392 334.81640625 408 c 0
 190.272135417 436.666666667 109.373372396 489 92.1201171875 565 c 0
 70.7067057292 660.333333333 72.5400390625 740 97.6201171875 804 c 0
 122.540039062 868 165.371744792 926.333333333 226.115234375 979 c 0
 270.705078125 1018.33333333 332 1042 410 1050 c 0
 435.333333333 1052.66666667 479.333333333 1037.66666667 542 1005 c 0
 614.666666667 967 654.666666667 934 662 906 c 0
 674 768 l 0
 620 812 566 842 512 858 c 0
 482.203953371 874.826946385 433.203953371 875.826946385 365 861 c 0
 319 851 286 822.5 266 775.5 c 128
 246 728.5 242 693 254 669 c 0
 275.333333333 626.333333333 323.392252604 599 398.176757812 587 c 0
 426.725585937 582.333333333 464.272135417 566.333333333 510.81640625 539 c 0
 584.938802083 495 632.373372396 460.666666667 653.120117188 436 c 0
 692.373372396 387.333333333 706.138997396 316 694.416992188 222 c 0
 684.138997396 139.333333333 637.472330729 68.6666666667 554.416992188 10 c 0
 490.805664063 -34.6666666667 425.744466146 -57.3333333333 359.233398438 -58 c 0
 304.411132813 -58.6666666667 251.038411458 -50.6666666667 199.115234375 -34 c 0
 119 0 l 0
 32.3333333333 50.6666666667 4.33333333333 142.666666667 35 276 c 0
 35 276 l 0
 91.6666666667 220.666666667 132.666666667 187.666666667 158 177 c 0
 197.333333333 161 246.491210937 150 305.473632812 144 c 0
EndSplineSet
EndChar

StartChar: t
Encoding: 116 116 87
Width: 712
GlyphClass: 2
Flags: HW
HStem: 892 201<64.128 178.448 371.527 654.978>
VStem: 133 219.268<-27.6252 330.657> 183.448 188.079<1093 1518.99>
LayerCount: 3
Fore
SplineSet
280.801757812 1531 m 0
 342.933919271 1531 373.213867187 1498 371.641601562 1432 c 0
 365.213867187 1225.33333333 361.420898437 1092.52669271 360.262695312 1033.58007812 c 1
 533.692382812 1049.03613281 l 1
 769.315429688 1069.10839844 l 0
 753.771809896 964.369466147 694.666666667 897.333333333 592 868 c 0
 457.333333333 830 383.333333333 809 370 805 c 1
 354.182009636 144 l 0
 489.394003212 122 566.666666667 121.333333333 586 142 c 0
 678 204 l 0
 676.666666667 22.6666666667 569.333333333 -65.3333333333 356 -60 c 0
 203.50896072 -56.0046015909 129.175627387 -12.0046015909 133 72 c 2
 166.233398438 801.991210938 l 1
 126.412109375 802.686523438 l 0
 82.1373697917 798.895507813 56.9599609375 834.151692708 50.8798828125 908.455078125 c 0
 44.9599609375 985.485026042 76.0826822917 1025.34375 144.248046875 1028.03125 c 0
 158.082682292 1028.67708333 170 1028.66666667 180 1028 c 1
 188.801757812 1438 l 2
 190.267252604 1500 220.933919271 1531 280.801757812 1531 c 0
EndSplineSet
EndChar

StartChar: u
Encoding: 117 117 88
Width: 883
GlyphClass: 2
Flags: HW
VStem: 86.2093 202<219.497 1037.45> 574.93 194<-64.3018 82 257.125 574.909> 595.93 197<448 1045.87>
LayerCount: 3
Fore
SplineSet
676.9296875 -76 m 0
 608.076822917 -76 574.076822917 -43 574.9296875 23 c 2
 575.9296875 82 l 1
 529.182942708 16 469.54296875 -17 397.009765625 -17 c 0
 187.142578125 -16.3333333333 83.5423177083 135.666666667 86.208984375 439 c 2
 90.208984375 930 l 2
 91.5423177083 1010 123.542317708 1053 186.208984375 1059 c 0
 255.916015625 1065 290.343098958 1028 289.490234375 948 c 2
 288.208984375 511 l 2
 286.875651042 349.666666667 302.662434896 251.333333333 335.569335938 216 c 0
 379.943033854 169.333333333 432.849934895 170 494.290039062 218 c 0
 550.716471354 262 580.596354167 338.666666667 583.9296875 448 c 2
 595.9296875 953 l 2
 597.9296875 1025.66666667 634.263020833 1061.66666667 704.9296875 1061 c 0
 764.9296875 1059.66666667 794.263020833 1023 792.9296875 951 c 2
 768.9296875 17 l 2
 767.596354167 -45 736.9296875 -76 676.9296875 -76 c 0
EndSplineSet
Validated: 33
EndChar

StartChar: v
Encoding: 118 118 89
Width: 835
GlyphClass: 2
Flags: HW
HStem: -45 21G<400.138 438.997>
VStem: 58.7158 182<911.822 1039.83>
LayerCount: 3
Fore
SplineSet
95.7158203125 1046 m 0
 166.571940104 1077.33333333 214.905273437 1049 240.715820312 961 c 2
 413 370 l 1
 597.350585938 961 l 2
 624.208366533 1047.10196844 672.541699867 1075.43530177 742.350585938 1046 c 0
 796.583573847 1023.41659741 808.91690718 969.416597413 779.350585938 884 c 2
 495.513671875 64 l 2
 470.504557292 -8.66666666667 445.331054687 -45 419.993164062 -45 c 0
 393.519975863 -45 367.706824822 -8.66666666667 342.553710938 64 c 2
 58.7158203125 884 l 2
 29.5719401042 968 41.9052734375 1022 95.7158203125 1046 c 0
EndSplineSet
Validated: 33
EndChar

StartChar: w
Encoding: 119 119 90
Width: 1099
GlyphClass: 2
Flags: HW
HStem: -50 21G<281.621 363.137>
VStem: 450 181<851.91 1019.92>
LayerCount: 3
Fore
SplineSet
631 919 m 2
 691 384 l 1
 847.458984375 915 l 2
 875.152994792 1009.66666667 914.819661458 1053 966.458984375 1045 c 0
 1033.8282474 1034.38450436 1054.16158073 987.717837693 1027.45898438 905 c 2
 758.553710938 72 l 2
 732.184570313 -10 705.3046875 -50.6666666667 677.9140625 -50 c 0
 619.278297051 -48.6660662975 584.306942885 -8.66606629747 573 70 c 2
 518.8125 447 l 1
 430 72 l 2
 410.666666667 -9.33333333333 375.7578125 -50 325.2734375 -50 c 0
 267.069548913 -50 230.254119226 -9.33333333333 214.827148438 72 c 2
 56.8271484375 905 l 2
 40.9423828125 988.333333333 63.6666666667 1035 125 1045 c 0
 184.855746336 1054.97595772 217.933545815 1041.64262439 224.233398438 1005 c 2
 331 384 l 1
 450 916 l 2
 469.333333333 1002.66666667 501.358072917 1046 546.07421875 1046 c 0
 593.358072917 1046 621.666666667 1003.66666667 631 919 c 2
EndSplineSet
Validated: 33
EndChar

StartChar: x
Encoding: 120 120 91
Width: 975
GlyphClass: 2
Flags: HW
LayerCount: 3
Fore
SplineSet
91.2021484375 1027 m 0
 150.348564022 1074.95771347 205.681897356 1060.62438014 257.202148438 984 c 2
 469 669 l 1
 677.504882812 984 l 2
 729.168294271 1062.66666667 784.501627604 1077 843.504882812 1027 c 0
 887.243528457 989.602339514 886.57686179 937.935672847 841.504882812 872 c 2
 592 507 l 1
 814.504882812 147 l 2
 865.501627604 64.3333333333 872.168294271 6.33333333333 834.504882812 -27 c 0
 778.168294271 -77 722.834960937 -62.3333333333 668.504882812 17 c 2
 468 310 l 1
 266.202148438 17 l 2
 211.501058848 -62.4231411567 156.167725515 -77.0898078233 100.202148438 -27 c 0
 59.9000730707 9.1500731502 66.5667397374 67.1500731502 120.202148438 147 c 2
 360 504 l 1
 93.2021484375 872 l 2
 45.7340494792 937.333333333 45.0673828125 989 91.2021484375 1027 c 0
EndSplineSet
Validated: 33
EndChar

StartChar: y
Encoding: 121 121 92
Width: 869
GlyphClass: 2
Flags: HW
VStem: 634.658 192<902.971 1017.28>
LayerCount: 3
Fore
SplineSet
781.658203125 1029 m 0
 845.658203125 1001.66666667 860.658203125 948.666666667 826.658203125 870 c 2
 379.114257812 -447 l 2
 349.674804687 -553.666666667 316.181640625 -595 278.634765625 -571 c 0
 216.83984375 -542.333333333 208.942382812 -475 254.942382812 -369 c 2
 382.955078125 91 l 1
 37.9423828125 861 l 2
 -4.72428385417 939.666666667 3.27571614583 994.666666667 61.9423828125 1026 c 0
 123.942382812 1059.33333333 175.942382812 1036.33333333 217.942382812 957 c 2
 446.314453125 320 l 1
 634.658203125 951 l 2
 668.658203125 1029.66666667 717.658203125 1055.66666667 781.658203125 1029 c 0
EndSplineSet
Validated: 33
EndChar

StartChar: z
Encoding: 122 122 93
Width: 922
GlyphClass: 2
Flags: HW
HStem: -46 185<365.594 802.042> 848 199<124.851 563.993>
LayerCount: 3
Fore
SplineSet
801.8046875 858 m 2
 365.59375 139 l 1
 702.8046875 139 l 2
 778.8046875 139 815.8046875 107 813.8046875 43 c 0
 811.8046875 -16.3333333333 772.471354167 -46 695.8046875 -46 c 2
 183.116210938 -46 l 2
 124.449544271 -46 90.7828776042 -20.3333333333 82.1162109375 31 c 0
 78.1162109375 55 96.1162109377 92 136.116210938 142 c 2
 563.993164062 848 l 1
 222.116210938 848 l 2
 145.449544271 848 108.449544271 884.666666667 111.116210938 958 c 0
 113.116210938 1017.33333333 152.449544271 1047 229.116210938 1047 c 2
 741.8046875 1047 l 2
 793.138020833 1047 826.8046875 1021.33333333 842.8046875 970 c 0
 852.138020833 941.333333333 838.471354167 904 801.8046875 858 c 2
EndSplineSet
Validated: 33
EndChar

StartChar: braceleft
Encoding: 123 123 94
Width: 709
GlyphClass: 2
Flags: HW
HStem: -383 186<435.133 641.962> 1434 186<426.909 657.56>
VStem: 206.615 186<-160.25 403.93 731.158 1405.8>
LayerCount: 3
Fore
SplineSet
209.615234375 798 m 2
 206.615234375 1224 l 2
 204.615234375 1488 312.105794271 1620 529.086914062 1620 c 0
 625.753580729 1620 673.753580729 1592.33333333 673.086914062 1537 c 0
 673.086914062 1460.33333333 620.086914062 1426 514.086914062 1434 c 0
 431.772460937 1440.66666667 391.281901042 1368.66666667 392.615234375 1218 c 2
 394.53515625 795 l 2
 394.962239583 725 350.322265625 649.333333333 260.615234375 568 c 1
 350.322265625 486 394.962239583 410 394.53515625 340 c 2
 392.615234375 19 l 2
 391.281901042 -126.333333333 432.105794271 -198.333333333 515.086914062 -197 c 0
 609.753580729 -195.666666667 657.086914062 -224.333333333 657.086914062 -283 c 0
 657.086914062 -349.666666667 614.420247395 -383 529.086914062 -383 c 0
 311.439127604 -383 203.948567708 -251 206.615234375 13 c 2
 209.615234375 337 l 2
 209.615234375 369 172.615234375 406.333333333 98.615234375 449 c 0
 31.9485677083 488.333333333 -0.0514322916667 528 2.615234375 568 c 1
 -0.0514322916667 608.666666667 31.9485677083 648 98.615234375 686 c 0
 172.615234375 728.666666667 209.615234375 766 209.615234375 798 c 2
EndSplineSet
Validated: 33
EndChar

StartChar: bar
Encoding: 124 124 95
Width: 729
GlyphClass: 2
Flags: HW
VStem: 231.561 173<-350.953 1708.5>
LayerCount: 3
Fore
SplineSet
316.560546875 1715 m 0
 373.893880208 1715.66666667 402.560546875 1690 402.560546875 1638 c 2
 404.560546875 -247 l 2
 404.560546875 -323 375.227213542 -361 316.560546875 -361 c 0
 260.560546875 -360.333333333 232.227213542 -322 231.560546875 -246 c 2
 226.560546875 1638 l 2
 226.560546875 1688.66666667 256.560546875 1714.33333333 316.560546875 1715 c 0
EndSplineSet
Validated: 33
EndChar

StartChar: braceright
Encoding: 125 125 96
Width: 710
GlyphClass: 2
Flags: HW
HStem: -383 186<36.5098 242.436> 1434 186<20.4395 250.66>
VStem: 284.953 186<-160.25 406.891 728.145 1405.8>
LayerCount: 3
Fore
SplineSet
467.953125 798 m 2
 467.953125 766 504.953125 728.666666667 578.953125 686 c 0
 645.619791667 647.333333333 677.619791667 608 674.953125 568 c 1
 677.619791667 527.333333333 645.619791667 487.666666667 578.953125 449 c 0
 504.953125 406.333333333 467.953125 369 467.953125 337 c 2
 470.953125 13 l 2
 473.619791667 -251 366.129557292 -383 148.482421875 -383 c 0
 64.482421875 -383 21.8157552083 -349.666666667 20.482421875 -283 c 0
 19.1490885417 -224.333333333 66.8157552083 -195.666666667 163.482421875 -197 c 0
 245.796223958 -198.333333333 286.286458333 -126.333333333 284.953125 19 c 2
 283.033203125 340 l 2
 282.606770834 409.333333333 327.246744792 485.333333333 416.953125 568 c 1
 327.246744792 650 282.606770834 725.666666667 283.033203125 795 c 2
 284.953125 1218 l 2
 286.286458333 1368.66666667 245.796223958 1440.66666667 163.482421875 1434 c 0
 58.1490885417 1426 5.14908854167 1460.33333333 4.482421875 1537 c 0
 3.81575520833 1592.33333333 51.8157552083 1620 148.482421875 1620 c 0
 365.462890625 1620 472.953125 1488 470.953125 1224 c 2
 467.953125 798 l 2
EndSplineSet
Validated: 33
EndChar

StartChar: asciitilde
Encoding: 126 126 97
Width: 943
GlyphClass: 2
Flags: HW
VStem: 73.8311 162<525.935 687.234> 675.512 183<699.987 892.34>
LayerCount: 3
Fore
SplineSet
235.831054688 576 m 0
 207.164388021 520 166.497721355 503.666666667 113.831054688 527 c 0
 69.164388021 547 55.8310546875 587.333333333 73.8310546875 648 c 0
 97.1643880212 726.666666667 142.164388021 794.333333333 208.831054688 851 c 0
 258.404622396 907.666666667 305.378255208 935.666666667 349.751953125 935 c 0
 407.778645834 934.333333333 450.018554688 896.666666667 476.471679688 822 c 0
 510.178059896 730 549.431315104 682.666666667 594.231445312 680 c 0
 628.364908854 678 655.458333333 724.333333333 675.51171875 819 c 0
 696.178385417 881.666666667 728.845052083 912 773.51171875 910 c 0
 834.178385417 908 862.51171875 862 858.51171875 772 c 0
 855.178385417 696 821.845052083 628.666666667 758.51171875 570 c 0
 705.178385417 521.333333333 652.551757813 496.666666667 600.631835938 496 c 0
 531.938476563 495.333333333 479.458333333 538 443.19140625 624 c 0
 399.671875 726.666666667 363.83203125 770.666666667 335.671875 756 c 0
 303.244791667 740 269.964518229 680 235.831054688 576 c 0
EndSplineSet
Validated: 33
EndChar

StartChar: cent
Encoding: 162 162 100
Width: 1196
GlyphClass: 2
Flags: HW
HStem: 278 187<397.396 476.48 649.28 775.171>
VStem: 80 168<623.609 1056.25> 476.48 170.8<43.6084 285 471 1280 1477 1720.24>
LayerCount: 3
Fore
SplineSet
579.280273438 1740 m 0
 632.613606771 1740 658.946940105 1703 658.280273438 1629 c 0
 657.613606771 1578.33333333 657.280273438 1527.66666667 657.280273438 1477 c 1
 705.280273438 1476.33333333 745.613606771 1469.33333333 778.280273438 1456 c 0
 864.946940105 1418.66666667 920.946940105 1389.33333333 946.280273438 1368 c 0
 1014.94694011 1311.33333333 1033.94694011 1260.66666667 1003.28027344 1216 c 0
 966.613606772 1164.66666667 918.946940105 1160 860.280273438 1202 c 0
 770.946940105 1266 710.280273438 1299.66666667 678.280273438 1303 c 0
 667.280273438 1304 667.280273438 1304 656.280273438 1305 c 1
 649.280273438 465 l 1
 698.613606771 472.333333333 741.946940105 487.666666667 779.280273438 511 c 0
 870.613606771 567.666666667 928.280273438 597.666666667 952.280273438 601 c 0
 1027.61360677 610.333333333 1057.94694011 573 1043.28027344 489 c 0
 1035.28027344 455 971.613606773 406.666666667 852.280273438 344 c 0
 783.613606771 308 715.280273438 286 647.280273438 278 c 1
 646.280273438 160 l 2
 645.613606771 74 618.613606771 31.6666666667 565.280273438 33 c 0
 504.159830729 33.6666666667 473.919596354 76.6666666667 474.559570312 162 c 0
 475.199544271 203.333333333 475.83984375 244.333333333 476.48046875 285 c 1
 360 309 259.506510417 372.333333333 175 475 c 0
 111.666666667 550.333333333 80 683.333333333 80 874 c 0
 80 1006 115 1123.66666667 185 1227 c 0
 268.600260417 1353 369.360351563 1430 487.280273438 1458 c 1
 489.280273438 1628 l 2
 489.946940105 1702 519.946940105 1739.33333333 579.280273438 1740 c 0
485.280273438 1280 m 1
 419.253580729 1245.33333333 367.040364583 1195.66666667 328.640625 1131 c 0
 274.880208333 1039 248 942.666666667 248 842 c 0
 248 732.666666667 267.83984375 651.333333333 307.51953125 598 c 0
 356.16015625 532 413.013671875 489.666666667 478.080078125 471 c 1
 480.213541667 740.333333333 482.613606771 1010 485.280273438 1280 c 1
EndSplineSet
Validated: 33
EndChar

StartChar: sterling
Encoding: 163 163 101
Width: 1229
GlyphClass: 2
Flags: HW
HStem: -150 180<614.568 876.029> 718 176<37.6992 286.874 416.153 814.283>
VStem: 286.874 114.56<897 1257.2> 937.107 174<90.6836 290.698>
LayerCount: 3
Fore
SplineSet
284.953125 924 m 0
 276.419921875 1104.66666667 306.286783854 1265.66666667 374.553710938 1407 c 0
 435.140299479 1532.33333333 515.353515625 1599.33333333 615.193359375 1608 c 0
 756.847005208 1620 862.818359375 1568 933.107421875 1452 c 0
 987.774088545 1377.33333333 1003.77408854 1321.33333333 981.107421875 1284 c 0
 951.774088542 1236 916.440755208 1217.66666667 875.107421875 1229 c 0
 860.124348958 1234.33333333 840.686197917 1269.33333333 816.79296875 1334 c 0
 789.913411458 1407.33333333 727.193359375 1440.66666667 628.6328125 1434 c 0
 501.059895833 1426.66666667 425.540364583 1293.66666667 402.07421875 1035 c 0
 398.66015625 999 398.446614583 953 401.43359375 897 c 1
 755.993164062 904 l 2
 800.793294271 904.666666667 823.193359375 874.666666667 823.193359375 814 c 0
 823.193359375 756.666666667 802.073242187 727.666666667 759.833007812 727 c 0
 645.486653645 725 530.926757812 723 416.153320312 721 c 1
 424.260091145 647 435.567057291 562.666666667 450.07421875 468 c 0
 464.580078125 372 457.326497395 263.666666667 428.313476562 143 c 1
 440.687174479 145.666666667 451.140625 146.666666667 459.673828125 146 c 0
 498.927083334 141.333333333 550.553710938 117.333333333 614.553710938 74 c 0
 661.060221354 42.6666666667 709.2734375 28 759.193359375 30 c 0
 815.513671875 32.6666666667 858.818359375 51.3333333333 889.107421875 86 c 0
 908.440755208 102.666666667 924.440755208 150.666666667 937.107421875 230 c 0
 946.440755208 282.666666667 977.774088543 306 1031.10742188 300 c 0
 1089.77408855 293.333333333 1116.44075521 258.666666667 1111.10742188 196 c 0
 1102.44075521 83.3333333333 1066.44075521 1.33333333333 1003.10742188 -50 c 0
 917.107421877 -120.666666667 833.669270833 -154 752.79296875 -150 c 0
 698.180338542 -147.333333333 649.113932292 -130.666666667 605.59375 -100 c 0
 536.046875 -51.3333333333 474.393229167 -29.3333333333 420.6328125 -34 c 0
 398.446614583 -36 371.353515625 -49.6666666667 339.353515625 -75 c 0
 268.620442708 -123.666666667 221.920572917 -121.333333333 199.25390625 -68 c 0
 184.587239583 -33.3333333333 187.920572917 -3.66666666667 209.25390625 21 c 0
 215.920572917 31 225.587239583 41.6666666667 238.25390625 53 c 0
 329.973307291 169 360.259765625 331.333333333 329.11328125 540 c 0
 319.300130209 606 310.980143229 666 304.153320312 720 c 1
 250.220377604 719.333333333 190.587239583 718.666666667 125.25390625 718 c 0
 57.9205729167 717.333333333 24.9205729167 745.666666667 26.25390625 803 c 0
 28.25390625 863 62.9205729167 893.333333333 130.25390625 894 c 0
 184.920572917 894.666666667 237.127278646 895 286.874023438 895 c 1
 286.020507813 905 285.380208333 914.666666667 284.953125 924 c 0
EndSplineSet
Validated: 33
EndChar

StartChar: currency
Encoding: 164 164 102
Width: 1100
GlyphClass: 2
Flags: HW
HStem: 396 207<455.232 593.692> 908 209<456.965 593.094>
VStem: 214.184 213<626.158 882.987> 623.023 201<627.281 881.812>
LayerCount: 3
Fore
SplineSet
527.0234375 908 m 0
 525.743164062 908 525.743164062 908 525.103515625 908 c 0
 508.463541667 908 492.889973959 901.666666667 478.3828125 889 c 0
 463.0234375 876.333333333 450.863606771 858.333333333 441.903320312 835 c 0
 432.090169271 810.333333333 427.18359375 783.666666667 427.18359375 755 c 0
 427.18359375 728.333333333 430.809895833 704.666666667 438.0625 684 c 0
 446.169270833 660 456.8359375 641.333333333 470.0625 628 c 0
 482.436197917 614.666666667 497.796549479 606.333333333 516.143554688 603 c 0
 519.129882813 602.333333333 521.902994792 602.333333333 524.462890625 603 c 0
 540.25 603 554.543619792 607.666666667 567.34375 617 c 0
 580.5703125 627 591.876627604 641.333333333 601.262695312 660 c 0
 612.782877604 682.666666667 619.822916667 708.333333333 622.3828125 737 c 0
 622.809895833 743 623.0234375 749 623.0234375 755 c 0
 623.0234375 777.666666667 619.823242187 799.333333333 613.422851562 820 c 0
 605.316080729 846 593.796223958 867 578.86328125 883 c 0
 563.503255209 899 546.223307292 907.333333333 527.0234375 908 c 0
98.18359375 1290 m 0
 147.516927083 1334 194.18359375 1331.33333333 238.18359375 1282 c 2
 420.18359375 1081 l 2
 422.18359375 1082.33333333 424.18359375 1083.33333333 426.18359375 1084 c 0
 457.143229167 1105.33333333 489.049804687 1116.33333333 521.903320312 1117 c 0
 525.743164063 1117 529.796223959 1116.66666667 534.0625 1116 c 0
 568.623046875 1113.33333333 602.276692708 1099 635.0234375 1073 c 1
 824.0234375 1282 l 2
 868.0234375 1331.33333333 914.690104167 1334 964.0234375 1290 c 0
 1012.69010417 1246.66666667 1014.69010417 1200.66666667 970.0234375 1152 c 2
 775.0234375 938 l 1
 778.356770833 932.666666667 781.690104167 927 785.0234375 921 c 0
 811.690104167 869.666666667 824.690104167 814.666666667 824.0234375 756 c 0
 824.0234375 748 824.0234375 748 824.0234375 739 c 0
 821.356770833 677.666666667 804.0234375 621.333333333 772.0234375 570 c 1
 952.0234375 370 l 2
 1010.0234375 306 1016.35677083 251.666666667 971.0234375 207 c 0
 925.0234375 161.666666667 872.690104167 171.333333333 814.0234375 236 c 2
 632.0234375 437 l 1
 624.31640625 432.333333333 617.4765625 428.333333333 611.50390625 425 c 0
 582.490234375 405.666666667 552.409830729 396 521.262695312 396 c 0
 506.329752604 396 491.396484375 398.333333333 476.462890625 403 c 0
 458.116536458 408.333333333 440.356770833 417 423.18359375 429 c 1
 248.18359375 236 l 2
 189.516927083 171.333333333 137.18359375 161.666666667 91.18359375 207 c 0
 45.8502604167 251.666666667 52.18359375 306 110.18359375 370 c 2
 276.18359375 554 l 1
 248.18359375 595.333333333 229.516927083 641.333333333 220.18359375 692 c 0
 216.18359375 712.666666667 214.18359375 733.333333333 214.18359375 754 c 0
 214.18359375 798 221.850260417 841 237.18359375 883 c 0
 246.516927083 908.333333333 258.516927083 932 273.18359375 954 c 1
 92.18359375 1152 l 2
 47.5169270833 1200.66666667 49.5169270833 1246.66666667 98.18359375 1290 c 0
EndSplineSet
Validated: 33
EndChar

StartChar: yen
Encoding: 165 165 103
Width: 1110
GlyphClass: 2
Flags: HW
HStem: 307 165<240.737 459.674 619.674 853.684> 535 165<240.737 421.914 652.313 853.684>
VStem: 459.674 160<-48.3643 307 472 535>
LayerCount: 3
Fore
SplineSet
129.293945312 1443 m 0
 171.960611979 1466.33333333 205.960611979 1457.33333333 231.293945312 1416 c 2
 535.673828125 782 l 1
 842.93359375 1416 l 2
 868.266927083 1457.33333333 902.266927083 1466.33333333 944.93359375 1443 c 0
 988.93359375 1419 998.93359375 1386 974.93359375 1344 c 2
 652.313476562 700 l 1
 750.93359375 700 l 2
 821.600260417 700 858.93359375 673.666666667 862.93359375 621 c 0
 866.93359375 563.666666667 833.600260417 535 762.93359375 535 c 2
 619.673828125 535 l 1
 619.673828125 472 l 1
 750.93359375 472 l 2
 821.600260417 472 858.93359375 445.666666667 862.93359375 393 c 0
 866.93359375 335.666666667 833.600260417 307 762.93359375 307 c 2
 619.673828125 307 l 1
 619.673828125 171 619.673828125 171 619.673828125 35 c 0
 619.673828125 -25 594.340494792 -55 543.673828125 -55 c 0
 487.673828125 -55.6666666667 459.673828125 -26 459.673828125 34 c 2
 459.673828125 307 l 1
 336.79296875 307 l 2
 265.126953125 307 229.960611979 333.666666667 231.293945312 387 c 0
 232.627278645 443.666666667 268.647135416 472 339.353515625 472 c 2
 459.673828125 472 l 1
 459.673828125 535 l 1
 336.79296875 535 l 2
 265.126953125 535 229.960611979 561.666666667 231.293945312 615 c 0
 232.627278645 671.666666667 268.647135416 700 339.353515625 700 c 2
 421.9140625 700 l 1
 99.2939453125 1344 l 2
 75.2939453125 1386 85.2939453123 1419 129.293945312 1443 c 0
EndSplineSet
Validated: 33
EndChar

StartChar: brokenbar
Encoding: 166 166 104
Width: 690
GlyphClass: 2
Flags: HW
HStem: -43 21G<254.26 329.76>
VStem: 213.76 151<-37.2849 749.88 904.715 1691.88>
LayerCount: 3
Fore
SplineSet
288.759765625 754 m 128
 338.759765625 754 363.759765625 729 363.759765625 679 c 2
 364.759765625 38 l 2
 364.759765625 -16 341.426432292 -43 294.759765625 -43 c 0
 240.759765625 -43 213.759765625 -16 213.759765625 38 c 2
 213.759765625 679 l 2
 213.759765625 729 238.759765625 754 288.759765625 754 c 128
288.759765625 1696 m 128
 338.759765625 1696 363.759765625 1671 363.759765625 1621 c 2
 364.759765625 980 l 2
 364.759765625 926 341.426432292 899 294.759765625 899 c 0
 240.759765625 899 213.759765625 926 213.759765625 980 c 2
 213.759765625 1621 l 2
 213.759765625 1671 238.759765625 1696 288.759765625 1696 c 128
EndSplineSet
Validated: 1
EndChar

StartChar: section
Encoding: 167 167 105
Width: 1047
GlyphClass: 2
Flags: HW
LayerCount: 3
Fore
SplineSet
363.673828125 1012 m 1
 335.194010416 964 323.887369791 918.666666667 329.75390625 876 c 0
 338.287109375 806.666666667 366.873697917 754.666666667 415.513671875 720 c 0
 434.287109375 706.666666667 489.326822917 681 580.6328125 643 c 0
 605.806640625 632.333333333 629.727213542 621 652.39453125 609 c 1
 677.061197917 645.666666667 686.061197917 673.333333333 679.39453125 692 c 0
 658.061197917 747.333333333 619.380859375 801.333333333 563.353515625 854 c 0
 501.060546875 915.333333333 461.380533854 951.333333333 444.313476562 962 c 0
 414.873372395 981.333333333 390.126953125 1000.66666667 370.07421875 1020 c 1
 363.673828125 1012 l 1
790.39453125 512 m 1
 858.39453125 412 888.727864583 326.333333333 881.39453125 255 c 0
 870.727864583 149 828.727864583 68 755.39453125 12 c 0
 680.727864583 -45.3333333333 592.180989583 -74.3333333333 489.75390625 -75 c 0
 412.953776042 -75.6666666667 344.687174479 -59.3333333333 284.954101562 -26 c 0
 231.620768229 -4 186.287434895 23.3333333333 148.954101562 56 c 0
 96.9541015623 102 72.9541015625 147.333333333 76.9541015625 192 c 0
 80.2874348958 225.333333333 98.620768229 245.333333333 131.954101562 252 c 0
 175.954101562 262 217.954101562 247 257.954101562 207 c 0
 307.953450521 153.666666667 352.579752604 120 391.833007812 106 c 0
 455.833007812 84.6666666667 507.459960937 78.6666666667 546.713867188 88 c 0
 607.300455729 103.333333333 650.194010417 135.666666667 675.39453125 185 c 0
 726.727864583 283.666666667 707.940755208 365 619.033203125 429 c 0
 584.046875 465.666666667 508.313476563 509.333333333 391.833007812 560 c 0
 291.913736979 595.333333333 222.287434895 659 182.954101562 751 c 0
 150.287434895 828.333333333 145.620768229 910.666666667 168.954101562 998 c 0
 183.620768229 1052.66666667 218.954101562 1101.66666667 274.954101562 1145 c 1
 239.620768229 1199.66666667 220.954101562 1249.66666667 218.954101562 1295 c 0
 214.954101562 1400.33333333 254.874023437 1488.33333333 338.713867188 1559 c 0
 382.659830729 1613.66666667 430.873046875 1641.33333333 483.353515625 1642 c 0
 552.900390625 1642.66666667 612.247395833 1628.66666667 661.39453125 1600 c 0
 714.727864583 1578 760.061197917 1550.66666667 797.39453125 1518 c 0
 849.39453125 1472 873.39453125 1426.66666667 869.39453125 1382 c 0
 866.061197917 1348.66666667 847.727864583 1328.66666667 814.39453125 1322 c 0
 772.39453125 1312.66666667 730.39453125 1327.66666667 688.39453125 1367 c 0
 640.447265625 1418.33333333 604.740234375 1449.66666667 581.2734375 1461 c 0
 547.140625 1478.33333333 506.607421875 1476 459.673828125 1454 c 0
 417.007161458 1434.66666667 390.553710937 1400.66666667 380.313476562 1352 c 0
 368.366861979 1298.66666667 387.780273438 1239.66666667 438.553710938 1175 c 0
 468.420247396 1137.66666667 520.900065104 1095.66666667 595.993164062 1049 c 0
 682.927408854 1008.33333333 758.061197917 946.333333333 821.39453125 863 c 0
 886.061197917 777 900.39453125 692 864.39453125 608 c 0
 853.061197917 578.666666667 828.39453125 546.666666667 790.39453125 512 c 1
EndSplineSet
Validated: 33
EndChar

StartChar: dieresis
Encoding: 168 168 106
Width: 976
GlyphClass: 2
Flags: HW
HStem: 1186 184<154.785 370.873 568.171 784.26>
VStem: 142.08 241<1201.66 1354.65> 555.467 241<1201.66 1354.65>
LayerCount: 3
Fore
SplineSet
673.466796875 1370 m 0
 755.466796875 1370 796.466796875 1339 796.466796875 1277 c 0
 796.466796875 1216.33333333 754.800130208 1186 671.466796875 1186 c 0
 594.133463542 1186 555.466796875 1215.33333333 555.466796875 1274 c 0
 555.466796875 1338 594.800130208 1370 673.466796875 1370 c 0
260.080078125 1370 m 0
 342.080078125 1370 383.080078125 1339 383.080078125 1277 c 0
 383.080078125 1216.33333333 341.413411458 1186 258.080078125 1186 c 0
 180.746744792 1186 142.080078125 1215.33333333 142.080078125 1274 c 0
 142.080078125 1338 181.413411458 1370 260.080078125 1370 c 0
EndSplineSet
Validated: 1
EndChar

StartChar: copyright
Encoding: 169 169 107
Width: 1206
GlyphClass: 2
Flags: HW
HStem: 216 191<449.51 719.315> 1452 177<450.256 719.063>
VStem: 63.3604 187<676.054 1174.56> 359.16 114.561<786.391 1102.82> 918.521 182<676.521 1172.7>
LayerCount: 3
Fore
SplineSet
699 800 m 0
 734.413411459 841.333333333 762.573242188 836 783.479492188 784 c 0
 799.266601563 744.666666667 786.466796875 697.666666667 745.080078125 643 c 0
 698.573567708 580.333333333 646.946940104 551.333333333 590.200195312 556 c 0
 503.159830729 562.666666667 441.933268229 610.666666667 406.520507812 700 c 0
 374.946940104 780.666666667 359.16015625 851 359.16015625 911 c 0
 359.16015625 1013 374.093424479 1097.33333333 403.959960938 1164 c 0
 435.959960938 1236 479.693359375 1283.33333333 535.16015625 1306 c 0
 585.93359375 1327.33333333 630.093424479 1325.33333333 667.639648438 1300 c 0
 719.693684896 1266 754.893880208 1229 773.240234375 1189 c 0
 793.293619792 1145 793.293619792 1104 773.240234375 1066 c 0
 751.479817708 1026 717.986328125 1035.33333333 672.759765625 1094 c 0
 636.067057292 1142 598.947265625 1156 561.400390625 1136 c 0
 519.586588542 1114 494.83984375 1082 487.16015625 1040 c 0
 477.7734375 989.333333333 473.293619792 950.666666667 473.720703125 924 c 0
 475 887.333333333 483.319661459 852.666666667 498.6796875 820 c 0
 525.133463541 763.333333333 555.427083333 732.333333333 589.560546875 727 c 0
 618.573567708 723.666666667 655.053385417 748 699 800 c 0
585.080078125 1452 m 2
 584.439453125 1452 l 2
 527.266276042 1452 472.439778646 1429.66666667 419.959960938 1385 c 0
 367.053059896 1339.66666667 325.879557292 1278 296.439453125 1200 c 0
 266.999348958 1121.33333333 251.639648437 1035.66666667 250.360351562 943 c 0
 250.360351562 936 250.360351562 936 250.360351562 930 c 0
 250.360351562 842.666666667 263.373697916 760.666666667 289.400390625 684 c 0
 319.266927083 598.666666667 359.16015625 531.666666667 409.080078125 483 c 0
 457.720052083 435 514.040039062 410 578.040039062 408 c 0
 580.173502604 408 582.306640625 407.666666667 584.439453125 407 c 0
 642.893229167 407 697.506510417 429.333333333 748.279296875 474 c 0
 801.186197917 520 842.786458334 584 873.080078125 666 c 0
 903.373697916 747.333333333 918.520507812 835.333333333 918.520507812 930 c 0
 918.520507812 1022.66666667 903.800455729 1109 874.360351562 1189 c 0
 843.639648437 1272.33333333 803.319661458 1336.66666667 753.400390625 1382 c 0
 701.7734375 1428.66666667 645.666666667 1452 585.080078125 1452 c 2
574.83984375 1629 m 0
 578.6796875 1629 578.6796875 1629 582.520507812 1629 c 0
 655.480143229 1629 725.453125 1602.33333333 792.439453125 1549 c 0
 861.986328125 1493 926.013346354 1415 984.520507812 1315 c 0
 1049.85384114 1215 1087.85384114 1104.66666667 1098.52050781 984 c 0
 1100.52050781 964 1101.18717448 943.666666667 1100.52050781 923 c 0
 1100.52050781 821.666666667 1080.85384114 727 1041.52050781 639 c 0
 1011.52050781 574.333333333 976.853841145 517.333333333 937.520507812 468 c 0
 909.493164063 421.333333333 875.212890625 377.333333333 834.6796875 336 c 0
 761.720052083 259.333333333 681.293619792 219.333333333 593.400390625 216 c 0
 588.279296875 216 588.279296875 216 583.16015625 216 c 0
 502.520182291 216 424.440104166 250 348.919921875 318 c 0
 310.520182292 352.666666667 277.000325521 394.666666667 248.360351562 444 c 0
 201.693684895 497.333333333 164.360351562 552.333333333 136.360351562 609 c 0
 87.6936848957 707.666666667 63.3603515625 812.333333333 63.3603515625 923 c 0
 63.3603515625 938 63.3603515625 938 63.3603515625 953 c 0
 69.3603515625 1080.33333333 102.693684896 1193 163.360351562 1291 c 0
 226.053710937 1395.66666667 290.466796875 1478 356.599609375 1538 c 0
 422.306640625 1596.66666667 495.053385417 1627 574.83984375 1629 c 0
EndSplineSet
Validated: 33
EndChar

StartChar: ordfeminine
Encoding: 170 170 108
Width: 911
GlyphClass: 2
Flags: HW
VStem: 88.4629 177<1147.36 1440.78> 501.914 188.986<1143.02 1510.79>
LayerCount: 3
Fore
SplineSet
359.193359375 918 m 0
 187.373046875 931.333333333 97.1295572917 1048.33333333 88.462890625 1269 c 0
 83.7962239583 1401 120.129557292 1512 197.462890625 1602 c 0
 275.462890625 1692 380.146484375 1721 511.513671875 1689 c 1
 529.771484375 1705.66666667 559.233723958 1709.33333333 599.900390625 1700 c 0
 667.900390625 1684.66666667 700.233723958 1633 696.900390625 1545 c 0
 694.233723958 1473 692.233723958 1395.33333333 690.900390625 1312 c 0
 688.900390625 1188 699.567057292 1106.33333333 722.900390625 1067 c 0
 779.567057292 969.666666667 771.567057292 913.666666667 698.900390625 899 c 0
 615.567057292 881.666666667 567.233723958 917 553.900390625 1005 c 1
 480.842447916 940.333333333 415.940104166 911.333333333 359.193359375 918 c 0
419.993164062 1126 m 0
 460.526367187 1140.66666667 487.833333333 1160.66666667 501.9140625 1186 c 1
 494.874023438 1484 l 1
 473.540690105 1511.33333333 441.75390625 1521 399.513671875 1513 c 0
 364.100260417 1506.33333333 330.416666667 1477.33333333 298.462890625 1426 c 0
 271.129557292 1388.66666667 260.129557292 1335.33333333 265.462890625 1266 c 0
 270.796223958 1193.33333333 292.796223958 1148.33333333 331.462890625 1131 c 0
 355.0703125 1115 384.580403646 1113.33333333 419.993164062 1126 c 0
EndSplineSet
Validated: 33
EndChar

StartChar: logicalnot
Encoding: 172 172 110
Width: 795
GlyphClass: 2
Flags: HW
HStem: 561 172<40.2417 563.354>
VStem: 563.354 173<255.997 561>
LayerCount: 3
Fore
SplineSet
31.36328125 646 m 0
 30.6966145833 704 66.36328125 733 138.36328125 733 c 2
 597.353515625 733 l 2
 688.686848958 733 734.686848958 704 735.353515625 646 c 0
 735.353515625 643 735.353515625 643 735.353515625 641 c 0
 736.020182292 637 736.353515625 632.666666667 736.353515625 628 c 2
 736.353515625 334 l 2
 736.353515625 277.333333333 710.020182292 248.666666667 657.353515625 248 c 0
 594.686848958 247.333333333 563.353515625 275.333333333 563.353515625 332 c 2
 563.353515625 561 l 1
 127.36328125 561 l 2
 64.0299479167 561 32.0299479167 589.333333333 31.36328125 646 c 0
EndSplineSet
Validated: 33
EndChar

StartChar: registered
Encoding: 174 174 112
Width: 1233
GlyphClass: 2
Flags: HW
HStem: 216 191<454.418 745.875> 1452 177<455.829 745.623>
VStem: 63.3604 187<676.054 1174.56> 430.84 132.8<543.441 866> 457.24 116.64<989.922 1183> 670.521 104.319<998.922 1173.87> 945.08 182<676.521 1172.7>
LayerCount: 3
Fore
SplineSet
582.200195312 1183 m 1
 573.879882812 992 l 1
 605.026367187 987.333333333 626.999674479 988.666666667 639.799804688 996 c 0
 658.999674479 1007.33333333 669.239908854 1038.33333333 670.520507812 1089 c 0
 671.799804687 1141 659.639648437 1169 634.040039062 1173 c 2
 582.200195312 1183 l 1
706.360351562 1304 m 0
 746.893554687 1257.33333333 769.720052083 1199.33333333 774.83984375 1130 c 0
 778.253255209 1082 777.61328125 1043.33333333 772.919921875 1014 c 0
 761.399739584 948 730.466471355 903.333333333 680.120117188 880 c 1
 758.83984375 712 l 2
 793.400390625 638.666666667 793.400390625 586.666666667 758.83984375 556 c 0
 731.106119791 532 701.026041666 559 668.599609375 637 c 2
 573.879882812 865 l 2
 573.452799479 863.666666667 572.599609375 864 571.3203125 866 c 2
 563.639648438 646 l 2
 560.439778646 573.333333333 539.373372396 537.666666667 500.440429688 539 c 0
 451.480143229 540.333333333 428.279947917 576.666666667 430.83984375 648 c 2
 457.240234375 1250 l 2
 459.373697917 1302.66666667 483.906901042 1333.66666667 530.83984375 1343 c 0
 609.026692709 1361 667.533528646 1348 706.360351562 1304 c 0
601.399414062 1629 m 0
 605.239257812 1629 605.239257812 1629 609.080078125 1629 c 0
 682.040364583 1629 752.013671875 1602.33333333 819 1549 c 0
 888.546875 1493 952.573567707 1415 1011.08007812 1315 c 0
 1076.41341145 1215 1114.41341145 1104.66666667 1125.08007812 984 c 0
 1127.08007812 964 1127.74674479 943.666666667 1127.08007812 923 c 0
 1127.08007812 821.666666667 1107.41341145 727 1068.08007812 639 c 0
 1038.08007812 574.333333333 1003.41341146 517.333333333 964.080078125 468 c 0
 936.053385416 421.333333333 901.773111979 377.333333333 861.239257812 336 c 0
 788.279622396 259.333333333 707.853190105 219.333333333 619.959960938 216 c 0
 614.83984375 216 614.83984375 216 609.719726562 216 c 0
 516.599934895 216 429.666666666 250 348.919921875 318 c 0
 310.520182292 352.666666667 277.000325521 394.666666667 248.360351562 444 c 0
 201.693684895 497.333333333 164.360351562 552.333333333 136.360351562 609 c 0
 87.6936848957 707.666666667 63.3603515625 812.333333333 63.3603515625 923 c 0
 63.3603515625 938 63.3603515625 938 63.3603515625 953 c 0
 69.3603515625 1080.33333333 102.693684896 1193 163.360351562 1291 c 0
 226.053710937 1395.66666667 290.466796875 1478 356.599609375 1538 c 0
 426.360026042 1596.66666667 507.959960937 1627 601.399414062 1629 c 0
611.639648438 1452 m 2
 611 1452 l 2
 547.426432292 1452 483.746419271 1429.66666667 419.959960938 1385 c 0
 367.053059896 1339.66666667 325.879557292 1278 296.439453125 1200 c 0
 266.999348958 1121.33333333 251.639648437 1035.66666667 250.360351562 943 c 0
 250.360351562 936 250.360351562 936 250.360351562 930 c 0
 250.360351562 842.666666667 263.373697916 760.666666667 289.400390625 684 c 0
 319.266927083 598.666666667 359.16015625 531.666666667 409.080078125 483 c 0
 466.253255208 435 531.426432292 410 604.599609375 408 c 0
 606.733072917 408 608.866536459 407.666666667 611 407 c 0
 669.453776041 407 724.067057291 429.333333333 774.83984375 474 c 0
 827.746744791 520 869.346679687 584 899.639648438 666 c 0
 929.933268229 747.333333333 945.080078125 835.333333333 945.080078125 930 c 0
 945.080078125 1022.66666667 930.360026042 1109 900.919921875 1189 c 0
 870.199869792 1272.33333333 829.879882813 1336.66666667 779.959960938 1382 c 0
 728.333658854 1428.66666667 672.226888021 1452 611.639648438 1452 c 2
EndSplineSet
Validated: 33
EndChar

StartChar: overscore
Encoding: 175 175 113
Width: 987
GlyphClass: 2
Flags: HW
HStem: 1702 185<-22.4004 1023.67>
LayerCount: 3
Fore
SplineSet
1023.66699219 1887 m 1
 1023.66699219 1702 l 1
 -22.400390625 1702 l 1
 -22.400390625 1887 l 1
 1023.66699219 1887 l 1
EndSplineSet
Validated: 1
EndChar

StartChar: degree
Encoding: 176 176 114
Width: 734
GlyphClass: 2
Flags: HW
HStem: 978 147<263.328 443.859> 1531 149<263.334 442.769>
VStem: 43.5205 144<1201.55 1454.16> 518.107 151<1200.51 1455.88>
LayerCount: 3
Fore
SplineSet
278 1469.04003906 m 1
 216 1424.4000651 189.19140625 1372.55501302 197.57421875 1313.50488281 c 0
 222.200195312 1221.66015625 l 0
 240.180013021 1203.05989583 258.159830729 1184.45996093 276.139648438 1165.86035156 c 1
 295.683919271 1148.27050781 334.744140625 1145.1702474 393.3203125 1156.55957031 c 0
 415.639973959 1160.9000651 443.539713542 1181.98014323 477.01953125 1219.79980469 c 0
 501.819661458 1248.31998698 516.11328125 1274.66992187 519.900390625 1298.84960938 c 0
 527.2734375 1342.86979167 508.639973959 1390.91992187 464 1443 c 1
 400.759765625 1498.80013021 338.759765625 1507.48014323 278 1469.04003906 c 1
350.233398438 1680 m 0
 353.43359375 1680 353.43359375 1680 355.993164062 1680 c 0
 398.233398437 1680 446.938151042 1662.66666667 502.107421875 1628 c 0
 561.440755208 1592 605.774088542 1542.66666667 635.107421875 1480 c 0
 657.774088542 1432 669.107421875 1381.66666667 669.107421875 1329 c 0
 669.107421875 1313.66666667 668.107421875 1298.33333333 666.107421875 1283 c 0
 656.107421875 1209.66666667 629.107421875 1149 585.107421875 1101 c 0
 558.440755208 1069.66666667 526.774088542 1043.66666667 490.107421875 1023 c 128
 453.440755208 1002.33333333 420.04296875 988.666666667 389.9140625 982 c 0
 378.8203125 979.333333333 367.940104167 978 357.2734375 978 c 0
 313.753255208 978 263.835611979 996 207.520507812 1032 c 0
 142.187174479 1073.33333333 95.5205078122 1130 67.5205078125 1202 c 0
 51.5205078125 1242.66666667 43.5205078125 1285.33333333 43.5205078125 1330 c 0
 43.5205078125 1361.33333333 47.5205078125 1392 55.5205078125 1422 c 0
 76.1871744792 1496.66666667 116.520507812 1557.66666667 176.520507812 1605 c 0
 237.187174479 1653 295.091471354 1678 350.233398438 1680 c 0
EndSplineSet
EndChar

StartChar: plusminus
Encoding: 177 177 115
Width: 894
GlyphClass: 2
Flags: HW
HStem: -111 163<64.7871 786.744> 557 179<55.623 343.914 521.914 797.913>
VStem: 341.914 180<238.593 557 736 1033.61>
LayerCount: 3
Fore
SplineSet
146.736328125 52 m 2
 680.787109375 54 l 2
 756.787109375 54 794.787109375 26.6666666667 794.787109375 -28 c 0
 794.787109375 -84 758.453776042 -112 685.787109375 -112 c 2
 137.736328125 -111 l 2
 84.4029947917 -111 57.736328125 -84.3333333333 57.736328125 -31 c 0
 58.4029947917 24.3333333333 88.0696614583 52 146.736328125 52 c 2
435.9140625 1044 m 0
 493.247395833 1043.33333333 521.9140625 1009.33333333 521.9140625 942 c 2
 521.9140625 736 l 1
 708.787109375 737 l 2
 775.453776042 737 808.787109375 707.333333333 808.787109375 648 c 0
 808.787109375 590.666666667 775.120442708 561.666666667 707.787109375 561 c 0
 637.787109375 560.333333333 575.829427083 559.666666667 521.9140625 559 c 1
 521.9140625 318 l 2
 521.9140625 258 491.9140625 228.666666667 431.9140625 230 c 0
 371.059895833 230.666666667 341.059895833 261.333333333 341.9140625 322 c 0
 342.580729167 400 343.247395833 478.333333333 343.9140625 557 c 1
 283.795572917 556.333333333 214.069661458 555.666666667 134.736328125 555 c 0
 74.736328125 554.333333333 45.4029947917 584 46.736328125 644 c 0
 46.736328125 704.666666667 77.0696614583 735 137.736328125 735 c 2
 344.9140625 736 l 1
 345.580729167 805.333333333 345.9140625 874.666666667 345.9140625 944 c 0
 345.9140625 1011.33333333 375.9140625 1044.66666667 435.9140625 1044 c 0
EndSplineSet
Validated: 33
EndChar

StartChar: twosuperior
Encoding: 178 178 116
Width: 1192
GlyphClass: 2
Flags: HW
HStem: 910 144<431.498 846.748>
LayerCount: 3
Fore
SplineSet
431.498046875 1054 m 1
 745.498046875 1061 l 2
 817.498046875 1062.33333333 853.498046875 1038.33333333 853.498046875 989 c 0
 853.498046875 936.333333333 817.498046875 910 745.498046875 910 c 2
 362.498046875 910 l 2
 277.831380208 910 240.831380208 952.666666667 251.498046875 1038 c 0
 266.164713542 1152.66666667 339.498046875 1245.33333333 471.498046875 1316 c 0
 595.498046875 1382.66666667 660.831380208 1437.66666667 667.498046875 1481 c 0
 677.498046875 1539 653.831380208 1578 596.498046875 1598 c 0
 554.498046875 1612.66666667 515.164713542 1609.66666667 478.498046875 1589 c 0
 444.498046875 1569.66666667 413.164713542 1540 384.498046875 1500 c 0
 355.164713542 1458.66666667 320.831380208 1448.66666667 281.498046875 1470 c 0
 232.831380208 1496 222.831380208 1531 251.498046875 1575 c 0
 292.164713542 1639 338.831380208 1686.33333333 391.498046875 1717 c 0
 435.498046875 1743 502.831380208 1751.33333333 593.498046875 1742 c 0
 659.498046875 1735.33333333 718.164713542 1703.33333333 769.498046875 1646 c 0
 808.164713542 1603.33333333 824.164713542 1543.33333333 817.498046875 1466 c 0
 808.164713542 1363.33333333 740.831380208 1278.33333333 615.498046875 1211 c 0
 494.164713542 1145 432.831380208 1092.66666667 431.498046875 1054 c 1
EndSplineSet
Validated: 33
EndChar

StartChar: threesuperior
Encoding: 179 179 117
Width: 1176
GlyphClass: 2
Flags: HW
HStem: 855 159<292.55 635.322> 1209 163<423.323 598.091> 1546 151<331.697 599.127>
VStem: 265.643 532
LayerCount: 3
Fore
SplineSet
760.642578125 1466 m 0
 759.309244792 1404.66666667 729.975911458 1349.66666667 672.642578125 1301 c 1
 755.975911458 1255 797.642578125 1182.33333333 797.642578125 1083 c 0
 797.642578125 1007 760.309244792 948 685.642578125 906 c 0
 614.309244792 866.666666667 541.975911458 849.666666667 468.642578125 855 c 0
 329.975911458 865.666666667 262.309244792 897.333333333 265.642578125 950 c 0
 270.309244792 1016.66666667 314.309244792 1038 397.642578125 1014 c 0
 444.309244792 1000.66666667 500.309244792 1001.66666667 565.642578125 1017 c 0
 624.975911458 1031 652.642578125 1060.66666667 648.642578125 1106 c 0
 643.309244792 1173.33333333 606.975911458 1207.66666667 539.642578125 1209 c 0
 445.642578125 1211 399.975911458 1237 402.642578125 1287 c 0
 405.309244792 1323.66666667 441.309244792 1352 510.642578125 1372 c 0
 601.309244792 1398 633.975911458 1437 608.642578125 1489 c 0
 576.642578125 1555 510.642578125 1574 410.642578125 1546 c 0
 357.309244792 1530.66666667 325.642578125 1541.66666667 315.642578125 1579 c 0
 298.309244792 1644.33333333 342.309244792 1683.66666667 447.642578125 1697 c 0
 533.642578125 1708.33333333 611.309244792 1688.33333333 680.642578125 1637 c 0
 735.975911458 1596.33333333 762.642578125 1539.33333333 760.642578125 1466 c 0
EndSplineSet
Validated: 33
EndChar

StartChar: acute
Encoding: 180 180 118
Width: 955
GlyphClass: 2
Flags: HW
LayerCount: 3
Fore
SplineSet
470 1523 m 4
 525.263020833 1481.18945313 529.614908854 1442.96940104 483.055664062 1408.33984375 c 6
 310.54296875 1280.03027344 l 6
 212.95703125 1207.84863281 132.762044271 1202.38867187 69.9580078125 1263.65039062 c 4
 81.3649088542 1252.51822917 118.602213542 1279.12272136 181.669921875 1343.46386719 c 6
 347.842773438 1512.99023438 l 6
 386.386393229 1552.42317709 427.10546875 1555.75976563 470 1523 c 4
EndSplineSet
EndChar

StartChar: mu1
Encoding: 181 181 119
Width: 864
GlyphClass: 2
Flags: HW
HStem: -18 231<380.546 570.742>
VStem: 18.2197 196<-388.651 -249.367> 731.477 197<889.413 1036.77>
LayerCount: 3
Fore
SplineSet
641.43359375 -77 m 0
 590.233072917 -77 568.046549479 -47 574.874023438 13 c 1
 541.166992187 -7.66666666667 503.193359375 -18 460.953125 -18 c 0
 387.139973959 -17.3333333333 330.393554688 4.33333333333 290.713867188 47 c 1
 214.219726562 -311 l 2
 198.219726562 -373 166.886393229 -404 120.219726562 -404 c 0
 34.886393229 -404 0.886393229167 -371 18.2197265625 -305 c 2
 194.219726562 378 l 1
 194.219726562 378 194.219726562 378 215.219726562 457 c 2
 306.07421875 929 l 2
 319.727213542 1011.66666667 338.927083334 1054.66666667 363.673828125 1058 c 0
 420.847005208 1066 443.033528646 1029 430.233398438 947 c 2
 363.673828125 510 l 2
 360.686848958 490.666666667 358.126627604 472.333333333 355.993164062 455 c 0
 355.993164062 445.666666667 355.139973958 435 353.43359375 423 c 0
 344.899739583 285.666666667 380.099609375 215.666666667 459.033203125 213 c 0
 533.2734375 210.333333333 588.100260417 252.666666667 623.513671875 340 c 1
 731.4765625 952 l 2
 748.809895833 1024.66666667 785.4765625 1060.66666667 841.4765625 1060 c 0
 916.809895833 1058 945.809895833 1021.33333333 928.4765625 950 c 2
 707.4765625 16 l 2
 693.314453125 -46 671.300130209 -77 641.43359375 -77 c 0
EndSplineSet
Validated: 33
EndChar

StartChar: paragraph
Encoding: 182 182 120
Width: 1355
GlyphClass: 2
Flags: HW
VStem: 40.96 804<915.29 1275> 610.96 197<-158.891 403.884> 987.96 197<-158.002 526.349> 1026.96 196<951.651 1623.3>
LayerCount: 3
Fore
SplineSet
1120.95996094 1635 m 0
 1190.29329427 1635 1224.29329427 1602 1222.95996094 1536 c 2
 1184.95996094 -66 l 2
 1182.29329427 -138.666666667 1145.62662761 -174.333333333 1074.95996094 -173 c 0
 1014.95996094 -171.666666667 985.959960938 -135.333333333 987.959960938 -64 c 2
 1026.95996094 1542 l 2
 1028.29329427 1604 1059.62662761 1635 1120.95996094 1635 c 0
742.959960938 1635 m 0
 812.293294271 1635 846.293294271 1602 844.959960938 1536 c 2
 807.959960938 -66 l 2
 805.959960938 -138.666666667 769.626627605 -174.333333333 698.959960938 -173 c 0
 638.959960938 -171.666666667 609.626627605 -135.333333333 610.959960938 -64 c 2
 621.959960938 399 l 1
 234.626627604 425.666666667 40.9599609375 624.333333333 40.9599609375 995 c 0
 40.9599609375 1421.66666667 274.959960938 1635 742.959960938 1635 c 0
EndSplineSet
Validated: 33
EndChar

StartChar: cedilla
Encoding: 184 184 122
Width: 1026
GlyphClass: 2
Flags: HW
HStem: -29 143<319.221 479.021>
LayerCount: 3
Fore
SplineSet
319.858398438 73 m 0
 326.619466146 99 348.619466146 112.666666667 385.858398438 114 c 0
 468.619466146 117.333333333 552.619466146 79.3333333333 637.858398438 0 c 0
 743.952799479 -98.6666666667 765.952799479 -211 703.858398438 -337 c 0
 676.619466146 -392.333333333 607.666666667 -423.666666667 497 -431 c 0
 426.333333333 -435.666666667 376 -423 346 -393 c 0
 298 -346 298 -346 250 -299 c 0
 220 -192 l 0
 262 -238 306.166666667 -272.333333333 352.5 -295 c 128
 398.833333333 -317.666666667 447.333333333 -322 498 -308 c 0
 553.344607784 -292.707411007 581.677941117 -262.707411007 583 -218 c 0
 584.333333333 -158 548.619466146 -109 475.858398438 -71 c 0
 439.952799479 -52.3333333333 404.619466146 -38.3333333333 369.858398438 -29 c 0
 321.952799479 -16.3333333333 305.286132813 17.6666666667 319.858398438 73 c 0
EndSplineSet
EndChar

StartChar: onesuperior
Encoding: 185 185 123
Width: 1180
GlyphClass: 2
Flags: HW
HStem: 903 132<260.155 455.64 606.64 805.854>
VStem: 455.64 151<1036 1506>
LayerCount: 3
Fore
SplineSet
612.639648438 1622 m 0
 609.306315105 1483.33333333 607.306315105 1287.66666667 606.639648438 1035 c 1
 657.639648438 1035 657.639648438 1035 707.639648438 1035 c 0
 776.306315105 1035 810.639648438 1014.66666667 810.639648438 974 c 0
 810.639648438 926.666666667 777.306315105 903 710.639648438 903 c 2
 347.639648438 903 l 2
 287.639648438 903 257.306315105 924.666666667 256.639648438 968 c 0
 256.639648438 1013.33333333 289.972981771 1036 356.639648438 1036 c 0
 405.639648438 1036 405.639648438 1036 455.639648438 1036 c 1
 457.639648438 1506 l 1
 431.639648438 1483 l 2
 374.972981771 1433 329.306315105 1424.33333333 294.639648438 1457 c 0
 251.972981771 1497.66666667 260.972981771 1539 321.639648438 1581 c 2
 441.639648438 1664 l 2
 504.306315105 1707.33333333 543.306315105 1727.33333333 558.639648438 1724 c 0
 595.972981771 1716 613.972981771 1682 612.639648438 1622 c 0
EndSplineSet
Validated: 33
EndChar

StartChar: ordmasculine
Encoding: 186 186 124
Width: 881
GlyphClass: 2
Flags: HW
HStem: 881 203<298.532 464.785> 1503 196<298.785 464.579>
VStem: 30.0801 202<1157.65 1427.72> 533.496 197<1160.54 1425.42>
LayerCount: 3
Fore
SplineSet
293.2734375 1676 m 0
 321.43359375 1691.33333333 350.66015625 1699 380.953125 1699 c 0
 396.739583333 1699 412.099609375 1697 427.033203125 1693 c 0
 480.008463542 1679.66666667 533.162760417 1649.66666667 586.49609375 1603 c 0
 642.49609375 1555 682.49609375 1497.66666667 706.49609375 1431 c 0
 721.162760417 1391.66666667 729.162760417 1344.66666667 730.49609375 1290 c 0
 731.162760417 1266.66666667 729.49609375 1243.66666667 725.49609375 1221 c 0
 712.829427083 1147 682.162760417 1081.33333333 633.49609375 1024 c 0
 586.829427083 968.666666667 530.595052083 928.333333333 464.79296875 903 c 0
 437.486328125 888.333333333 409.326497395 881 380.313476562 881 c 0
 361.966471354 881 344.046549479 884 326.553710938 890 c 0
 272.237955729 905.333333333 217.746744792 938.333333333 163.080078125 989 c 0
 110.413411458 1037.66666667 72.7467447917 1096 50.080078125 1164 c 0
 36.7467447917 1204.66666667 30.080078125 1247 30.080078125 1291 c 0
 30.080078125 1318.33333333 32.7467447917 1345.33333333 38.080078125 1372 c 0
 52.7467447917 1444.66666667 83.4134114583 1507 130.080078125 1559 c 0
 178.746744792 1613.66666667 233.14453125 1652.66666667 293.2734375 1676 c 0
382.874023438 1084 m 2
 407.620117187 1084 430.446614583 1094 451.353515625 1114 c 0
 472.686848958 1134.66666667 491.734375 1161.33333333 508.49609375 1194 c 0
 525.162760417 1224.66666667 533.49609375 1258 533.49609375 1294 c 0
 533.49609375 1296.66666667 533.162760417 1299.33333333 532.49609375 1302 c 0
 530.49609375 1342 519.49609375 1377.33333333 499.49609375 1408 c 0
 487.02734375 1430 473.11328125 1449.33333333 457.75390625 1466 c 0
 443.246744791 1481.33333333 427.246744791 1492 409.75390625 1498 c 0
 400.793619791 1501.33333333 391.620117187 1503 382.233398438 1503 c 0
 356.206705729 1503 332.100260417 1492 309.9140625 1470 c 0
 283.358072917 1444.66666667 261.746744792 1410.33333333 245.080078125 1367 c 0
 236.413411458 1343.66666667 232.080078125 1319 232.080078125 1293 c 0
 232.080078125 1273 234.746744792 1253.33333333 240.080078125 1234 c 0
 253.413411458 1189.33333333 273.91796875 1153 301.59375 1125 c 0
 325.059895833 1097.66666667 351.7265625 1084 381.59375 1084 c 2
 382.874023438 1084 l 2
EndSplineSet
Validated: 33
EndChar

StartChar: AE
Encoding: 198 198 136
Width: 1687
GlyphClass: 2
Flags: HW
HStem: -56 210<1035.63 1570.75> 721 215<716.953 849.434 1046.51 1520.54> 1301 210<1052.28 1629.63>
VStem: 836.633 199<154 721> 854.233 192.28<936 1185>
LayerCount: 3
Fore
SplineSet
817.151367188 1212 m 1
 479.208984375 557 l 1
 788.340820312 623 l 1
 817.151367188 1212 l 1
1063 1547 m 1
 1553.77148438 1551 l 1
 1647.92382813 1551 1692.45507813 1545.33333333 1687.36523438 1534 c 0
 1638.45507813 1414 1527.12174479 1349.33333333 1353.36523438 1340 c 0
 1238.45507813 1334 1136.66666667 1332.33333333 1048 1335 c 1
 1036 735 l 1
 1444.28515625 737 l 2
 1536.09505208 737.666666667 1581.78841146 734 1581.36523438 726 c 0
 1571.78259835 611.26373091 1480.44926501 550.597064243 1307.36523438 544 c 2
 1045 534 l 1
 1051 216 l 1
 1491.77148438 216 l 2
 1594.59049479 216 1640.45507813 206 1629.36523438 186 c 0
 1561.82811292 66.7367751317 1435.82811292 6.73677513175 1251.36523438 6 c 2
 1001 5 l 1
 988.537197951 6.3847557832 975.841367885 6.1833885592 962.9125098 4.39589832801 c 128
 949.983651715 2.60840809682 935.985796885 0.73230136248 920.918945312 -1.232421875 c 0
 824.769856771 -13.744140625 776.517740885 -0.301432291667 776.162597656 39.095703125 c 128
 775.807454427 78.4928385417 787.406901041 109.938151042 810.9609375 133.431640625 c 1
 808.020182292 146.51171875 806.018880209 161.367838541 804.95703125 178 c 2
 786.1328125 473 l 1
 379.287109375 368 l 1
 271.05078125 178 l 1
 258.256510417 70.6666666667 212.513671875 12.0989583333 133.822265625 2.296875 c 0
 -7.662109375 -15.234375 -78.9609375 0.666666666667 -80.07421875 50 c 0
 -81.203125 152.666666667 -34.6276041667 200.499674479 59.65234375 193.499023438 c 0
 63.548828125 193.222330729 67.4456380208 192.9453125 71.3427734375 192.66796875 c 1
 77.0003255208 205.503255209 84.03125 219.280598959 92.435546875 234 c 2
 800.95703125 1475 l 2
 864.323567709 1585.66666667 910.671223959 1641 940 1641 c 0
 962.258440587 1641 976.685189185 1609.14933294 983.280245794 1545.44799882 c 1
 1003 1548 l 1
 1015 1548 1025.16666667 1547.33333333 1033.5 1546 c 128
 1041.83333333 1544.66666667 1051.66666667 1545 1063 1547 c 1
EndSplineSet
EndChar

StartChar: Eth
Encoding: 208 208 146
Width: 1175
GlyphClass: 2
Flags: HW
HStem: -51 189<398.868 736.689> 583 200<-13.0806 634.897>
VStem: 199.868 199<138 696.99> 230.604 186.453<790.01 1290>
LayerCount: 3
Fore
SplineSet
322.604492188 1525 m 0
 338.604492188 1525 353.271158855 1523.33333333 366.604492188 1520 c 0
 374.604492188 1519.33333333 382.604492188 1518.33333333 390.604492188 1517 c 0
 547.760091146 1489.66666667 684.577799479 1398.33333333 801.057617188 1243 c 1
 1031.64160156 1021 1139.26692708 786.333333333 1123.93359375 539 c 0
 1113.93359375 358.333333333 1023.98763021 196 854.095703125 52 c 1
 801.018229167 -14.6666666667 697.859049479 -49.6666666667 544.618164062 -53 c 0
 454.728841146 -55 380.812174479 -54.3333333333 322.868164062 -51 c 0
 312.868164062 -53 301.201497395 -54 287.868164062 -54 c 0
 227.201497395 -52.6666666667 197.868164062 -17.6666666667 199.868164062 51 c 2
 211.668547288 582.733351525 l 1
 79.8681640625 583 l 2
 5.8681640625 583 -30.1318359375 615.333333333 -28.1318359375 680 c 0
 -26.1318359375 748.666666667 11.8681640625 783 85.8681640625 783 c 2
 216.112923765 783 l 1
 230.604492188 1436 l 2
 231.937825521 1495.33333333 262.604492188 1525 322.604492188 1525 c 0
405.884057651 582.340429528 m 1
 398.868164062 138 l 1
 536.913085938 135 l 1
 678.168294271 140.333333333 770.412434896 180.333333333 813.645507812 255 c 1
 879.837565104 355.666666667 915.93359375 453.666666667 921.93359375 549 c 0
 933.266927083 715 866.094726563 892.333333333 720.416992188 1081 c 1
 631.243815104 1211 530.124023437 1280.66666667 417.057617188 1290 c 1
 409.052363078 783 l 1
 572.577148438 783 l 2
 620.363606771 783 644.683919271 746.666666667 645.538085938 674 c 0
 645.889648438 612.666666667 622.094726563 582 574.153320312 582 c 2
 405.884057651 582.340429528 l 1
EndSplineSet
Validated: 37
EndChar

StartChar: multiply
Encoding: 215 215 153
Width: 835
GlyphClass: 2
Flags: HW
LayerCount: 3
Fore
SplineSet
90.181640625 973 m 0
 134.181640625 1007.66666667 178.848307292 1002.66666667 224.181640625 958 c 2
 383.513671875 757 l 1
 542.845703125 958 l 2
 588.845703125 1003.33333333 633.512369792 1008.33333333 676.845703125 973 c 0
 726.179036458 933.666666667 718.179036458 881.666666667 652.845703125 817 c 2
 465.845703125 631 l 1
 648.845703125 451 l 2
 710.845703125 390.333333333 720.179036458 337 676.845703125 291 c 0
 636.845703125 248.333333333 596.512369792 247.333333333 555.845703125 288 c 2
 383.513671875 504 l 1
 211.181640625 288 l 2
 170.514973958 247.333333333 130.181640625 248.333333333 90.181640625 291 c 0
 46.8483072917 337 56.181640625 390.333333333 118.181640625 451 c 2
 301.181640625 631 l 1
 114.181640625 817 l 2
 48.8483072917 881.666666667 40.8483072917 933.666666667 90.181640625 973 c 0
EndSplineSet
Validated: 33
EndChar

StartChar: Oslash
Encoding: 216 216 154
Width: 1263
GlyphClass: 2
Flags: HW
HStem: -63 206<463.427 736.072>
VStem: 99.4834 210<350.706 893.169> 964.202 201<551.182 1091.99>
LayerCount: 3
Fore
SplineSet
228.483398438 -48 m 2
 179.816731771 -100 130.816731771 -102 81.4833984375 -54 c 0
 36.1500651042 -10 38.1500651042 38 87.4833984375 90 c 2
 1047.20214844 1492 l 2
 1102.53548177 1550.66666667 1153.53548177 1561.66666667 1200.20214844 1525 c 0
 1253.53548177 1483.66666667 1253.53548177 1434.66666667 1200.20214844 1378 c 2
 228.483398438 -48 l 2
712.682617188 1313 m 0
 617.536132813 1323 534.976236979 1275.33333333 465.002929688 1170 c 0
 361.323242188 1014 309.483398438 815.666666667 309.483398438 575 c 0
 309.483398438 453.666666667 333.163085938 354.666666667 380.522460938 278 c 0
 435.989257813 188 510.869466146 143 605.163085938 143 c 0
 696.469726563 143 768.149414063 192 820.202148438 290 c 0
 914.496419271 466.666666667 962.496419271 662.666666667 964.202148438 878 c 0
 968.202148438 1150 884.362304688 1295 712.682617188 1313 c 0
705.002929688 1512 m 0
 1012.46907552 1507.33333333 1165.86881511 1296.33333333 1165.20214844 879 c 0
 1164.53548177 609.666666667 1088.57584636 378.333333333 937.323242188 185 c 0
 849.430013021 19.6666666667 738.709960938 -63 605.163085938 -63 c 0
 466.069335938 -63 345.509440105 11.3333333333 243.483398438 160 c 0
 147.483398438 266 99.4833984375 403.666666667 99.4833984375 573 c 0
 99.4833984375 837.666666667 180.36328125 1071.33333333 342.123046875 1274 c 0
 431.296223958 1435.33333333 552.256184896 1514.66666667 705.002929688 1512 c 0
EndSplineSet
Validated: 37
EndChar

StartChar: Thorn
Encoding: 222 222 160
Width: 858
GlyphClass: 2
Flags: HW
HStem: 385 190<260.062 483.888> 1158 175<286.062 496.901>
VStem: 64.0615 182<-9.1748 385> 106.062 180<1008.23 1160.21 1333 1615.76> 608.621 180<687.854 1044.3>
LayerCount: 3
Fore
SplineSet
210.061523438 1638 m 0
 264.994466146 1639.33333333 291.607747396 1588.66666667 289.901367188 1486 c 0
 288.620768229 1435.33333333 287.340820313 1384.33333333 286.061523438 1333 c 1
 626.434570313 1383 793.954427083 1211.33333333 788.62109375 818 c 0
 784.62109375 515.333333333 606.434570313 371 254.061523438 385 c 1
 255.394856771 384.333333333 252.728190105 287.333333333 246.061523438 94 c 0
 243.394856771 16 211.394856771 -23 150.061523438 -23 c 0
 90.0615234377 -23 61.3948567708 16 64.0615234375 94 c 2
 106.061523438 1482 l 2
 108.728190105 1584.66666667 143.394856771 1636.66666667 210.061523438 1638 c 0
280.061523438 1158 m 1
 260.061523438 575 l 1
 489.874674479 575.666666667 606.061197917 662.666666667 608.62109375 836 c 0
 612.62109375 1070 503.101236979 1177.33333333 280.061523438 1158 c 1
EndSplineSet
Validated: 33
EndChar

StartChar: germandbls
Encoding: 223 223 161
Width: 762
GlyphClass: 2
Flags: HW
VStem: 32.0684 194<-141.502 408.048> 64.0684 182<506.952 1260.39>
LayerCount: 3
Fore
SplineSet
108.068359375 -156 m 0
 54.7350260417 -151.333333333 29.4016927083 -105.333333333 32.068359375 -18 c 2
 64.068359375 933 l 2
 76.068359375 1308.33333333 163.614908854 1515.33333333 326.708007812 1554 c 0
 546.502929687 1609.33333333 667.733723958 1478.33333333 690.400390625 1161 c 0
 695.733723958 1089 627.836263021 976 486.708007812 822 c 1
 602.502929687 720 674.400390625 610 702.400390625 492 c 0
 745.733723958 312.666666667 743.067057292 177 694.400390625 85 c 0
 629.733723958 -36.3333333333 537.024414063 -89.3333333333 416.272460938 -74 c 0
 320.182617187 -59.3333333333 270.163736979 1.66666666667 266.215820312 109 c 0
 263.144205729 197 296.051106771 211 364.936523438 151 c 0
 422.853190105 100.333333333 470.674479167 102.333333333 508.400390625 157 c 0
 552.400390625 205.666666667 557.733723958 302 524.400390625 446 c 0
 501.733723958 540 451.196614583 629.333333333 372.7890625 714 c 0
 345.482421875 743.333333333 332.895507812 769.333333333 335.028320312 792 c 1
 329.481445312 831.333333333 342.921549479 872.333333333 375.348632812 915 c 0
 447.028320312 1011 484.148111979 1087 486.708007812 1143 c 0
 495.836263021 1286.33333333 470.663085937 1365.33333333 411.188476562 1380 c 0
 350.601888021 1396 305.375325521 1339 275.508789062 1209 c 0
 257.588867187 1132.33333333 247.775390625 1038.33333333 246.068359375 927 c 2
 226.068359375 -36 l 2
 223.401692708 -123.333333333 184.068359375 -163.333333333 108.068359375 -156 c 0
EndSplineSet
Validated: 33
EndChar

StartChar: eth
Encoding: 240 240 178
Width: 902
GlyphClass: 2
Flags: HW
LayerCount: 3
Fore
SplineSet
255.8359375 1491 m 0
 294.502604167 1546.33333333 338.555013021 1551 387.993164062 1505 c 0
 422.126627604 1463 454.980143229 1414.33333333 486.553710938 1359 c 1
 570.013671875 1427 l 2
 658.013671875 1473.66666667 717.680338542 1468.66666667 749.013671875 1412 c 0
 777.680338542 1359.33333333 748.013671875 1309.33333333 660.013671875 1262 c 2
 561.43359375 1207 l 1
 579.153645833 1177.66666667 597.680338542 1147 617.013671875 1115 c 0
 773.013671875 857.666666667 836.013671875 627 806.013671875 423 c 0
 779.347005208 239.666666667 716.347005208 111.666666667 617.013671875 39 c 0
 507.426432292 -71 398.700520833 -74.3333333333 290.8359375 29 c 0
 110.169270833 161.666666667 70.8359375 348.333333333 172.8359375 589 c 0
 246.169270833 761.666666667 364.821614583 871.666666667 528.79296875 919 c 1
 507.033203125 992.333333333 483.353515625 1059.33333333 457.75390625 1120 c 1
 357.8359375 1037 l 2
 278.502604167 994.333333333 224.169270833 998.333333333 194.8359375 1049 c 0
 160.169270833 1108.33333333 182.502604167 1159.33333333 261.8359375 1202 c 2
 381.59375 1272 l 1
 359.088541667 1303.33333333 331.8359375 1332.33333333 299.8359375 1359 c 0
 242.502604167 1407 227.8359375 1451 255.8359375 1491 c 0
571.013671875 763 m 1
 558.2265625 755.666666667 544.152994791 748.666666667 528.79296875 742 c 0
 442.180338542 705.333333333 384.194661459 650.333333333 354.8359375 577 c 0
 290.8359375 465.666666667 280.502604167 357 323.8359375 251 c 0
 350.820963541 184.333333333 395.246744791 147.5 457.11328125 140.5 c 128
 518.98046875 133.5 570.280598958 203.333333333 611.013671875 350 c 0
 643.013671875 450 638.013671875 564 596.013671875 692 c 0
 588.013671875 716 579.680338542 739.666666667 571.013671875 763 c 1
EndSplineSet
Validated: 33
EndChar

StartChar: divide
Encoding: 247 247 185
Width: 822
GlyphClass: 2
Flags: HW
HStem: 186 184<341.781 505.954> 549 184<41.375 745.807> 958 184<336.76 441.831>
VStem: 327.833 191<199.964 355.645> 327.833 122.241<967.347 1138.41>
LayerCount: 3
Fore
SplineSet
128 733 m 2
 632.427734375 735 l 2
 715.094401042 735 756.761067708 704.333333333 757.427734375 643 c 0
 757.427734375 579.666666667 717.761067708 548 638.427734375 548 c 2
 119 549 l 2
 61 549 32 579 32 639 c 0
 32 701.666666667 64 733 128 733 c 2
399.833007812 367 m 0
 407.833007812 369 415.833007812 370 423.833007812 370 c 0
 432.499674479 370 440.833007812 369 448.833007812 367 c 0
 464.833007812 363 478.833007812 355 490.833007812 343 c 0
 504.833007812 330.333333333 513.166341145 316.666666667 515.833007812 302 c 0
 517.833007812 294 518.833007812 286 518.833007812 278 c 0
 518.833007812 268 518.166341145 260.333333333 516.833007812 255 c 0
 511.499674479 237 501.833007812 221.666666667 487.833007812 209 c 0
 475.166341145 197.666666667 458.166341145 190.333333333 436.833007812 187 c 0
 432.166341145 186.333333333 427.833007812 186 423.833007812 186 c 0
 409.166341145 186 395.166341145 189 381.833007812 195 c 0
 364.499674479 203 350.833007812 215.333333333 340.833007812 232 c 0
 332.166341145 246 327.833007812 261.333333333 327.833007812 278 c 0
 327.833007812 290.666666667 330.166341145 302.333333333 334.833007812 313 c 0
 340.166341145 326.333333333 348.833007812 337.666666667 360.833007812 347 c 0
 371.499674479 356.333333333 384.499674479 363 399.833007812 367 c 0
373.9140625 1139 m 0
 379.033854167 1141 384.153645833 1142 389.2734375 1142 c 0
 394.8203125 1142 400.153645833 1141 405.2734375 1139 c 0
 415.513020833 1135 424.472981771 1127 432.153320312 1115 c 0
 441.113606771 1102.33333333 446.446940104 1088.66666667 448.153320312 1074 c 0
 449.433919271 1066 450.07421875 1058 450.07421875 1050 c 0
 450.07421875 1040 449.647135417 1032.33333333 448.79296875 1027 c 0
 445.380208333 1009 439.193684896 993.666666667 430.233398438 981 c 0
 422.127278646 969.666666667 411.247395833 962.333333333 397.59375 959 c 0
 394.606770833 958.333333333 391.833333333 958 389.2734375 958 c 0
 379.88671875 958 370.926757813 961 362.393554688 967 c 0
 351.300455729 975 342.553710937 987.333333333 336.153320312 1004 c 0
 330.606445312 1018 327.833007812 1033.33333333 327.833007812 1050 c 0
 327.833007812 1062.66666667 329.326497395 1074.33333333 332.313476562 1085 c 0
 335.726888021 1098.33333333 341.2734375 1109.66666667 348.953125 1119 c 0
 355.779947917 1128.33333333 364.100260417 1135 373.9140625 1139 c 0
EndSplineSet
Validated: 1
EndChar

StartChar: oslash
Encoding: 248 248 186
Width: 879
GlyphClass: 2
Flags: HW
HStem: -49 189<331.12 506.372> 845 204<356.763 529.622>
VStem: 64.4795 196<302.285 706.638> 584.319 186<235.52 653.13>
LayerCount: 3
Fore
SplineSet
156.479492188 -23 m 2
 124.479492188 -59 93.8128255212 -64 64.4794921875 -38 c 0
 24.4794921875 -2.66666666667 20.4794921875 32.6666666667 52.4794921875 68 c 2
 722.319335938 1026 l 2
 747.652669271 1054 776.319335938 1054.66666667 808.319335938 1028 c 0
 843.652669271 997.333333333 848.986002605 968 824.319335938 940 c 2
 156.479492188 -23 l 2
449.919921875 845 m 0
 394.026692708 843 352.213216146 812.666666667 324.479492188 754 c 0
 281.812825521 663.333333333 260.479492188 563.666666667 260.479492188 455 c 0
 260.479492188 350.333333333 275.839518229 272 306.559570312 220 c 0
 338.133138021 166.666666667 374.399739583 140 415.359375 140 c 0
 461.866536459 140 501.120117188 166.666666667 533.120117188 220 c 0
 566.826497396 276.666666667 583.892903646 367.666666667 584.319335938 493 c 0
 584.986002605 730.333333333 540.186197917 847.666666667 449.919921875 845 c 0
444.799804688 1049 m 0
 662.479492188 1047 770.986002605 855 770.319335938 473 c 0
 769.652669271 310.333333333 733.652669271 186.666666667 662.319335938 102 c 1
 592.400065105 0 504.960286459 -50.3333333333 400 -49 c 0
 324.053385417 -48.3333333333 249.546549479 1 176.479492188 99 c 0
 101.812825521 187.666666667 64.4794921875 312.333333333 64.4794921875 473 c 0
 64.4794921875 625 109.146158854 759.666666667 198.479492188 877 c 0
 269.680013021 993 351.786783855 1050.33333333 444.799804688 1049 c 0
EndSplineSet
Validated: 37
EndChar

StartChar: thorn
Encoding: 254 254 192
Width: 888
GlyphClass: 2
Flags: HW
HStem: -19 190<278.057 482.259> 754 175<304.736 505.069>
VStem: 94.7363 182<-555.175 -19.1365 171 322.144> 124.736 180<524.64 756.212 929 1302.93> 604.256 180<283.722 640.304>
LayerCount: 3
Fore
SplineSet
228.736328125 1324 m 0
 284.522786458 1325.33333333 311.136067708 1274.66666667 308.576171875 1172 c 0
 306.016276042 1077.33333333 304.736328125 996.333333333 304.736328125 929 c 1
 629.749348958 979 789.589192708 807.333333333 784.255859375 414 c 0
 780.255859375 111.333333333 609.749348958 -33 272.736328125 -19 c 1
 282.445963542 -19.6666666667 283.779296875 -164 276.736328125 -452 c 0
 274.069661458 -530 242.069661458 -569 180.736328125 -569 c 0
 122.069661458 -569 93.4029947917 -530 94.736328125 -452 c 2
 124.736328125 1168 l 2
 126.069661458 1270.66666667 160.736328125 1322.66666667 228.736328125 1324 c 0
298.736328125 754 m 1
 278.056640625 171 l 1
 493.76171875 171.666666667 602.494791666 258.666666667 604.255859375 432 c 0
 608.255859375 666 506.416015625 773.333333333 298.736328125 754 c 1
EndSplineSet
Validated: 33
EndChar

StartChar: dcroat
Encoding: 273 273 211
Width: 916
GlyphClass: 2
Flags: HW
HStem: 1185 156<406.625 649 848 961.106> 1590 20G<704 801>
VStem: 64 178<269.502 712.909> 627 193<221.984 702.725> 653 195<940 1183 1341 1598.11>
LayerCount: 3
Fore
SplineSet
627 269 m 1
 634.333333333 407.666666667 638 554.666666667 638 710 c 1
 560 832 484.333333333 879 411 851 c 0
 357 830.333333333 318.333333333 797 295 751 c 0
 261 685 243.333333333 593 242 475 c 0
 240.666666667 399 258.333333333 324 295 250 c 0
 324.333333333 190 367 155 423 145 c 0
 482.333333333 134.333333333 550.333333333 175.666666667 627 269 c 1
749 1610 m 0
 818.333333333 1610 852.333333333 1577 851 1511 c 2
 848 1339 l 1
 892 1338 l 2
 943.333333333 1337.33333333 968.333333333 1309.33333333 967 1254 c 0
 966.333333333 1205.33333333 940.333333333 1181.33333333 889 1182 c 2
 844 1183 l 1
 820 64 l 2
 819.333333333 -8.66666666667 783 -44.3333333333 711 -43 c 0
 657.666666667 -41.6666666667 629.333333333 -13 626 43 c 1
 562.666666667 -19.6666666667 495 -50.6666666667 423 -50 c 0
 349 -49.3333333333 281.333333333 -5.33333333333 220 82 c 1
 121.333333333 180.666666667 69.3333333333 295.666666667 64 427 c 0
 58 604.333333333 104 753.333333333 202 874 c 1
 270.666666667 988 352.666666667 1045 448 1045 c 0
 499.333333333 1045 544.333333333 1028 583 994 c 0
 613 967 613 967 643 940 c 1
 649 1185 l 1
 453 1188 l 2
 419 1188.66666667 402.333333333 1212.66666667 403 1260 c 0
 403.666666667 1316.66666667 421 1344.66666667 455 1344 c 2
 653 1341 l 1
 657 1517 l 2
 658.333333333 1577.66666667 689 1608.66666667 749 1610 c 0
EndSplineSet
EndChar

StartChar: Hbar
Encoding: 294 294 232
Width: 1271
GlyphClass: 2
Flags: HW
HStem: 631 209<386.96 935.92> 1106 195<-7.92944 1290.79> 1493 20G<252.96 348.08 999.561 1096.56>
VStem: 171.96 197<-31.7766 631> 204.96 182<840 1502.64> 921.92 197<-32.7344 631> 940.561 206<840 1495.36>
LayerCount: 3
Fore
SplineSet
93.9599609375 1106 m 2
 15.9599609375 1106 -23.0400390625 1138 -23.0400390625 1202 c 0
 -23.0400390625 1268 21.9599609377 1301 111.959960938 1301 c 2
 1169.56054688 1304 l 2
 1259.56054688 1304 1304.89388021 1271.33333333 1305.56054688 1206 c 0
 1305.56054688 1139.33333333 1263.89388021 1106 1180.56054688 1106 c 2
 93.9599609375 1106 l 2
298.959960938 1513 m 0
 364.453450521 1513 396.7734375 1482 395.919921875 1420 c 2
 386.959960938 840 l 1
 940.560546875 840 l 1
 952.560546875 1424 l 2
 953.893880208 1481.33333333 984.560546877 1510.66666667 1044.56054688 1512 c 0
 1113.89388021 1512 1147.89388021 1481 1146.56054688 1419 c 2
 1118.91992188 55 l 2
 1118.25325521 -13.6666666667 1081.91992188 -47.3333333333 1009.91992188 -46 c 0
 950.399739585 -44.6666666667 921.06640625 -10.3333333333 921.919921875 57 c 0
 928.919921875 344 928.919921875 344 935.919921875 631 c 1
 377.279296875 631 l 1
 368.959960938 56 l 2
 367.626627605 -12.6666666667 330.959960938 -46.6666666667 258.959960938 -46 c 0
 198.959960938 -44.6666666667 169.959960938 -10.3333333333 171.959960938 57 c 2
 204.959960938 1425 l 2
 206.293294271 1482.33333333 237.626627605 1511.66666667 298.959960938 1513 c 0
EndSplineSet
Validated: 37
EndChar

StartChar: hbar
Encoding: 295 295 233
Width: 954
GlyphClass: 2
Flags: HW
HStem: 1183 172<6.30029 606.362> 1591 20G<228.721 320.6>
VStem: 147.721 211.079<-17.25 696.35> 180.721 178.079<919 1600> 677.521 202<-39.5837 778.125>
LayerCount: 3
Fore
SplineSet
75.720703125 1183 m 0
 24.3873697917 1183.66666667 -1.279296875 1211.66666667 -1.279296875 1267 c 0
 -1.279296875 1325.66666667 27.3873697917 1355 84.720703125 1355 c 2
 541.200195312 1357 l 2
 588.133138021 1357 611.813151042 1328.33333333 612.240234375 1271 c 0
 612.240234375 1211.66666667 589.626953125 1182 544.400390625 1182 c 0
 543.119791667 1180 386.893229167 1180.33333333 75.720703125 1183 c 0
274.720703125 1611 m 0
 335.893229167 1611 366.053059896 1577.66666667 365.200195312 1511 c 2
 358.799804688 919 l 1
 412.133138021 996.333333333 483.173177084 1035 571.919921875 1035 c 0
 782.3203125 1034.33333333 886.187174479 882.333333333 883.520507812 579 c 2
 879.520507812 72 l 2
 878.853841145 -8.66666666667 846.853841145 -51.6666666667 783.520507812 -57 c 0
 712.426757812 -63 677.093424479 -26 677.520507812 54 c 2
 680.520507812 533 l 2
 681.853841145 710.333333333 647.360351562 803.333333333 577.040039062 812 c 0
 498.106445313 822.666666667 425.359700521 765.666666667 358.799804688 641 c 1
 344.720703125 64 l 2
 342.054036458 -8.66666666667 305.387369792 -44.3333333333 234.720703125 -43 c 0
 175.387369792 -41.6666666667 146.387369792 -5.33333333333 147.720703125 66 c 2
 180.720703125 1517 l 2
 182.054036458 1578.33333333 213.387369792 1609.66666667 274.720703125 1611 c 0
EndSplineSet
Validated: 37
EndChar

StartChar: dotlessi
Encoding: 305 305 243
Width: 502
GlyphClass: 2
Flags: HW
HStem: -50 21G<168.29 268.79>
VStem: 117.79 200<-34.542 784.524> 134.79 197<208.476 1030.74>
LayerCount: 3
Fore
SplineSet
238.790039062 1047 m 0
 302.123372395 1045.66666667 333.123372395 1002.33333333 331.790039062 917 c 2
 317.790039062 85 l 2
 316.456705729 -5 284.456705729 -50 221.790039062 -50 c 0
 150.456705729 -49.3333333333 115.790039062 -7 117.790039062 77 c 2
 134.790039062 916 l 2
 136.790039062 1004.66666667 171.456705729 1048.33333333 238.790039062 1047 c 0
EndSplineSet
Validated: 33
EndChar

StartChar: kgreenlandic
Encoding: 312 312 250
Width: 910
GlyphClass: 2
Flags: HW
VStem: 83.875 197<-28.8906 360 626 784.234> 103.875 186.84<349.766 360 626 1150.34>
LayerCount: 3
Fore
SplineSet
196.875 1161 m 0
 262.421875 1161 294.981770833 1128 294.5546875 1062 c 2
 290.71484375 626 l 1
 583.981445312 1046 l 2
 655.981445312 1111.33333333 713.314778645 1120 755.981445312 1072 c 0
 801.314778645 1020 795.981445312 969.333333333 739.981445312 920 c 2
 490.395507812 647 l 1
 781.981445312 172 l 2
 836.648111979 96.6666666667 843.981445312 39.3333333333 803.981445312 0 c 0
 741.314778645 -62.6666666667 683.314778645 -55.3333333333 629.981445312 22 c 2
 395.674804688 513 l 1
 286.875 360 l 1
 280.875 64 l 2
 279.541666667 -8.66666666667 242.875 -44.3333333333 170.875 -43 c 0
 110.875 -41.6666666667 81.875 -5.33333333333 83.875 66 c 2
 103.875 1068 l 2
 105.208333333 1128.66666667 136.208333333 1159.66666667 196.875 1161 c 0
EndSplineSet
Validated: 33
EndChar

StartChar: Lslash
Encoding: 321 321 259
Width: 924
GlyphClass: 2
Flags: HW
HStem: -44 206<349.909 817.562> -31 208<371.569 925.824>
VStem: 150.909 199<162 662.678> 183.909 185.199<844.322 1524.54>
LayerCount: 3
Fore
SplineSet
67.9091796875 528 m 2
 11.2425130208 491.333333333 -30.7574869792 495.333333333 -58.0908203125 540 c 0
 -96.7574869788 602.666666667 -87.7574869788 652.666666667 -31.0908203125 690 c 2
 440.1484375 1035 l 2
 484.522135417 1081 516.522135417 1075 536.1484375 1017 c 0
 556.202473959 957.666666667 544.042643229 905.666666667 499.668945312 861 c 2
 67.9091796875 528 l 2
237.909179688 -44 m 2
 177.909179688 -44.6666666667 148.909179688 -9.66666666667 150.909179688 61 c 2
 183.909179688 1446 l 2
 185.242513021 1504 216.575846355 1533.66666667 277.909179688 1535 c 0
 339.562174479 1535 369.961914063 1503.33333333 369.108398438 1440 c 2
 349.909179688 162 l 1
 839.22265625 177 l 2
 905.22265625 178.333333333 938.22265625 144 938.22265625 74 c 0
 938.22265625 4.66666666667 906.22265625 -30.3333333333 842.22265625 -31 c 2
 258.909179688 -44 l 1
 237.909179688 -44 l 2
EndSplineSet
Validated: 37
EndChar

StartChar: lslash
Encoding: 322 322 260
Width: 499
GlyphClass: 2
Flags: HW
HStem: 1590 20G<238.394 335.394>
VStem: 157.394 197<-28.8906 677.81> 191.394 194<905.19 1598.3>
LayerCount: 3
Fore
SplineSet
114.393554688 495 m 2
 59.726888021 448.333333333 11.7268880208 448.333333333 -29.6064453125 495 c 0
 -70.2731119792 541 -63.6064453125 587.666666667 -9.6064453125 635 c 2
 422.393554688 1013 l 2
 478.393554688 1062.33333333 524.726888021 1061 561.393554688 1009 c 0
 600.060221355 953.666666667 591.060221355 901.666666667 534.393554688 853 c 2
 114.393554688 495 l 2
283.393554688 1610 m 0
 352.726888021 1610 386.726888021 1577 385.393554688 1511 c 2
 354.393554688 64 l 2
 353.726888021 -8.66666666667 317.393554688 -44.3333333333 245.393554688 -43 c 0
 185.393554688 -41.6666666667 156.060221355 -5.33333333333 157.393554688 66 c 2
 191.393554688 1517 l 2
 192.726888021 1577.66666667 223.393554688 1608.66666667 283.393554688 1610 c 0
EndSplineSet
Validated: 37
EndChar

StartChar: Eng
Encoding: 330 330 268
Width: 1249
GlyphClass: 2
Flags: HW
HStem: -495 177<664.607 880.031>
VStem: 83.2344 197<-28.875 631.332> 117.234 186<843.668 1145> 921.475 201<-275.156 45 334 688.312> 959.475 195<914.612 1522.48>
LayerCount: 3
Fore
SplineSet
921.474609375 45 m 1
 303.234375 1145 l 1
 280.234375 58 l 2
 278.901041667 -10 242.567708333 -43.3333333333 171.234375 -42 c 0
 110.567708333 -40.6666666667 81.234375 -6.66666666667 83.234375 60 c 2
 117.234375 1415 l 2
 118.567708333 1471.66666667 149.234375 1500.66666667 209.234375 1502 c 0
 244.567708333 1502.66666667 270.901041667 1493 288.234375 1473 c 2
 929.474609375 334 l 1
 929.474609375 334 929.474609375 334 959.474609375 1446 c 0
 960.807942708 1502.66666667 991.80794271 1531.66666667 1052.47460938 1533 c 0
 1121.80794271 1533 1155.80794271 1503.33333333 1154.47460938 1444 c 2
 1122.47460938 75 l 2
 1113.80794271 -305 1025.62760417 -501.666666667 857.93359375 -515 c 0
 794.393229167 -522.333333333 741.226888021 -515.666666667 698.434570312 -495 c 0
 659.099934896 -477 646.564778646 -437 660.829101562 -375 c 0
 673.796549479 -317 701.892578125 -298 745.1171875 -318 c 0
 794.393880208 -340.666666667 836.538085937 -330.666666667 871.549804688 -288 c 0
 903.103841146 -248 919.745442708 -137 921.474609375 45 c 1
EndSplineSet
Validated: 33
EndChar

StartChar: eng
Encoding: 331 331 269
Width: 872
GlyphClass: 2
Flags: HW
VStem: 85.1543 197<-23.8906 650.673> 108.154 184.241<421.327 735.476 936 1083.99> 312.875 119.04<-375.093 -220.4> 581.675 197<-381.812 788.686>
LayerCount: 3
Fore
SplineSet
576.5546875 61 m 1
 585.674804688 535 l 2
 590.341471355 719 556.154622396 815 483.114257812 823 c 0
 423.807617187 829.666666667 360.234700521 780 292.395507812 674 c 1
 282.154296875 69 l 2
 280.154296875 -3.66666666667 243.487630208 -39.3333333333 172.154296875 -38 c 0
 112.154296875 -36.6666666667 83.154296875 -0.333333333333 85.154296875 71 c 2
 108.154296875 1001 l 2
 109.487630208 1063 140.820963542 1094 202.154296875 1094 c 0
 266.154296875 1094 297.514648437 1061 296.235351562 995 c 0
 295.808268229 975.666666667 295.381184895 956 294.954101562 936 c 1
 341.461263021 1002 400.981445313 1035 473.514648438 1035 c 0
 684.954752605 1034.33333333 788.341471355 882.333333333 783.674804688 579 c 2
 775.674804688 79 l 1
 775.674804688 79 775.674804688 79 778.674804688 -221 c 0
 781.341471355 -466.333333333 690.928059896 -588 507.434570312 -586 c 0
 451.114257812 -585.333333333 402.6875 -551.333333333 362.154296875 -484 c 0
 330.581380208 -432 314.154947917 -375.333333333 312.875 -314 c 0
 311.594401041 -251.333333333 327.594401041 -216.666666667 360.875 -210 c 0
 383.48828125 -205.333333333 407.168294271 -235.333333333 431.915039062 -300 c 0
 460.074544271 -372.666666667 492.287760417 -402 528.5546875 -388 c 0
 563.968098959 -374.666666667 581.674804688 -326.666666667 581.674804688 -244 c 0
 581.248372396 -214.666666667 579.541666667 -113 576.5546875 61 c 1
EndSplineSet
Validated: 33
EndChar

StartChar: Tbar
Encoding: 358 358 296
Width: 1149
GlyphClass: 2
Flags: HW
HStem: 669 198<285.226 825.174> 1307 193<39.313 499.193 690.434 1117.88>
VStem: 474.394 197<-36.875 778.055> 499.193 191.24<581.945 1308>
LayerCount: 3
Fore
SplineSet
277.9140625 762 m 0
 278.766927083 831.333333333 296.046875 866.333333333 329.75390625 867 c 2
 767.295898438 871 l 2
 811.278320313 871.666666667 833.055989583 837.333333333 832.62890625 768 c 0
 832.201822917 701.333333333 809.997395833 668 766.015625 668 c 2
 327.833007812 669 l 2
 294.126627604 669 277.486979167 700 277.9140625 762 c 0
158.040039062 1500 m 2
 1000.9765625 1500 l 2
 1087.64322917 1500 1131.64322917 1467.33333333 1132.9765625 1402 c 0
 1134.30989583 1340.66666667 1090.30989583 1310 1000.9765625 1310 c 2
 690.43359375 1309 l 1
 671.393554688 50 l 2
 670.060221355 -18 633.726888021 -51.3333333333 562.393554688 -50 c 0
 502.873372396 -48.6666666667 473.540039063 -14.6666666667 474.393554688 52 c 2
 499.193359375 1308 l 1
 395.193359375 1307.33333333 278.475585937 1307 149.040039062 1307 c 0
 65.0400390623 1307 23.0400390625 1342 23.0400390625 1412 c 0
 23.0400390625 1470.66666667 68.0400390623 1500 158.040039062 1500 c 2
EndSplineSet
Validated: 37
EndChar

StartChar: tbar
Encoding: 359 359 297
Width: 885
GlyphClass: 2
Flags: HW
HStem: 501 151<142.383 720.337> 844 199<51.5459 340.714 533.793 817.082> 1590 20G<403.714 494.134>
VStem: 322.714 197<-28.8906 685.634> 340.714 189.88<458.581 844> 345.714 188.079<1045 1594.65>
LayerCount: 3
Fore
SplineSet
136.3203125 575 m 0
 138.986979167 626.333333333 163.3203125 652 209.3203125 652 c 2
 631.907226562 654 l 2
 693.240559895 654 724.573893229 628.666666667 725.907226562 578 c 0
 727.240559895 526 697.240559895 500 635.907226562 500 c 2
 201.3203125 501 l 2
 155.3203125 501 133.653645833 525.666666667 136.3203125 575 c 0
448.713867188 1610 m 0
 509.273763021 1610 539.553710938 1577 539.553710938 1511 c 0
 538.700195313 1341 536.779947917 1185.66666667 533.79296875 1045 c 1
 707.907226562 1046 l 2
 789.907226562 1046.66666667 830.907226562 1013.33333333 830.907226562 946 c 0
 830.907226562 878 791.907226562 844 713.907226562 844 c 0
 606.907226562 844 606.907226562 844 530.59375 844 c 1
 519.713867188 64 l 2
 519.047200521 -8.66666666667 482.713867188 -44.3333333333 410.713867188 -43 c 0
 351.193684896 -41.6666666667 321.860351563 -5.33333333333 322.713867188 66 c 2
 340.713867188 844 l 1
 243.3203125 844 243.3203125 844 126.3203125 844 c 0
 68.9869791667 844 40.3203125 876.666666667 40.3203125 942 c 0
 40.3203125 1009.33333333 71.9869791667 1043 135.3203125 1043 c 0
 211.986979167 1043 282.118164063 1043.33333333 345.713867188 1044 c 1
 356.713867188 1517 l 2
 358.047200521 1579 388.713867188 1610 448.713867188 1610 c 0
EndSplineSet
Validated: 37
EndChar

StartChar: longs
Encoding: 383 383 321
Width: 992
GlyphClass: 2
Flags: HW
HStem: 1404 195<540.561 808.978>
VStem: 205.475 197<-28.8906 689.616> 221.475 196<355.884 1241.81>
LayerCount: 3
Fore
SplineSet
222.474609375 765 m 2
 226.474609375 978 l 2
 235.807942708 1384 381.141276042 1591 662.474609375 1599 c 0
 777.141276042 1602.33333333 831.807942708 1567.33333333 826.474609375 1494 c 0
 822.474609375 1432 766.474609375 1402 658.474609375 1404 c 0
 507.807942708 1406.66666667 429.141276042 1266.66666667 422.474609375 984 c 2
 418.474609375 762 l 2
 418.474609375 758.666666667 418.141276042 755.333333333 417.474609375 752 c 2
 402.474609375 64 l 2
 401.141276042 -8.66666666667 364.474609375 -44.3333333333 292.474609375 -43 c 0
 232.474609375 -41.6666666667 203.474609375 -5.33333333333 205.474609375 66 c 2
 221.474609375 762 l 2
 222.141276042 762.666666667 222.474609375 763.666666667 222.474609375 765 c 2
EndSplineSet
Validated: 33
EndChar

StartChar: florin
Encoding: 402 402 322
Width: 702
GlyphClass: 2
Flags: HW
HStem: -361 195<-46.4336 125.597> 629 186<146.624 335.514 483.993 666.989> 1373 188<645.405 890.403>
LayerCount: 3
Fore
SplineSet
37.6484375 -361 m 0
 -21.6848958333 -355.666666667 -55.6848958333 -332.666666667 -64.3515625 -292 c 0
 -77.0182291667 -228 -43.0182291667 -186 37.6484375 -166 c 0
 177.771484375 -122 259.353190104 5 282.393554688 215 c 0
 298.607096355 362.333333333 316.313802084 501 335.513671875 631 c 1
 298.8203125 630.333333333 262.340494791 629.666666667 226.07421875 629 c 0
 161.123697917 627.666666667 129.981770833 656.666666667 132.6484375 716 c 0
 135.981770833 781.333333333 169.043294271 814.333333333 231.833007812 815 c 2
 364.953125 817 l 1
 384.580078125 931.666666667 405.700195313 1039 428.313476562 1139 c 0
 459.459960937 1277.66666667 504.260091146 1385.66666667 562.713867188 1463 c 0
 609.646809896 1525 686.837565104 1557.66666667 794.286132812 1561 c 0
 875.619466145 1563.66666667 914.286132812 1535 910.286132812 1475 c 0
 905.619466145 1409 862.619466145 1375 781.286132812 1373 c 0
 694.877929687 1371 636.740559896 1340 606.874023438 1280 c 0
 572.313476563 1212 547.993489583 1145 533.9140625 1079 c 0
 515.993489583 995 499.353190104 908.333333333 483.993164062 819 c 1
 521.966471354 819.666666667 560.153320313 820.333333333 598.553710938 821 c 0
 645.041992187 821.666666667 670.619466145 796.666666667 675.286132812 746 c 0
 681.286132812 675.333333333 659.121744791 639.333333333 608.79296875 638 c 2
 455.193359375 634 l 1
 437.2734375 510 421.913411458 381.333333333 409.11328125 248 c 0
 385.220052083 4 340.420247396 -152.333333333 274.713867188 -221 c 0
 164.670247396 -319 85.6484375 -365.666666667 37.6484375 -361 c 0
EndSplineSet
Validated: 33
EndChar

StartChar: Aringacute
Encoding: 506 506 323
Width: 1178
GlyphClass: 2
Flags: HW
HStem: 501 203<457.113 670.233> 1308 140<494.874 576.153> 1900 110<545.434 581.273>
VStem: 334.874 92.1592<1505.72 1811.46> 510.874 173.439<1962.5 2178.5> 686.874 96.6396<1504.01 1810.68>
LayerCount: 3
Fore
SplineSet
649.440429688 1790.5 m 2
 635.786783855 1759.16666667 622.986653646 1743.5 611.040039062 1743.5 c 0
 599.093424479 1743.5 587.360026042 1748.83333333 575.83984375 1759.5 c 0
 564.3203125 1770.16666667 558.560546875 1785.66666667 558.560546875 1806 c 0
 558.560546875 1826.33333333 561.546875 1846.5 567.51953125 1866.5 c 2
 620 2040.5 l 2
 631.520182292 2080.5 647.306966146 2100.5 667.360351562 2100.5 c 0
 687.927408854 2100.5 701.367513021 2093.16666667 707.680664062 2078.5 c 0
 732 2022 l 0
 732 1999 727.093424479 1975.83333333 717.280273438 1952.5 c 2
 649.440429688 1790.5 l 2
468.532226562 1521.59960938 m 0
 479.510742187 1506.53320313 492.660481771 1494.33333333 507.981445312 1485 c 0
 527.993815104 1473 545.265625 1468.19986979 559.796875 1470.59960938 c 0
 561.265625 1470.86653646 563.227864583 1470.86653646 565.68359375 1470.59960938 c 0
 584.561197917 1470.86653646 601.244140625 1474.46679687 615.732421875 1481.40039062 c 0
 630.577473958 1488.46679687 643.923828125 1498.66666667 655.771484375 1512 c 0
 671.257161458 1530 680.677734375 1551 684.033203125 1575 c 0
 684.677734375 1580.33333333 685.0703125 1586.13346354 685.2109375 1592.40039062 c 0
 685.0703125 1610.13346354 681.537434896 1627.13346354 674.612304688 1643.40039062 c 0
 664.870768229 1665.13346354 649.758463542 1682.53320313 629.275390625 1695.59960938 c 0
 604.425130208 1710.53320313 583.227864583 1716.73339844 565.68359375 1714.20019531 c 0
 564.561197917 1714.06673177 563.97265625 1714.06673177 563.91796875 1714.20019531 c 0
 540.639322917 1714.06673177 519.834960937 1707.86653646 501.504882812 1695.59960938 c 0
 483.834960937 1684.53320313 469.703776042 1668.33333333 459.111328125 1647 c 0
 451.037109375 1631.66666667 446.719401042 1613.46679687 446.158203125 1592.40039062 c 0
 446.052734375 1589.46679687 446.249023437 1586.26660156 446.747070312 1582.79980469 c 0
 448.249023437 1558.93326823 455.510742187 1538.53320313 468.532226562 1521.59960938 c 0
562.151367188 1803.59960938 m 0
 565.383789063 1803.19986979 567.150390625 1803.19986979 567.451171875 1803.59960938 c 0
 615.817057292 1813.19986979 657.333333333 1799.33333333 692 1762 c 0
 724.642820947 1724.37231571 745.343016259 1698.23885217 754.100585938 1683.59960938 c 0
 768.033528646 1668.53320313 774.706705729 1638.33333333 774.120117188 1593 c 0
 774.040039063 1583.66666667 773.451171875 1574.46679687 772.353515625 1565.40039062 c 0
 766.784505208 1523.80013021 750.887044271 1487.4000651 724.661132812 1456.20019531 c 0
 708.887044271 1437.4000651 690.241210937 1421.80013021 668.723632812 1409.40039062 c 0
 646.907877604 1397.13346354 623.552083333 1388.93326823 598.65625 1384.79980469 c 0
 588.21875 1382.93326823 578.209309896 1382.13346354 568.627929688 1382.40039062 c 0
 528.209309896 1382.13346354 491.311197917 1392.93326823 457.93359375 1414.79980469 c 0
 420.64453125 1438.93326823 393.167317708 1472.93326823 375.501953125 1516.79980469 c 0
 365.833984375 1540.93326823 361.123697917 1566.53320313 361.37109375 1593.59960938 c 0
 361.123697917 1612.53320313 363.478841146 1630.93326823 368.436523438 1648.79980469 c 0
 379.478841146 1692.26660156 403.226888021 1728.86653646 439.680664062 1758.59960938 c 0
 481.893554687 1793.53320313 522.717122396 1808.53320313 562.151367188 1803.59960938 c 0
EndSplineSet
Refer: 36 65 N 1 0 0 0.88 0 103.32 2
EndChar

StartChar: caron
Encoding: 711 711 334
Width: 991
GlyphClass: 2
Flags: HW
LayerCount: 3
Fore
SplineSet
483.353515625 1174 m 0
 467.567057292 1173.33333333 451.353841146 1187 434.713867188 1215 c 2
 206.625976562 1477 l 2
 166.625976562 1521 160.625976562 1558 188.625976562 1588 c 0
 232.625976562 1634 274.625976562 1634.66666667 314.625976562 1590 c 2
 483.353515625 1366 l 1
 651.141601562 1590 l 2
 691.808268229 1634 734.141601562 1633.33333333 778.141601562 1588 c 0
 806.141601562 1558.66666667 799.808268229 1521.66666667 759.141601562 1477 c 2
 531.353515625 1215 l 2
 515.139973958 1187 499.139973958 1173.33333333 483.353515625 1174 c 0
EndSplineSet
Validated: 33
EndChar

StartChar: macron
Encoding: 713 713 335
Width: 1027
GlyphClass: 2
Flags: HW
HStem: 1191 151<184.013 825.03>
VStem: 179.2 651.104<1198.4 1335.02>
LayerCount: 3
Fore
SplineSet
256.200195312 1342 m 2
 729.303710938 1344 l 2
 795.970377605 1344 829.637044271 1318.66666667 830.303710938 1268 c 0
 830.303710938 1216 798.303710938 1190 734.303710938 1190 c 2
 249.200195312 1191 l 2
 202.533528645 1191 179.200195312 1215.66666667 179.200195312 1265 c 0
 179.200195312 1316.33333333 204.866861979 1342 256.200195312 1342 c 2
EndSplineSet
Validated: 1
EndChar

StartChar: breve
Encoding: 728 728 336
Width: 971
GlyphClass: 2
Flags: HW
HStem: 1180 145<359.822 624.952>
VStem: 155.897 140<1391.85 1570.33>
LayerCount: 3
Fore
SplineSet
496.153320312 1131 m 0
 484.717773437 1131.66666667 466.157877604 1147.66666667 440.473632812 1179 c 2
 189.668945312 1485 l 0
 139.889648437 1540.33333333 116.333333333 1569.33333333 119 1572 c 1
 189.666666667 1642.66666667 272.666666667 1625.66666667 368 1521 c 0
 496.153320312 1355 l 1
 644 1542 l 0
 727.333333333 1632.66666667 803.333333333 1641.66666667 872 1569 c 9
 804.166992188 1485 l 0
 552.473632812 1179 l 2
 525.598632812 1146.32682292 506.825195312 1130.32682292 496.153320312 1131 c 0
EndSplineSet
EndChar

